<?xml version="1.0" standalone="no"?>
<!DOCTYPE svg PUBLIC "-//W3C//DTD SVG 1.1//EN" "http://www.w3.org/Graphics/SVG/1.1/DTD/svg11.dtd" >
<svg>
<metadata>
Created by FontForge 20090622 at Tue Oct 16 09:57:49 2018
 By deploy user
&#194;&#169; 2015-2017 Apple Inc. All rights reserved.
</metadata>
<defs>
<font id="SFProText-Regular" horiz-adv-x="1800" >
  <font-face 
    font-family="SF Pro Text"
    font-weight="400"
    font-stretch="normal"
    units-per-em="2048"
    panose-1="0 0 5 0 0 0 0 0 0 0"
    ascent="1638"
    descent="-410"
    x-height="1075"
    cap-height="1443"
    bbox="-873 -615 2699 2205"
    underline-thickness="120"
    underline-position="-250"
    unicode-range="U+0020-U+1F189"
  />
<missing-glyph horiz-adv-x="2048" 
d="M100 -494v284h1848v-284h-1848zM100 -62v284h1848v-284h-1848zM100 370v284h1848v-284h-1848zM100 802v284h1848v-284h-1848zM100 1234v284h1848v-284h-1848zM100 1666v284h1848v-284h-1848z" />
    <glyph glyph-name="uni2460" unicode="&#x31;&#x20dd;" 
d="M999 388h-130v571h-6l-166 -114v117l172 119h130v-693zM900 78q176 0 322 86t229.5 233.5t83.5 322.5t-83.5 322.5t-229.5 233.5t-322 86t-322 -86t-229.5 -233.5t-83.5 -322.5t83.5 -322.5t229.5 -233.5t322 -86zM900 -50q-156 0 -299 61.5t-246 164.5t-164.5 246
t-61.5 299t61.5 299t164.5 246t246 164.5t299 61.5t299 -61.5t246 -164.5t164.5 -246t61.5 -299t-61.5 -299t-164.5 -246t-246 -164.5t-299 -61.5z" />
    <glyph glyph-name="uni2461" unicode="&#x32;&#x20dd;" 
d="M782 878h-124v6q0 86 63.5 148t179.5 62q108 0 174.5 -54.5t66.5 -138.5q0 -33 -9 -61.5t-31.5 -59t-36.5 -46.5t-49 -52l-174 -185v-6h313v-103h-492v77l268 280q26 26 40.5 43.5t28 45.5t13.5 56q0 45 -32.5 74t-81.5 29q-54 0 -85.5 -31.5t-31.5 -77.5v-6zM900 78
q176 0 322 86t229.5 233.5t83.5 322.5t-83.5 322.5t-229.5 233.5t-322 86t-322 -86t-229.5 -233.5t-83.5 -322.5t83.5 -322.5t229.5 -233.5t322 -86zM900 -50q-156 0 -299 61.5t-246 164.5t-164.5 246t-61.5 299t61.5 299t164.5 246t246 164.5t299 61.5t299 -61.5
t246 -164.5t164.5 -246t61.5 -299t-61.5 -299t-164.5 -246t-246 -164.5t-299 -61.5z" />
    <glyph glyph-name="uni2462" unicode="&#x33;&#x20dd;" 
d="M820 696v98h77q51 0 84.5 29.5t33.5 73.5q-1 43 -34 71t-84 28t-84 -26.5t-35 -62.5h-122q2 80 67 133t177 54q109 0 175.5 -50t68.5 -129q1 -67 -42.5 -110t-92.5 -51v-6q59 -6 107.5 -48.5t49.5 -118.5q1 -93 -76.5 -149.5t-193.5 -56.5q-115 0 -183.5 53.5
t-71.5 134.5h120q4 -39 41.5 -64t94.5 -26q62 0 101 32t39 81q-2 49 -39 79.5t-97 30.5h-81zM900 78q176 0 322 86t229.5 233.5t83.5 322.5t-83.5 322.5t-229.5 233.5t-322 86t-322 -86t-229.5 -233.5t-83.5 -322.5t83.5 -322.5t229.5 -233.5t322 -86zM900 -50
q-156 0 -299 61.5t-246 164.5t-164.5 246t-61.5 299t61.5 299t164.5 246t246 164.5t299 61.5t299 -61.5t246 -164.5t164.5 -246t61.5 -299t-61.5 -299t-164.5 -246t-246 -164.5t-299 -61.5z" />
    <glyph glyph-name="uni2463" unicode="&#x34;&#x20dd;" 
d="M875 1081h189v-458h91v-102h-91v-133h-123v133h-352v103q30 54 69.5 117.5l68 108.5l77 119.5zM710 623h231v361h-6q-135 -198 -225 -357v-4zM900 78q176 0 322 86t229.5 233.5t83.5 322.5t-83.5 322.5t-229.5 233.5t-322 86t-322 -86t-229.5 -233.5t-83.5 -322.5
t83.5 -322.5t229.5 -233.5t322 -86zM900 -50q-156 0 -299 61.5t-246 164.5t-164.5 246t-61.5 299t61.5 299t164.5 246t246 164.5t299 61.5t299 -61.5t246 -164.5t164.5 -246t61.5 -299t-61.5 -299t-164.5 -246t-246 -164.5t-299 -61.5z" />
    <glyph glyph-name="uni2464" unicode="&#x35;&#x20dd;" 
d="M652 562h121q9 -43 46.5 -65t88.5 -22q56 0 97 38.5t41 102.5q0 58 -40.5 94.5t-98.5 36.5q-46 0 -79 -20.5t-47 -47.5h-114l32 402h434v-102h-329l-17 -195h6q15 21 53.5 40.5t93.5 19.5q99 0 166 -60.5t67 -164.5q0 -109 -74.5 -176.5t-195.5 -67.5q-108 0 -177 53
t-74 134zM900 78q176 0 322 86t229.5 233.5t83.5 322.5t-83.5 322.5t-229.5 233.5t-322 86t-322 -86t-229.5 -233.5t-83.5 -322.5t83.5 -322.5t229.5 -233.5t322 -86zM900 -50q-156 0 -299 61.5t-246 164.5t-164.5 246t-61.5 299t61.5 299t164.5 246t246 164.5t299 61.5
t299 -61.5t246 -164.5t164.5 -246t61.5 -299t-61.5 -299t-164.5 -246t-246 -164.5t-299 -61.5z" />
    <glyph glyph-name="uni2465" unicode="&#x36;&#x20dd;" 
d="M910 377q-128 0 -206 90.5t-78 260.5q0 172 77 269.5t210 97.5q102 0 170 -51t82 -135h-129q-9 39 -41 61.5t-79 22.5q-79 0 -122.5 -65t-44.5 -186h8q25 49 73.5 75.5t110.5 26.5q101 0 167 -64t66 -163q0 -105 -74 -172.5t-190 -67.5zM909 479q59 0 99 38.5t40 96.5
q0 60 -38.5 97.5t-99.5 37.5t-100.5 -37.5t-39.5 -95.5t40 -97.5t99 -39.5zM900 78q176 0 322 86t229.5 233.5t83.5 322.5t-83.5 322.5t-229.5 233.5t-322 86t-322 -86t-229.5 -233.5t-83.5 -322.5t83.5 -322.5t229.5 -233.5t322 -86zM900 -50q-156 0 -299 61.5t-246 164.5
t-164.5 246t-61.5 299t61.5 299t164.5 246t246 164.5t299 61.5t299 -61.5t246 -164.5t164.5 -246t61.5 -299t-61.5 -299t-164.5 -246t-246 -164.5t-299 -61.5z" />
    <glyph glyph-name="uni2466" unicode="&#x37;&#x20dd;" 
d="M672 1071h491v-105l-296 -588h-137l301 584v6h-359v103zM900 78q176 0 322 86t229.5 233.5t83.5 322.5t-83.5 322.5t-229.5 233.5t-322 86t-322 -86t-229.5 -233.5t-83.5 -322.5t83.5 -322.5t229.5 -233.5t322 -86zM900 -50q-156 0 -299 61.5t-246 164.5t-164.5 246
t-61.5 299t61.5 299t164.5 246t246 164.5t299 61.5t299 -61.5t246 -164.5t164.5 -246t61.5 -299t-61.5 -299t-164.5 -246t-246 -164.5t-299 -61.5z" />
    <glyph glyph-name="uni2467" unicode="&#x38;&#x20dd;" 
d="M900 467q63 0 104 33.5t41 85.5t-40.5 85.5t-104.5 33.5q-63 0 -104.5 -34t-41.5 -85q0 -52 41 -85.5t105 -33.5zM900 793q53 0 87 29.5t34 75.5t-34 74.5t-87 28.5t-87 -28.5t-34 -74.5t34 -75.5t87 -29.5zM898 375q-122 0 -197.5 56t-75.5 147q0 64 41.5 111.5
t109.5 61.5v5q-57 18 -89.5 59t-32.5 96q0 80 69 131.5t177 51.5t177 -51.5t69 -131.5q0 -55 -33 -97t-89 -58v-5q68 -14 109.5 -61t41.5 -111q0 -91 -77 -147.5t-200 -56.5zM900 78q176 0 322 86t229.5 233.5t83.5 322.5t-83.5 322.5t-229.5 233.5t-322 86t-322 -86
t-229.5 -233.5t-83.5 -322.5t83.5 -322.5t229.5 -233.5t322 -86zM900 -50q-156 0 -299 61.5t-246 164.5t-164.5 246t-61.5 299t61.5 299t164.5 246t246 164.5t299 61.5t299 -61.5t246 -164.5t164.5 -246t61.5 -299t-61.5 -299t-164.5 -246t-246 -164.5t-299 -61.5z" />
    <glyph glyph-name="uni2468" unicode="&#x39;&#x20dd;" 
d="M886 377q-98 0 -166.5 50.5t-84.5 134.5h129q11 -38 44.5 -60.5t79.5 -22.5q77 0 119.5 66t43.5 184h-8q-26 -48 -74 -74.5t-110 -26.5q-101 0 -167 64t-66 163q0 105 74 172.5t190 67.5q130 0 207 -92t77 -259q0 -173 -76 -270t-212 -97zM890 724q61 0 100.5 37t39.5 95
q0 59 -39.5 98t-99.5 39t-99.5 -38.5t-39.5 -96.5q0 -59 38.5 -96.5t99.5 -37.5zM900 78q176 0 322 86t229.5 233.5t83.5 322.5t-83.5 322.5t-229.5 233.5t-322 86t-322 -86t-229.5 -233.5t-83.5 -322.5t83.5 -322.5t229.5 -233.5t322 -86zM900 -50q-156 0 -299 61.5
t-246 164.5t-164.5 246t-61.5 299t61.5 299t164.5 246t246 164.5t299 61.5t299 -61.5t246 -164.5t164.5 -246t61.5 -299t-61.5 -299t-164.5 -246t-246 -164.5t-299 -61.5z" />
    <glyph glyph-name="uni24B6" unicode="A&#x20dd;" 
d="M800 688h200l-95 287h-10zM710 408h-132l248 693h148l248 -693h-132l-62 186h-256zM900 78q176 0 322 86t229.5 233.5t83.5 322.5t-83.5 322.5t-229.5 233.5t-322 86t-322 -86t-229.5 -233.5t-83.5 -322.5t83.5 -322.5t229.5 -233.5t322 -86zM900 -50q-156 0 -299 61.5
t-246 164.5t-164.5 246t-61.5 299t61.5 299t164.5 246t246 164.5t299 61.5t299 -61.5t246 -164.5t164.5 -246t61.5 -299t-61.5 -299t-164.5 -246t-246 -164.5t-299 -61.5z" />
    <glyph glyph-name="uni24B7" unicode="B&#x20dd;" 
d="M663 388v693h294q97 0 154 -46t57 -125q0 -60 -33 -99t-89 -53v-5q71 -8 116 -52t45 -118q0 -91 -69.5 -143t-183.5 -52h-291zM792 984v-194h98q150 0 150 99q0 44 -29.5 69.5t-81.5 25.5h-137zM792 700v-215h111q90 0 130.5 25.5t40.5 78.5q0 52 -35.5 81.5t-100.5 29.5
h-146zM900 78q176 0 322 86t229.5 233.5t83.5 322.5t-83.5 322.5t-229.5 233.5t-322 86t-322 -86t-229.5 -233.5t-83.5 -322.5t83.5 -322.5t229.5 -233.5t322 -86zM900 -50q-156 0 -299 61.5t-246 164.5t-164.5 246t-61.5 299t61.5 299t164.5 246t246 164.5t299 61.5
t299 -61.5t246 -164.5t164.5 -246t61.5 -299t-61.5 -299t-164.5 -246t-246 -164.5t-299 -61.5z" />
    <glyph glyph-name="uni24B8" unicode="C&#x20dd;" 
d="M1068 606h132q-16 -105 -98 -168t-204 -63q-145 0 -234.5 99t-89.5 260t89.5 260.5t234.5 99.5q125 0 207.5 -65.5t96.5 -174.5h-130q-8 59 -56.5 97t-115.5 38q-88 0 -141 -70t-53 -185t53 -184.5t141 -69.5q65 0 112.5 35.5t55.5 90.5zM900 78q176 0 322 86
t229.5 233.5t83.5 322.5t-83.5 322.5t-229.5 233.5t-322 86t-322 -86t-229.5 -233.5t-83.5 -322.5t83.5 -322.5t229.5 -233.5t322 -86zM900 -50q-156 0 -299 61.5t-246 164.5t-164.5 246t-61.5 299t61.5 299t164.5 246t246 164.5t299 61.5t299 -61.5t246 -164.5t164.5 -246
t61.5 -299t-61.5 -299t-164.5 -246t-246 -164.5t-299 -61.5z" />
    <glyph glyph-name="uni24B9" unicode="D&#x20dd;" 
d="M656 1081h256q161 0 242 -88.5t81 -256.5t-81 -258t-242 -90h-256v693zM786 978v-487h110q205 0 205 243q0 244 -205 244h-110zM900 78q176 0 322 86t229.5 233.5t83.5 322.5t-83.5 322.5t-229.5 233.5t-322 86t-322 -86t-229.5 -233.5t-83.5 -322.5t83.5 -322.5
t229.5 -233.5t322 -86zM900 -50q-156 0 -299 61.5t-246 164.5t-164.5 246t-61.5 299t61.5 299t164.5 246t246 164.5t299 61.5t299 -61.5t246 -164.5t164.5 -246t61.5 -299t-61.5 -299t-164.5 -246t-246 -164.5t-299 -61.5z" />
    <glyph glyph-name="uni24BA" unicode="E&#x20dd;" 
d="M1135 491v-103h-459v693h459v-103h-330v-190h311v-98h-311v-199h330zM900 78q176 0 322 86t229.5 233.5t83.5 322.5t-83.5 322.5t-229.5 233.5t-322 86t-322 -86t-229.5 -233.5t-83.5 -322.5t83.5 -322.5t229.5 -233.5t322 -86zM900 -50q-156 0 -299 61.5t-246 164.5
t-164.5 246t-61.5 299t61.5 299t164.5 246t246 164.5t299 61.5t299 -61.5t246 -164.5t164.5 -246t61.5 -299t-61.5 -299t-164.5 -246t-246 -164.5t-299 -61.5z" />
    <glyph glyph-name="uni24BB" unicode="F&#x20dd;" 
d="M838 388h-131v693h454v-104h-323v-205h295v-102h-295v-282zM900 78q176 0 322 86t229.5 233.5t83.5 322.5t-83.5 322.5t-229.5 233.5t-322 86t-322 -86t-229.5 -233.5t-83.5 -322.5t83.5 -322.5t229.5 -233.5t322 -86zM900 -50q-156 0 -299 61.5t-246 164.5t-164.5 246
t-61.5 299t61.5 299t164.5 246t246 164.5t299 61.5t299 -61.5t246 -164.5t164.5 -246t61.5 -299t-61.5 -299t-164.5 -246t-246 -164.5t-299 -61.5z" />
    <glyph glyph-name="uni24BC" unicode="G&#x20dd;" 
d="M1071 604v57h-160v95h284v-122q0 -117 -76.5 -188t-218.5 -71q-146 0 -236 99.5t-90 259.5q0 161 90.5 260.5t235.5 99.5q122 0 204.5 -63.5t95.5 -166.5h-130q-8 54 -56 89.5t-112 35.5q-89 0 -142.5 -69.5t-53.5 -185.5t53.5 -185t142.5 -69q81 0 125 34t44 90zM900 78
q176 0 322 86t229.5 233.5t83.5 322.5t-83.5 322.5t-229.5 233.5t-322 86t-322 -86t-229.5 -233.5t-83.5 -322.5t83.5 -322.5t229.5 -233.5t322 -86zM900 -50q-156 0 -299 61.5t-246 164.5t-164.5 246t-61.5 299t61.5 299t164.5 246t246 164.5t299 61.5t299 -61.5
t246 -164.5t164.5 -246t61.5 -299t-61.5 -299t-164.5 -246t-246 -164.5t-299 -61.5z" />
    <glyph glyph-name="uni24BD" unicode="H&#x20dd;" 
d="M1191 388h-130v304h-321v-304h-130v693h130v-286h321v286h130v-693zM900 78q176 0 322 86t229.5 233.5t83.5 322.5t-83.5 322.5t-229.5 233.5t-322 86t-322 -86t-229.5 -233.5t-83.5 -322.5t83.5 -322.5t229.5 -233.5t322 -86zM900 -50q-156 0 -299 61.5t-246 164.5
t-164.5 246t-61.5 299t61.5 299t164.5 246t246 164.5t299 61.5t299 -61.5t246 -164.5t164.5 -246t61.5 -299t-61.5 -299t-164.5 -246t-246 -164.5t-299 -61.5z" />
    <glyph glyph-name="uni24BE" unicode="I&#x20dd;" 
d="M966 388h-132v693h132v-693zM900 78q176 0 322 86t229.5 233.5t83.5 322.5t-83.5 322.5t-229.5 233.5t-322 86t-322 -86t-229.5 -233.5t-83.5 -322.5t83.5 -322.5t229.5 -233.5t322 -86zM900 -50q-156 0 -299 61.5t-246 164.5t-164.5 246t-61.5 299t61.5 299t164.5 246
t246 164.5t299 61.5t299 -61.5t246 -164.5t164.5 -246t61.5 -299t-61.5 -299t-164.5 -246t-246 -164.5t-299 -61.5z" />
    <glyph glyph-name="uni24BF" unicode="J&#x20dd;" 
d="M636 576h126q1 -41 28.5 -66t71.5 -25q53 0 80 30t27 85v481h130v-477q0 -110 -62.5 -169.5t-173.5 -59.5q-107 0 -167 57t-60 144zM900 78q176 0 322 86t229.5 233.5t83.5 322.5t-83.5 322.5t-229.5 233.5t-322 86t-322 -86t-229.5 -233.5t-83.5 -322.5t83.5 -322.5
t229.5 -233.5t322 -86zM900 -50q-156 0 -299 61.5t-246 164.5t-164.5 246t-61.5 299t61.5 299t164.5 246t246 164.5t299 61.5t299 -61.5t246 -164.5t164.5 -246t61.5 -299t-61.5 -299t-164.5 -246t-246 -164.5t-299 -61.5z" />
    <glyph glyph-name="uni24C0" unicode="&#x212a;&#x20dd;" 
d="M1215 1081l-263 -297l274 -396h-158l-212 312l-78 -84v-228h-130v693h130v-317h5l287 317h145zM900 78q176 0 322 86t229.5 233.5t83.5 322.5t-83.5 322.5t-229.5 233.5t-322 86t-322 -86t-229.5 -233.5t-83.5 -322.5t83.5 -322.5t229.5 -233.5t322 -86zM900 -50
q-156 0 -299 61.5t-246 164.5t-164.5 246t-61.5 299t61.5 299t164.5 246t246 164.5t299 61.5t299 -61.5t246 -164.5t164.5 -246t61.5 -299t-61.5 -299t-164.5 -246t-246 -164.5t-299 -61.5z" />
    <glyph glyph-name="uni24C1" unicode="L&#x20dd;" 
d="M1168 495v-107h-446v693h131v-586h315zM900 78q176 0 322 86t229.5 233.5t83.5 322.5t-83.5 322.5t-229.5 233.5t-322 86t-322 -86t-229.5 -233.5t-83.5 -322.5t83.5 -322.5t229.5 -233.5t322 -86zM900 -50q-156 0 -299 61.5t-246 164.5t-164.5 246t-61.5 299t61.5 299
t164.5 246t246 164.5t299 61.5t299 -61.5t246 -164.5t164.5 -246t61.5 -299t-61.5 -299t-164.5 -246t-246 -164.5t-299 -61.5z" />
    <glyph glyph-name="uni24C2" unicode="M&#x20dd;" 
d="M668 388h-117v693h132l216 -533h4l216 533h130v-693h-117v473h-6l-180 -453h-91l-181 453h-6v-473zM900 78q176 0 322 86t229.5 233.5t83.5 322.5t-83.5 322.5t-229.5 233.5t-322 86t-322 -86t-229.5 -233.5t-83.5 -322.5t83.5 -322.5t229.5 -233.5t322 -86zM900 -50
q-156 0 -299 61.5t-246 164.5t-164.5 246t-61.5 299t61.5 299t164.5 246t246 164.5t299 61.5t299 -61.5t246 -164.5t164.5 -246t61.5 -299t-61.5 -299t-164.5 -246t-246 -164.5t-299 -61.5z" />
    <glyph glyph-name="uni24C3" unicode="N&#x20dd;" 
d="M738 388h-124v693h111l331 -482h6v482h124v-693h-111l-332 484h-5v-484zM900 78q176 0 322 86t229.5 233.5t83.5 322.5t-83.5 322.5t-229.5 233.5t-322 86t-322 -86t-229.5 -233.5t-83.5 -322.5t83.5 -322.5t229.5 -233.5t322 -86zM900 -50q-156 0 -299 61.5t-246 164.5
t-164.5 246t-61.5 299t61.5 299t164.5 246t246 164.5t299 61.5t299 -61.5t246 -164.5t164.5 -246t61.5 -299t-61.5 -299t-164.5 -246t-246 -164.5t-299 -61.5z" />
    <glyph glyph-name="uni24C4" unicode="O&#x20dd;" 
d="M900 480q84 0 139 67.5t55 186.5q0 120 -55 187.5t-139 67.5t-139 -67.5t-55 -187.5q0 -119 55 -186.5t139 -67.5zM900 375q-140 0 -233 96.5t-93 262.5q0 167 93 263.5t233 96.5t233 -96.5t93 -263.5q0 -166 -93 -262.5t-233 -96.5zM900 78q176 0 322 86t229.5 233.5
t83.5 322.5t-83.5 322.5t-229.5 233.5t-322 86t-322 -86t-229.5 -233.5t-83.5 -322.5t83.5 -322.5t229.5 -233.5t322 -86zM900 -50q-156 0 -299 61.5t-246 164.5t-164.5 246t-61.5 299t61.5 299t164.5 246t246 164.5t299 61.5t299 -61.5t246 -164.5t164.5 -246t61.5 -299
t-61.5 -299t-164.5 -246t-246 -164.5t-299 -61.5z" />
    <glyph glyph-name="uni24C5" unicode="P&#x20dd;" 
d="M962 1081q112 0 177 -64t65 -163q0 -100 -65 -162.5t-178 -62.5h-153v-241h-129v693h283zM1071 854q0 60 -34.5 93t-96.5 33h-132v-251h132q62 0 96.5 32.5t34.5 92.5zM900 78q176 0 322 86t229.5 233.5t83.5 322.5t-83.5 322.5t-229.5 233.5t-322 86t-322 -86
t-229.5 -233.5t-83.5 -322.5t83.5 -322.5t229.5 -233.5t322 -86zM900 -50q-156 0 -299 61.5t-246 164.5t-164.5 246t-61.5 299t61.5 299t164.5 246t246 164.5t299 61.5t299 -61.5t246 -164.5t164.5 -246t61.5 -299t-61.5 -299t-164.5 -246t-246 -164.5t-299 -61.5z" />
    <glyph glyph-name="uni24C6" unicode="Q&#x20dd;" 
d="M1200 319h-128l-56 76q-55 -20 -116 -20q-140 0 -233 96.5t-93 262.5q0 167 93 263.5t233 96.5t233 -96.5t93 -263.5q0 -188 -120 -288zM900 480q28 0 49 7l-84 115h126l44 -60q59 70 59 192q0 120 -55 187.5t-139 67.5t-139 -67.5t-55 -187.5q0 -119 55 -186.5
t139 -67.5zM900 78q176 0 322 86t229.5 233.5t83.5 322.5t-83.5 322.5t-229.5 233.5t-322 86t-322 -86t-229.5 -233.5t-83.5 -322.5t83.5 -322.5t229.5 -233.5t322 -86zM900 -50q-156 0 -299 61.5t-246 164.5t-164.5 246t-61.5 299t61.5 299t164.5 246t246 164.5t299 61.5
t299 -61.5t246 -164.5t164.5 -246t61.5 -299t-61.5 -299t-164.5 -246t-246 -164.5t-299 -61.5z" />
    <glyph glyph-name="uni24C7" unicode="R&#x20dd;" 
d="M934 1081q116 0 182.5 -58.5t66.5 -157.5q0 -71 -38 -122t-95 -72l146 -283h-146l-128 263h-142v-263h-128v693h282zM780 747h132q65 0 101 29t36 85q0 57 -36 88.5t-97 31.5h-136v-234zM900 78q176 0 322 86t229.5 233.5t83.5 322.5t-83.5 322.5t-229.5 233.5t-322 86
t-322 -86t-229.5 -233.5t-83.5 -322.5t83.5 -322.5t229.5 -233.5t322 -86zM900 -50q-156 0 -299 61.5t-246 164.5t-164.5 246t-61.5 299t61.5 299t164.5 246t246 164.5t299 61.5t299 -61.5t246 -164.5t164.5 -246t61.5 -299t-61.5 -299t-164.5 -246t-246 -164.5t-299 -61.5z
" />
    <glyph glyph-name="uni24C8" unicode="S&#x20dd;" 
d="M620 582h127q5 -48 48 -77.5t110 -29.5t106.5 28t39.5 75q0 36 -27 58.5t-88 37.5l-117 26q-180 42 -180 189q0 92 73.5 149t192.5 57q116 0 190 -56t75 -147h-124q-4 47 -42.5 75.5t-99.5 28.5q-60 0 -97 -28t-37 -72q0 -65 100 -87l117 -26q99 -23 146 -70t47 -124
q0 -99 -76 -156.5t-207 -57.5q-125 0 -200 56t-77 151zM900 78q176 0 322 86t229.5 233.5t83.5 322.5t-83.5 322.5t-229.5 233.5t-322 86t-322 -86t-229.5 -233.5t-83.5 -322.5t83.5 -322.5t229.5 -233.5t322 -86zM900 -50q-156 0 -299 61.5t-246 164.5t-164.5 246
t-61.5 299t61.5 299t164.5 246t246 164.5t299 61.5t299 -61.5t246 -164.5t164.5 -246t61.5 -299t-61.5 -299t-164.5 -246t-246 -164.5t-299 -61.5z" />
    <glyph glyph-name="uni24C9" unicode="T&#x20dd;" 
d="M966 368h-132v588h-210v105h552v-105h-210v-588zM900 78q176 0 322 86t229.5 233.5t83.5 322.5t-83.5 322.5t-229.5 233.5t-322 86t-322 -86t-229.5 -233.5t-83.5 -322.5t83.5 -322.5t229.5 -233.5t322 -86zM900 -50q-156 0 -299 61.5t-246 164.5t-164.5 246t-61.5 299
t61.5 299t164.5 246t246 164.5t299 61.5t299 -61.5t246 -164.5t164.5 -246t61.5 -299t-61.5 -299t-164.5 -246t-246 -164.5t-299 -61.5z" />
    <glyph glyph-name="uni24CA" unicode="U&#x20dd;" 
d="M900 462q72 0 115 41t43 115v443h130v-454q0 -114 -78.5 -183t-209.5 -69t-209.5 69t-78.5 183v454h130v-443q0 -74 43 -115t115 -41zM900 78q176 0 322 86t229.5 233.5t83.5 322.5t-83.5 322.5t-229.5 233.5t-322 86t-322 -86t-229.5 -233.5t-83.5 -322.5t83.5 -322.5
t229.5 -233.5t322 -86zM900 -50q-156 0 -299 61.5t-246 164.5t-164.5 246t-61.5 299t61.5 299t164.5 246t246 164.5t299 61.5t299 -61.5t246 -164.5t164.5 -246t61.5 -299t-61.5 -299t-164.5 -246t-246 -164.5t-299 -61.5z" />
    <glyph glyph-name="uni24CB" unicode="V&#x20dd;" 
d="M822 368l-250 693h151l174 -555h6l174 555h151l-250 -693h-156zM900 78q176 0 322 86t229.5 233.5t83.5 322.5t-83.5 322.5t-229.5 233.5t-322 86t-322 -86t-229.5 -233.5t-83.5 -322.5t83.5 -322.5t229.5 -233.5t322 -86zM900 -50q-156 0 -299 61.5t-246 164.5
t-164.5 246t-61.5 299t61.5 299t164.5 246t246 164.5t299 61.5t299 -61.5t246 -164.5t164.5 -246t61.5 -299t-61.5 -299t-164.5 -246t-246 -164.5t-299 -61.5z" />
    <glyph glyph-name="uni24CC" unicode="W&#x20dd;" 
d="M898 869l-140 -501h-119l-195 693h143l117 -518h6l133 518h114l133 -518h6l117 518h143l-195 -693h-119l-140 501h-4zM900 78q176 0 322 86t229.5 233.5t83.5 322.5t-83.5 322.5t-229.5 233.5t-322 86t-322 -86t-229.5 -233.5t-83.5 -322.5t83.5 -322.5t229.5 -233.5
t322 -86zM900 -50q-156 0 -299 61.5t-246 164.5t-164.5 246t-61.5 299t61.5 299t164.5 246t246 164.5t299 61.5t299 -61.5t246 -164.5t164.5 -246t61.5 -299t-61.5 -299t-164.5 -246t-246 -164.5t-299 -61.5z" />
    <glyph glyph-name="uni24CD" unicode="X&#x20dd;" 
d="M1214 1081l-233 -348l230 -345h-152l-161 253h-6l-163 -253h-143l229 349l-227 344h155l159 -256h6l158 256h148zM900 78q176 0 322 86t229.5 233.5t83.5 322.5t-83.5 322.5t-229.5 233.5t-322 86t-322 -86t-229.5 -233.5t-83.5 -322.5t83.5 -322.5t229.5 -233.5t322 -86
zM900 -50q-156 0 -299 61.5t-246 164.5t-164.5 246t-61.5 299t61.5 299t164.5 246t246 164.5t299 61.5t299 -61.5t246 -164.5t164.5 -246t61.5 -299t-61.5 -299t-164.5 -246t-246 -164.5t-299 -61.5z" />
    <glyph glyph-name="uni24CE" unicode="Y&#x20dd;" 
d="M966 383h-131v273l-243 420h145l162 -297h5l162 297h142l-242 -418v-275zM900 78q176 0 322 86t229.5 233.5t83.5 322.5t-83.5 322.5t-229.5 233.5t-322 86t-322 -86t-229.5 -233.5t-83.5 -322.5t83.5 -322.5t229.5 -233.5t322 -86zM900 -50q-156 0 -299 61.5t-246 164.5
t-164.5 246t-61.5 299t61.5 299t164.5 246t246 164.5t299 61.5t299 -61.5t246 -164.5t164.5 -246t61.5 -299t-61.5 -299t-164.5 -246t-246 -164.5t-299 -61.5z" />
    <glyph glyph-name="uni24CF" unicode="Z&#x20dd;" 
d="M635 388v83l361 499v7h-350v104h509v-83l-360 -499v-7h370v-104h-530zM900 78q176 0 322 86t229.5 233.5t83.5 322.5t-83.5 322.5t-229.5 233.5t-322 86t-322 -86t-229.5 -233.5t-83.5 -322.5t83.5 -322.5t229.5 -233.5t322 -86zM900 -50q-156 0 -299 61.5t-246 164.5
t-164.5 246t-61.5 299t61.5 299t164.5 246t246 164.5t299 61.5t299 -61.5t246 -164.5t164.5 -246t61.5 -299t-61.5 -299t-164.5 -246t-246 -164.5t-299 -61.5z" />
    <glyph glyph-name="uni24EA" unicode="&#x23;&#x20dd;" 
d="M900 486q67 0 105.5 65.5t38.5 183.5t-38.5 183.5t-105.5 65.5t-105.5 -65.5t-38.5 -183.5t38.5 -183.5t105.5 -65.5zM900 376q-120 0 -194 95.5t-74 263.5t74 263.5t194 95.5t194 -95.5t74 -263.5t-74 -263.5t-194 -95.5zM900 78q176 0 322 86t229.5 233.5t83.5 322.5
t-83.5 322.5t-229.5 233.5t-322 86t-322 -86t-229.5 -233.5t-83.5 -322.5t83.5 -322.5t229.5 -233.5t322 -86zM900 -50q-156 0 -299 61.5t-246 164.5t-164.5 246t-61.5 299t61.5 299t164.5 246t246 164.5t299 61.5t299 -61.5t246 -164.5t164.5 -246t61.5 -299t-61.5 -299
t-164.5 -246t-246 -164.5t-299 -61.5z" />
    <glyph glyph-name="uni24FF" unicode="&#x30;&#x20dd;&#x25cf;" 
d="M896 461q-70 0 -109 71t-39 203t39 203t109 71t109 -71t39 -203t-39 -203t-109 -71zM896 338q138 0 220 106.5t82 290.5t-82 290.5t-220 106.5t-220 -106.5t-82 -290.5t82 -290.5t220 -106.5zM900 -50q-156 0 -299 61.5t-246 164.5t-164.5 246t-61.5 299t61.5 299
t164.5 246t246 164.5t299 61.5t299 -61.5t246 -164.5t164.5 -246t61.5 -299t-61.5 -299t-164.5 -246t-246 -164.5t-299 -61.5z" />
    <glyph glyph-name="uni278A" unicode="&#x31;&#x20dd;&#x25cf;" 
d="M1013 353v765h-148l-191 -132v-140l187 128h1v-621h151zM900 -50q-156 0 -299 61.5t-246 164.5t-164.5 246t-61.5 299t61.5 299t164.5 246t246 164.5t299 61.5t299 -61.5t246 -164.5t164.5 -246t61.5 -299t-61.5 -299t-164.5 -246t-246 -164.5t-299 -61.5z" />
    <glyph glyph-name="uni278B" unicode="&#x32;&#x20dd;&#x25cf;" 
d="M772 886v11q0 48 32.5 81.5t89.5 33.5q51 0 85 -30.5t34 -76.5q0 -30 -14.5 -60.5t-30 -49t-43.5 -46.5l-293 -306v-91h546v122h-342l203 212l48.5 54t37 49t30.5 61.5t9 65.5q0 93 -74 154t-194 61q-129 0 -199.5 -69.5t-70.5 -164.5v-11h146zM900 -50q-156 0 -299 61.5
t-246 164.5t-164.5 246t-61.5 299t61.5 299t164.5 246t246 164.5t299 61.5t299 -61.5t246 -164.5t164.5 -246t61.5 -299t-61.5 -299t-164.5 -246t-246 -164.5t-299 -61.5z" />
    <glyph glyph-name="uni278C" unicode="&#x33;&#x20dd;&#x25cf;" 
d="M804 688h93q63 0 101.5 -32t39.5 -83q0 -52 -40 -84.5t-106 -32.5q-59 1 -99 28.5t-45 69.5h-140q4 -92 79.5 -154t203.5 -62q129 0 215 63t85 168q-3 83 -54.5 130.5t-114.5 54.5q53 11 99 59t45 120q-2 88 -76 144t-194 56q-125 -1 -197 -62t-75 -153h144
q2 40 36.5 68.5t87.5 28.5q54 0 88.5 -28.5t35.5 -74.5q0 -46 -35 -76t-89 -30h-88v-118zM900 -50q-156 0 -299 61.5t-246 164.5t-164.5 246t-61.5 299t61.5 299t164.5 246t246 164.5t299 61.5t299 -61.5t246 -164.5t164.5 -246t61.5 -299t-61.5 -299t-164.5 -246
t-246 -164.5t-299 -61.5z" />
    <glyph glyph-name="uni278D" unicode="&#x34;&#x20dd;&#x25cf;" 
d="M868 1118q-244 -380 -314 -503v-117h383v-145h145v145h100v120h-100v500h-214zM937 618h-241v1q77 134 241 380v-381zM900 -50q-156 0 -299 61.5t-246 164.5t-164.5 246t-61.5 299t61.5 299t164.5 246t246 164.5t299 61.5t299 -61.5t246 -164.5t164.5 -246t61.5 -299
t-61.5 -299t-164.5 -246t-246 -164.5t-299 -61.5z" />
    <glyph glyph-name="uni278E" unicode="&#x35;&#x20dd;&#x25cf;" 
d="M619 552q5 -93 81.5 -153t197.5 -60q133 0 216 75t83 197q0 114 -75 181.5t-184 67.5q-57 0 -98.5 -19.5t-61.5 -43.5l17 201h359v120h-483l-35 -448h131q16 29 51 51.5t84 22.5q61 0 103.5 -38t42.5 -100q0 -68 -43 -108t-101 -40q-53 0 -93.5 24.5t-49.5 69.5h-142z
M900 -50q-156 0 -299 61.5t-246 164.5t-164.5 246t-61.5 299t61.5 299t164.5 246t246 164.5t299 61.5t299 -61.5t246 -164.5t164.5 -246t61.5 -299t-61.5 -299t-164.5 -246t-246 -164.5t-299 -61.5z" />
    <glyph glyph-name="uni278F" unicode="&#x36;&#x20dd;&#x25cf;" 
d="M933 341q136 0 223.5 75t87.5 192q0 109 -77.5 179.5t-196.5 70.5q-73 0 -129.5 -29t-85.5 -82h-10q1 128 51.5 197t142.5 69q54 0 91.5 -23t48.5 -64h153q-15 94 -95.5 151.5t-200.5 57.5q-157 0 -247.5 -108t-90.5 -296q0 -190 92 -290t243 -100zM932 462
q-69 0 -115 41.5t-46 103.5q0 60 45 99.5t116 39.5t116 -39.5t45 -101.5q0 -61 -46.5 -102t-114.5 -41zM900 -50q-156 0 -299 61.5t-246 164.5t-164.5 246t-61.5 299t61.5 299t164.5 246t246 164.5t299 61.5t299 -61.5t246 -164.5t164.5 -246t61.5 -299t-61.5 -299
t-164.5 -246t-246 -164.5t-299 -61.5z" />
    <glyph glyph-name="uni2790" unicode="&#x37;&#x20dd;&#x25cf;" 
d="M641 1108v-123h392v-1l-332 -641h159l325 645v120h-544zM900 -50q-156 0 -299 61.5t-246 164.5t-164.5 246t-61.5 299t61.5 299t164.5 246t246 164.5t299 61.5t299 -61.5t246 -164.5t164.5 -246t61.5 -299t-61.5 -299t-164.5 -246t-246 -164.5t-299 -61.5z" />
    <glyph glyph-name="uni2791" unicode="&#x38;&#x20dd;&#x25cf;" 
d="M896 805q-56 0 -90.5 30t-34.5 78t34.5 78t90.5 30t90.5 -30t34.5 -78t-34.5 -78t-90.5 -30zM896 449q-67 0 -110.5 35.5t-43.5 88.5q0 54 43.5 89.5t110.5 35.5t110.5 -35.5t43.5 -89.5q0 -53 -43.5 -88.5t-110.5 -35.5zM896 338q136 0 220 62.5t84 164.5
q0 70 -44 121.5t-119 67.5q62 21 96.5 66.5t34.5 107.5q0 91 -75.5 148t-196.5 57t-196.5 -57t-75.5 -148q0 -62 34.5 -107.5t96.5 -66.5q-75 -16 -119 -67.5t-44 -121.5q0 -102 84 -164.5t220 -62.5zM900 -50q-156 0 -299 61.5t-246 164.5t-164.5 246t-61.5 299t61.5 299
t164.5 246t246 164.5t299 61.5t299 -61.5t246 -164.5t164.5 -246t61.5 -299t-61.5 -299t-164.5 -246t-246 -164.5t-299 -61.5z" />
    <glyph glyph-name="uni2792" unicode="&#x39;&#x20dd;&#x25cf;" 
d="M905 341q159 0 249 107t90 297q0 183 -91 286.5t-244 103.5q-136 0 -223.5 -75t-87.5 -192q0 -109 77 -179.5t196 -70.5q74 0 130 29t85 82h10q-1 -126 -50.5 -196t-139.5 -70q-53 0 -91.5 23t-51.5 63h-154q18 -94 99.5 -151t196.5 -57zM909 732q-71 0 -115.5 39
t-44.5 101q0 60 46 100.5t115 40.5t115 -41t46 -102q0 -60 -45.5 -99t-116.5 -39zM900 -50q-156 0 -299 61.5t-246 164.5t-164.5 246t-61.5 299t61.5 299t164.5 246t246 164.5t299 61.5t299 -61.5t246 -164.5t164.5 -246t61.5 -299t-61.5 -299t-164.5 -246t-246 -164.5
t-299 -61.5z" />
    <glyph glyph-name="uni1F130" unicode="A&#x20de;" 
d="M800 668h200l-95 287h-10zM710 388h-132l248 693h148l248 -693h-132l-62 186h-256zM416 1464h968q107 0 182.5 -74.5t75.5 -179.5v-976q0 -105 -75.5 -179.5t-182.5 -74.5h-968q-107 0 -182.5 74.5t-75.5 179.5v976q0 105 75.5 179.5t182.5 74.5zM1513 1208
q0 56 -42.5 97t-100.5 41h-940q-58 0 -100.5 -40.5t-42.5 -97.5v-972q0 -56 42.5 -97t100.5 -41h940q58 0 100.5 41t42.5 97v972z" />
    <glyph glyph-name="uni1F131" unicode="B&#x20de;" 
d="M663 388v693h294q97 0 154 -46t57 -125q0 -60 -33 -99t-89 -53v-5q71 -8 116 -52t45 -118q0 -91 -69.5 -143t-183.5 -52h-291zM792 984v-194h98q150 0 150 99q0 44 -29.5 69.5t-81.5 25.5h-137zM792 700v-215h111q90 0 130.5 25.5t40.5 78.5q0 52 -35.5 81.5t-100.5 29.5
h-146zM416 1464h968q107 0 182.5 -74.5t75.5 -179.5v-976q0 -105 -75.5 -179.5t-182.5 -74.5h-968q-107 0 -182.5 74.5t-75.5 179.5v976q0 105 75.5 179.5t182.5 74.5zM1513 1208q0 56 -42.5 97t-100.5 41h-940q-58 0 -100.5 -40.5t-42.5 -97.5v-972q0 -56 42.5 -97
t100.5 -41h940q58 0 100.5 41t42.5 97v972z" />
    <glyph glyph-name="uni1F132" unicode="C&#x20de;" 
d="M1068 606h132q-16 -105 -98 -168t-204 -63q-145 0 -234.5 99t-89.5 260t89.5 260.5t234.5 99.5q125 0 207.5 -65.5t96.5 -174.5h-130q-8 59 -56.5 97t-115.5 38q-88 0 -141 -70t-53 -185t53 -184.5t141 -69.5q65 0 112.5 35.5t55.5 90.5zM416 1464h968q107 0 182.5 -74.5
t75.5 -179.5v-976q0 -105 -75.5 -179.5t-182.5 -74.5h-968q-107 0 -182.5 74.5t-75.5 179.5v976q0 105 75.5 179.5t182.5 74.5zM1513 1208q0 56 -42.5 97t-100.5 41h-940q-58 0 -100.5 -40.5t-42.5 -97.5v-972q0 -56 42.5 -97t100.5 -41h940q58 0 100.5 41t42.5 97v972z" />
    <glyph glyph-name="uni1F133" unicode="D&#x20de;" 
d="M633 1081h256q161 0 242 -88.5t81 -256.5t-81 -258t-242 -90h-256v693zM763 978v-487h110q205 0 205 243q0 244 -205 244h-110zM416 1464h968q107 0 182.5 -74.5t75.5 -179.5v-976q0 -105 -75.5 -179.5t-182.5 -74.5h-968q-107 0 -182.5 74.5t-75.5 179.5v976
q0 105 75.5 179.5t182.5 74.5zM1513 1208q0 56 -42.5 97t-100.5 41h-940q-58 0 -100.5 -40.5t-42.5 -97.5v-972q0 -56 42.5 -97t100.5 -41h940q58 0 100.5 41t42.5 97v972z" />
    <glyph glyph-name="uni1F134" unicode="E&#x20de;" 
d="M1135 491v-103h-459v693h459v-103h-330v-190h311v-98h-311v-199h330zM416 1464h968q107 0 182.5 -74.5t75.5 -179.5v-976q0 -105 -75.5 -179.5t-182.5 -74.5h-968q-107 0 -182.5 74.5t-75.5 179.5v976q0 105 75.5 179.5t182.5 74.5zM1513 1208q0 56 -42.5 97t-100.5 41
h-940q-58 0 -100.5 -40.5t-42.5 -97.5v-972q0 -56 42.5 -97t100.5 -41h940q58 0 100.5 41t42.5 97v972z" />
    <glyph glyph-name="uni1F135" unicode="F&#x20de;" 
d="M838 388h-131v693h454v-104h-323v-205h295v-102h-295v-282zM416 1464h968q107 0 182.5 -74.5t75.5 -179.5v-976q0 -105 -75.5 -179.5t-182.5 -74.5h-968q-107 0 -182.5 74.5t-75.5 179.5v976q0 105 75.5 179.5t182.5 74.5zM1513 1208q0 56 -42.5 97t-100.5 41h-940
q-58 0 -100.5 -40.5t-42.5 -97.5v-972q0 -56 42.5 -97t100.5 -41h940q58 0 100.5 41t42.5 97v972z" />
    <glyph glyph-name="uni1F136" unicode="G&#x20de;" 
d="M1071 604v57h-160v95h284v-122q0 -117 -76.5 -188t-218.5 -71q-146 0 -236 99.5t-90 259.5q0 161 90.5 260.5t235.5 99.5q122 0 204.5 -63.5t95.5 -166.5h-130q-8 54 -56 89.5t-112 35.5q-89 0 -142.5 -69.5t-53.5 -185.5t53.5 -185t142.5 -69q81 0 125 34t44 90z
M416 1464h968q107 0 182.5 -74.5t75.5 -179.5v-976q0 -105 -75.5 -179.5t-182.5 -74.5h-968q-107 0 -182.5 74.5t-75.5 179.5v976q0 105 75.5 179.5t182.5 74.5zM1513 1208q0 56 -42.5 97t-100.5 41h-940q-58 0 -100.5 -40.5t-42.5 -97.5v-972q0 -56 42.5 -97t100.5 -41h940
q58 0 100.5 41t42.5 97v972z" />
    <glyph glyph-name="uni1F137" unicode="H&#x20de;" 
d="M1191 388h-130v304h-321v-304h-130v693h130v-286h321v286h130v-693zM416 1464h968q107 0 182.5 -74.5t75.5 -179.5v-976q0 -105 -75.5 -179.5t-182.5 -74.5h-968q-107 0 -182.5 74.5t-75.5 179.5v976q0 105 75.5 179.5t182.5 74.5zM1513 1208q0 56 -42.5 97t-100.5 41
h-940q-58 0 -100.5 -40.5t-42.5 -97.5v-972q0 -56 42.5 -97t100.5 -41h940q58 0 100.5 41t42.5 97v972z" />
    <glyph glyph-name="uni1F138" unicode="I&#x20de;" 
d="M966 388h-132v693h132v-693zM416 1464h968q107 0 182.5 -74.5t75.5 -179.5v-976q0 -105 -75.5 -179.5t-182.5 -74.5h-968q-107 0 -182.5 74.5t-75.5 179.5v976q0 105 75.5 179.5t182.5 74.5zM1513 1208q0 56 -42.5 97t-100.5 41h-940q-58 0 -100.5 -40.5t-42.5 -97.5
v-972q0 -56 42.5 -97t100.5 -41h940q58 0 100.5 41t42.5 97v972z" />
    <glyph glyph-name="uni1F139" unicode="J&#x20de;" 
d="M636 576h126q1 -41 28.5 -66t71.5 -25q53 0 80 30t27 85v481h130v-477q0 -110 -62.5 -169.5t-173.5 -59.5q-107 0 -167 57t-60 144zM416 1464h968q107 0 182.5 -74.5t75.5 -179.5v-976q0 -105 -75.5 -179.5t-182.5 -74.5h-968q-107 0 -182.5 74.5t-75.5 179.5v976
q0 105 75.5 179.5t182.5 74.5zM1513 1208q0 56 -42.5 97t-100.5 41h-940q-58 0 -100.5 -40.5t-42.5 -97.5v-972q0 -56 42.5 -97t100.5 -41h940q58 0 100.5 41t42.5 97v972z" />
    <glyph glyph-name="uni1F13A" unicode="&#x212a;&#x20de;" 
d="M1215 1081l-263 -297l274 -396h-158l-212 312l-78 -84v-228h-130v693h130v-317h5l287 317h145zM416 1464h968q107 0 182.5 -74.5t75.5 -179.5v-976q0 -105 -75.5 -179.5t-182.5 -74.5h-968q-107 0 -182.5 74.5t-75.5 179.5v976q0 105 75.5 179.5t182.5 74.5zM1513 1208
q0 56 -42.5 97t-100.5 41h-940q-58 0 -100.5 -40.5t-42.5 -97.5v-972q0 -56 42.5 -97t100.5 -41h940q58 0 100.5 41t42.5 97v972z" />
    <glyph glyph-name="uni1F13B" unicode="L&#x20de;" 
d="M1178 495v-107h-446v693h131v-586h315zM416 1464h968q107 0 182.5 -74.5t75.5 -179.5v-976q0 -105 -75.5 -179.5t-182.5 -74.5h-968q-107 0 -182.5 74.5t-75.5 179.5v976q0 105 75.5 179.5t182.5 74.5zM1513 1208q0 56 -42.5 97t-100.5 41h-940q-58 0 -100.5 -40.5
t-42.5 -97.5v-972q0 -56 42.5 -97t100.5 -41h940q58 0 100.5 41t42.5 97v972z" />
    <glyph glyph-name="uni1F13C" unicode="M&#x20de;" 
d="M668 388h-117v693h132l216 -533h4l216 533h130v-693h-117v473h-6l-180 -453h-91l-181 453h-6v-473zM416 1464h968q107 0 182.5 -74.5t75.5 -179.5v-976q0 -105 -75.5 -179.5t-182.5 -74.5h-968q-107 0 -182.5 74.5t-75.5 179.5v976q0 105 75.5 179.5t182.5 74.5z
M1513 1208q0 56 -42.5 97t-100.5 41h-940q-58 0 -100.5 -40.5t-42.5 -97.5v-972q0 -56 42.5 -97t100.5 -41h940q58 0 100.5 41t42.5 97v972z" />
    <glyph glyph-name="uni1F13D" unicode="N&#x20de;" 
d="M738 388h-124v693h111l331 -482h6v482h124v-693h-111l-332 484h-5v-484zM416 1464h968q107 0 182.5 -74.5t75.5 -179.5v-976q0 -105 -75.5 -179.5t-182.5 -74.5h-968q-107 0 -182.5 74.5t-75.5 179.5v976q0 105 75.5 179.5t182.5 74.5zM1513 1208q0 56 -42.5 97
t-100.5 41h-940q-58 0 -100.5 -40.5t-42.5 -97.5v-972q0 -56 42.5 -97t100.5 -41h940q58 0 100.5 41t42.5 97v972z" />
    <glyph glyph-name="uni1F13E" unicode="O&#x20de;" 
d="M900 480q84 0 139 67.5t55 186.5q0 120 -55 187.5t-139 67.5t-139 -67.5t-55 -187.5q0 -119 55 -186.5t139 -67.5zM900 375q-140 0 -233 96.5t-93 262.5q0 167 93 263.5t233 96.5t233 -96.5t93 -263.5q0 -166 -93 -262.5t-233 -96.5zM416 1464h968q107 0 182.5 -74.5
t75.5 -179.5v-976q0 -105 -75.5 -179.5t-182.5 -74.5h-968q-107 0 -182.5 74.5t-75.5 179.5v976q0 105 75.5 179.5t182.5 74.5zM1513 1208q0 56 -42.5 97t-100.5 41h-940q-58 0 -100.5 -40.5t-42.5 -97.5v-972q0 -56 42.5 -97t100.5 -41h940q58 0 100.5 41t42.5 97v972z" />
    <glyph glyph-name="uni1F13F" unicode="P&#x20de;" 
d="M962 1081q112 0 177 -64t65 -163q0 -100 -65 -162.5t-178 -62.5h-153v-241h-129v693h283zM1071 854q0 60 -34.5 93t-96.5 33h-132v-251h132q62 0 96.5 32.5t34.5 92.5zM416 1464h968q107 0 182.5 -74.5t75.5 -179.5v-976q0 -105 -75.5 -179.5t-182.5 -74.5h-968
q-107 0 -182.5 74.5t-75.5 179.5v976q0 105 75.5 179.5t182.5 74.5zM1513 1208q0 56 -42.5 97t-100.5 41h-940q-58 0 -100.5 -40.5t-42.5 -97.5v-972q0 -56 42.5 -97t100.5 -41h940q58 0 100.5 41t42.5 97v972z" />
    <glyph glyph-name="uni1F140" unicode="Q&#x20de;" 
d="M1200 319h-128l-56 76q-55 -20 -116 -20q-140 0 -233 96.5t-93 262.5q0 167 93 263.5t233 96.5t233 -96.5t93 -263.5q0 -188 -120 -288zM900 480q28 0 49 7l-84 115h126l44 -60q59 70 59 192q0 120 -55 187.5t-139 67.5t-139 -67.5t-55 -187.5q0 -119 55 -186.5
t139 -67.5zM416 1464h968q107 0 182.5 -74.5t75.5 -179.5v-976q0 -105 -75.5 -179.5t-182.5 -74.5h-968q-107 0 -182.5 74.5t-75.5 179.5v976q0 105 75.5 179.5t182.5 74.5zM1513 1208q0 56 -42.5 97t-100.5 41h-940q-58 0 -100.5 -40.5t-42.5 -97.5v-972q0 -56 42.5 -97
t100.5 -41h940q58 0 100.5 41t42.5 97v972z" />
    <glyph glyph-name="uni1F141" unicode="R&#x20de;" 
d="M934 1081q116 0 182.5 -58.5t66.5 -157.5q0 -71 -38 -122t-95 -72l146 -283h-146l-128 263h-142v-263h-128v693h282zM780 747h132q65 0 101 29t36 85q0 57 -36 88.5t-97 31.5h-136v-234zM416 1464h968q107 0 182.5 -74.5t75.5 -179.5v-976q0 -105 -75.5 -179.5
t-182.5 -74.5h-968q-107 0 -182.5 74.5t-75.5 179.5v976q0 105 75.5 179.5t182.5 74.5zM1513 1208q0 56 -42.5 97t-100.5 41h-940q-58 0 -100.5 -40.5t-42.5 -97.5v-972q0 -56 42.5 -97t100.5 -41h940q58 0 100.5 41t42.5 97v972z" />
    <glyph glyph-name="uni1F142" unicode="S&#x20de;" 
d="M620 582h127q5 -48 48 -77.5t110 -29.5t106.5 28t39.5 75q0 36 -27 58.5t-88 37.5l-117 26q-180 42 -180 189q0 92 73.5 149t192.5 57q116 0 190 -56t75 -147h-124q-4 47 -42.5 75.5t-99.5 28.5q-60 0 -97 -28t-37 -72q0 -65 100 -87l117 -26q99 -23 146 -70t47 -124
q0 -99 -76 -156.5t-207 -57.5q-125 0 -200 56t-77 151zM416 1464h968q107 0 182.5 -74.5t75.5 -179.5v-976q0 -105 -75.5 -179.5t-182.5 -74.5h-968q-107 0 -182.5 74.5t-75.5 179.5v976q0 105 75.5 179.5t182.5 74.5zM1513 1208q0 56 -42.5 97t-100.5 41h-940
q-58 0 -100.5 -40.5t-42.5 -97.5v-972q0 -56 42.5 -97t100.5 -41h940q58 0 100.5 41t42.5 97v972z" />
    <glyph glyph-name="uni1F143" unicode="T&#x20de;" 
d="M966 388h-132v588h-210v105h552v-105h-210v-588zM416 1464h968q107 0 182.5 -74.5t75.5 -179.5v-976q0 -105 -75.5 -179.5t-182.5 -74.5h-968q-107 0 -182.5 74.5t-75.5 179.5v976q0 105 75.5 179.5t182.5 74.5zM1513 1208q0 56 -42.5 97t-100.5 41h-940
q-58 0 -100.5 -40.5t-42.5 -97.5v-972q0 -56 42.5 -97t100.5 -41h940q58 0 100.5 41t42.5 97v972z" />
    <glyph glyph-name="uni1F144" unicode="U&#x20de;" 
d="M900 482q72 0 115 41t43 115v443h130v-454q0 -114 -78.5 -183t-209.5 -69t-209.5 69t-78.5 183v454h130v-443q0 -74 43 -115t115 -41zM416 1464h968q107 0 182.5 -74.5t75.5 -179.5v-976q0 -105 -75.5 -179.5t-182.5 -74.5h-968q-107 0 -182.5 74.5t-75.5 179.5v976
q0 105 75.5 179.5t182.5 74.5zM1513 1208q0 56 -42.5 97t-100.5 41h-940q-58 0 -100.5 -40.5t-42.5 -97.5v-972q0 -56 42.5 -97t100.5 -41h940q58 0 100.5 41t42.5 97v972z" />
    <glyph glyph-name="uni1F145" unicode="V&#x20de;" 
d="M822 388l-250 693h151l174 -555h6l174 555h151l-250 -693h-156zM416 1464h968q107 0 182.5 -74.5t75.5 -179.5v-976q0 -105 -75.5 -179.5t-182.5 -74.5h-968q-107 0 -182.5 74.5t-75.5 179.5v976q0 105 75.5 179.5t182.5 74.5zM1513 1208q0 56 -42.5 97t-100.5 41h-940
q-58 0 -100.5 -40.5t-42.5 -97.5v-972q0 -56 42.5 -97t100.5 -41h940q58 0 100.5 41t42.5 97v972z" />
    <glyph glyph-name="uni1F146" unicode="W&#x20de;" 
d="M898 889l-140 -501h-119l-195 693h143l117 -518h6l133 518h114l133 -518h6l117 518h143l-195 -693h-119l-140 501h-4zM416 1464h968q107 0 182.5 -74.5t75.5 -179.5v-976q0 -105 -75.5 -179.5t-182.5 -74.5h-968q-107 0 -182.5 74.5t-75.5 179.5v976q0 105 75.5 179.5
t182.5 74.5zM1513 1208q0 56 -42.5 97t-100.5 41h-940q-58 0 -100.5 -40.5t-42.5 -97.5v-972q0 -56 42.5 -97t100.5 -41h940q58 0 100.5 41t42.5 97v972z" />
    <glyph glyph-name="uni1F147" unicode="X&#x20de;" 
d="M1214 1081l-233 -348l230 -345h-152l-161 253h-6l-163 -253h-143l229 349l-227 344h155l159 -256h6l158 256h148zM416 1464h968q107 0 182.5 -74.5t75.5 -179.5v-976q0 -105 -75.5 -179.5t-182.5 -74.5h-968q-107 0 -182.5 74.5t-75.5 179.5v976q0 105 75.5 179.5
t182.5 74.5zM1513 1208q0 56 -42.5 97t-100.5 41h-940q-58 0 -100.5 -40.5t-42.5 -97.5v-972q0 -56 42.5 -97t100.5 -41h940q58 0 100.5 41t42.5 97v972z" />
    <glyph glyph-name="uni1F148" unicode="Y&#x20de;" 
d="M966 388h-131v273l-243 420h145l162 -297h5l162 297h142l-242 -418v-275zM416 1464h968q107 0 182.5 -74.5t75.5 -179.5v-976q0 -105 -75.5 -179.5t-182.5 -74.5h-968q-107 0 -182.5 74.5t-75.5 179.5v976q0 105 75.5 179.5t182.5 74.5zM1513 1208q0 56 -42.5 97
t-100.5 41h-940q-58 0 -100.5 -40.5t-42.5 -97.5v-972q0 -56 42.5 -97t100.5 -41h940q58 0 100.5 41t42.5 97v972z" />
    <glyph glyph-name="uni1F149" unicode="Z&#x20de;" 
d="M635 388v83l361 499v7h-350v104h509v-83l-360 -499v-7h370v-104h-530zM416 1464h968q107 0 182.5 -74.5t75.5 -179.5v-976q0 -105 -75.5 -179.5t-182.5 -74.5h-968q-107 0 -182.5 74.5t-75.5 179.5v976q0 105 75.5 179.5t182.5 74.5zM1513 1208q0 56 -42.5 97t-100.5 41
h-940q-58 0 -100.5 -40.5t-42.5 -97.5v-972q0 -56 42.5 -97t100.5 -41h940q58 0 100.5 41t42.5 97v972z" />
    <glyph glyph-name="uni1F150" unicode="A&#x20dd;&#x25cf;" 
d="M1001 690h-202l99 297h4zM698 374l67 202h270l67 -202h156l-273 766h-170l-273 -766h156zM900 -50q-156 0 -299 61.5t-246 164.5t-164.5 246t-61.5 299t61.5 299t164.5 246t246 164.5t299 61.5t299 -61.5t246 -164.5t164.5 -246t61.5 -299t-61.5 -299t-164.5 -246
t-246 -164.5t-299 -61.5z" />
    <glyph glyph-name="uni1F151" unicode="B&#x20dd;&#x25cf;" 
d="M629 354h323q130 0 206.5 59t76.5 159q0 76 -45 126.5t-124 62.5q60 18 93 62t33 106q0 88 -64 139.5t-173 51.5h-326v-766zM780 1005h145q54 0 85 -26.5t31 -72.5q0 -104 -158 -104h-103v203zM780 694h155q68 0 105.5 -30.5t37.5 -86.5t-43.5 -82t-137.5 -26h-117v225z
M900 -50q-156 0 -299 61.5t-246 164.5t-164.5 246t-61.5 299t61.5 299t164.5 246t246 164.5t299 61.5t299 -61.5t246 -164.5t164.5 -246t61.5 -299t-61.5 -299t-164.5 -246t-246 -164.5t-299 -61.5z" />
    <glyph glyph-name="uni1F152" unicode="C&#x20dd;&#x25cf;" 
d="M1075 593q-9 -51 -58.5 -86.5t-115.5 -35.5q-91 0 -146.5 72t-55.5 191t55.5 191.5t146.5 72.5q68 0 118.5 -38.5t59.5 -93.5h155q-15 120 -105.5 192.5t-229.5 72.5q-160 0 -258.5 -110t-98.5 -287t98.5 -286.5t258.5 -109.5q134 0 224.5 70t108.5 185h-157zM900 -50
q-156 0 -299 61.5t-246 164.5t-164.5 246t-61.5 299t61.5 299t164.5 246t246 164.5t299 61.5t299 -61.5t246 -164.5t164.5 -246t61.5 -299t-61.5 -299t-164.5 -246t-246 -164.5t-299 -61.5z" />
    <glyph glyph-name="uni1F153" unicode="D&#x20dd;&#x25cf;" 
d="M621 1120v-766h285q175 0 266 98t91 286t-90.5 285t-266.5 97h-285zM773 997h115q111 0 165 -64.5t54 -196.5t-54 -195.5t-165 -63.5h-115v520zM900 -50q-156 0 -299 61.5t-246 164.5t-164.5 246t-61.5 299t61.5 299t164.5 246t246 164.5t299 61.5t299 -61.5t246 -164.5
t164.5 -246t61.5 -299t-61.5 -299t-164.5 -246t-246 -164.5t-299 -61.5z" />
    <glyph glyph-name="uni1F154" unicode="E&#x20dd;&#x25cf;" 
d="M1159 477h-361v206h339v117h-339v197h361v123h-514v-766h514v123zM900 -50q-156 0 -299 61.5t-246 164.5t-164.5 246t-61.5 299t61.5 299t164.5 246t246 164.5t299 61.5t299 -61.5t246 -164.5t164.5 -246t61.5 -299t-61.5 -299t-164.5 -246t-246 -164.5t-299 -61.5z" />
    <glyph glyph-name="uni1F155" unicode="F&#x20dd;&#x25cf;" 
d="M830 354v307h324v123h-324v212h353v124h-505v-766h152zM900 -50q-156 0 -299 61.5t-246 164.5t-164.5 246t-61.5 299t61.5 299t164.5 246t246 164.5t299 61.5t299 -61.5t246 -164.5t164.5 -246t61.5 -299t-61.5 -299t-164.5 -246t-246 -164.5t-299 -61.5z" />
    <glyph glyph-name="uni1F156" unicode="G&#x20dd;&#x25cf;" 
d="M1077 620q0 -60 -46 -101t-128 -41q-93 0 -148 68.5t-55 187.5q0 120 55 188.5t148 68.5q72 0 119.5 -30t53.5 -74h157q-16 108 -107 175.5t-224 67.5q-161 0 -261 -109.5t-100 -286.5t99 -286t260 -109q148 0 237 86t89 215v134h-312v-127h163v-27zM900 -50
q-156 0 -299 61.5t-246 164.5t-164.5 246t-61.5 299t61.5 299t164.5 246t246 164.5t299 61.5t299 -61.5t246 -164.5t164.5 -246t61.5 -299t-61.5 -299t-164.5 -246t-246 -164.5t-299 -61.5z" />
    <glyph glyph-name="uni1F157" unicode="H&#x20dd;&#x25cf;" 
d="M1222 354v766h-151v-312h-341v312h-152v-766h152v330h341v-330h151zM900 -50q-156 0 -299 61.5t-246 164.5t-164.5 246t-61.5 299t61.5 299t164.5 246t246 164.5t299 61.5t299 -61.5t246 -164.5t164.5 -246t61.5 -299t-61.5 -299t-164.5 -246t-246 -164.5t-299 -61.5z
" />
    <glyph glyph-name="uni1F158" unicode="I&#x20dd;&#x25cf;" 
d="M976 354v766h-152v-766h152zM900 -50q-156 0 -299 61.5t-246 164.5t-164.5 246t-61.5 299t61.5 299t164.5 246t246 164.5t299 61.5t299 -61.5t246 -164.5t164.5 -246t61.5 -299t-61.5 -299t-164.5 -246t-246 -164.5t-299 -61.5z" />
    <glyph glyph-name="uni1F159" unicode="J&#x20dd;&#x25cf;" 
d="M606 570q0 -104 69.5 -167t184.5 -63q125 0 194 67t69 188v525h-153v-530q0 -119 -112 -119q-46 0 -74 27.5t-29 71.5h-149zM900 -50q-156 0 -299 61.5t-246 164.5t-164.5 246t-61.5 299t61.5 299t164.5 246t246 164.5t299 61.5t299 -61.5t246 -164.5t164.5 -246
t61.5 -299t-61.5 -299t-164.5 -246t-246 -164.5t-299 -61.5z" />
    <glyph glyph-name="uni1F15A" unicode="&#x212a;&#x20dd;&#x25cf;" 
d="M1248 1120h-172l-311 -343v343h-152v-766h152v252l79 85l230 -337h185l-304 436zM900 -50q-156 0 -299 61.5t-246 164.5t-164.5 246t-61.5 299t61.5 299t164.5 246t246 164.5t299 61.5t299 -61.5t246 -164.5t164.5 -246t61.5 -299t-61.5 -299t-164.5 -246t-246 -164.5
t-299 -61.5z" />
    <glyph glyph-name="uni1F15B" unicode="L&#x20dd;&#x25cf;" 
d="M1190 481h-344v639h-153v-766h497v127zM900 -50q-156 0 -299 61.5t-246 164.5t-164.5 246t-61.5 299t61.5 299t164.5 246t246 164.5t299 61.5t299 -61.5t246 -164.5t164.5 -246t61.5 -299t-61.5 -299t-164.5 -246t-246 -164.5t-299 -61.5z" />
    <glyph glyph-name="uni1F15C" unicode="M&#x20dd;&#x25cf;" 
d="M651 354v521l196 -495h106l195 491v-517h139v766h-152l-236 -582l-233 582h-153v-766h138zM900 -50q-156 0 -299 61.5t-246 164.5t-164.5 246t-61.5 299t61.5 299t164.5 246t246 164.5t299 61.5t299 -61.5t246 -164.5t164.5 -246t61.5 -299t-61.5 -299t-164.5 -246
t-246 -164.5t-299 -61.5z" />
    <glyph glyph-name="uni1F15D" unicode="N&#x20dd;&#x25cf;" 
d="M728 354v523l359 -523h131v766h-146v-524l-361 524h-129v-766h146zM900 -50q-156 0 -299 61.5t-246 164.5t-164.5 246t-61.5 299t61.5 299t164.5 246t246 164.5t299 61.5t299 -61.5t246 -164.5t164.5 -246t61.5 -299t-61.5 -299t-164.5 -246t-246 -164.5t-299 -61.5z" />
    <glyph glyph-name="uni1F15E" unicode="O&#x20dd;&#x25cf;" 
d="M900 465q-89 0 -147.5 71.5t-58.5 197.5q0 127 58.5 198.5t147.5 71.5t147.5 -71.5t58.5 -198.5q0 -126 -58.5 -197.5t-147.5 -71.5zM900 338q155 0 257.5 106t102.5 290q0 185 -102.5 291t-257.5 106t-257.5 -106t-102.5 -291q0 -184 102.5 -290t257.5 -106zM900 -50
q-156 0 -299 61.5t-246 164.5t-164.5 246t-61.5 299t61.5 299t164.5 246t246 164.5t299 61.5t299 -61.5t246 -164.5t164.5 -246t61.5 -299t-61.5 -299t-164.5 -246t-246 -164.5t-299 -61.5z" />
    <glyph glyph-name="uni1F15F" unicode="P&#x20dd;&#x25cf;" 
d="M960 1120h-314v-766h152v263h161q122 0 197 68.5t75 181.5t-75 183t-196 70zM1075 867q0 -62 -36.5 -97t-101.5 -35h-139v264h139q66 0 102 -35t36 -97zM900 -50q-156 0 -299 61.5t-246 164.5t-164.5 246t-61.5 299t61.5 299t164.5 246t246 164.5t299 61.5t299 -61.5
t246 -164.5t164.5 -246t61.5 -299t-61.5 -299t-164.5 -246t-246 -164.5t-299 -61.5z" />
    <glyph glyph-name="uni1F160" unicode="Q&#x20dd;&#x25cf;" 
d="M1240 280l-106 142q126 110 126 312q0 185 -102.5 291t-257.5 106t-257.5 -106t-102.5 -291q0 -184 102.5 -290t257.5 -106q66 0 125 21l57 -79h158zM900 465q-89 0 -147.5 71.5t-58.5 197.5q0 127 58.5 198.5t147.5 71.5t147.5 -71.5t58.5 -198.5q0 -124 -58 -196
l-46 62h-152l94 -130q-23 -5 -44 -5zM900 -50q-156 0 -299 61.5t-246 164.5t-164.5 246t-61.5 299t61.5 299t164.5 246t246 164.5t299 61.5t299 -61.5t246 -164.5t164.5 -246t61.5 -299t-61.5 -299t-164.5 -246t-246 -164.5t-299 -61.5z" />
    <glyph glyph-name="uni1F161" unicode="R&#x20dd;&#x25cf;" 
d="M768 755v245h143q66 0 103.5 -33t37.5 -92q0 -57 -37.5 -88.5t-106.5 -31.5h-140zM931 1120h-313v-766h150v287h147l139 -287h173l-161 310q65 24 103.5 82t38.5 133q0 112 -74.5 176.5t-202.5 64.5zM900 -50q-156 0 -299 61.5t-246 164.5t-164.5 246t-61.5 299t61.5 299
t164.5 246t246 164.5t299 61.5t299 -61.5t246 -164.5t164.5 -246t61.5 -299t-61.5 -299t-164.5 -246t-246 -164.5t-299 -61.5z" />
    <glyph glyph-name="uni1F162" unicode="S&#x20dd;&#x25cf;" 
d="M589 576q3 -109 86 -173t222 -64q145 0 229.5 64t84.5 174q0 87 -52.5 139.5t-163.5 78.5l-127 28q-105 23 -105 90q0 47 38.5 75.5t102.5 28.5t105 -31t46 -82h145q-1 103 -83 167.5t-212 64.5q-131 0 -213 -64t-82 -167q0 -81 51.5 -135t148.5 -76l127 -30
q64 -14 93 -37t29 -61q0 -50 -41.5 -78.5t-112.5 -28.5t-116.5 32t-49.5 85h-150zM900 -50q-156 0 -299 61.5t-246 164.5t-164.5 246t-61.5 299t61.5 299t164.5 246t246 164.5t299 61.5t299 -61.5t246 -164.5t164.5 -246t61.5 -299t-61.5 -299t-164.5 -246t-246 -164.5
t-299 -61.5z" />
    <glyph glyph-name="uni1F163" unicode="T&#x20dd;&#x25cf;" 
d="M976 334v641h229v125h-610v-125h229v-641h152zM900 -50q-156 0 -299 61.5t-246 164.5t-164.5 246t-61.5 299t61.5 299t164.5 246t246 164.5t299 61.5t299 -61.5t246 -164.5t164.5 -246t61.5 -299t-61.5 -299t-164.5 -246t-246 -164.5t-299 -61.5z" />
    <glyph glyph-name="uni1F164" unicode="U&#x20dd;&#x25cf;" 
d="M900 448q-79 0 -123 43.5t-44 120.5v488h-153v-500q0 -127 87.5 -203.5t232.5 -76.5t232.5 77t87.5 203v500h-153v-488q0 -77 -44.5 -120.5t-122.5 -43.5zM900 -50q-156 0 -299 61.5t-246 164.5t-164.5 246t-61.5 299t61.5 299t164.5 246t246 164.5t299 61.5t299 -61.5
t246 -164.5t164.5 -246t61.5 -299t-61.5 -299t-164.5 -246t-246 -164.5t-299 -61.5z" />
    <glyph glyph-name="uni1F165" unicode="V&#x20dd;&#x25cf;" 
d="M986 334l277 766h-175l-186 -608h-4l-186 608h-175l277 -766h172zM900 -50q-156 0 -299 61.5t-246 164.5t-164.5 246t-61.5 299t61.5 299t164.5 246t246 164.5t299 61.5t299 -61.5t246 -164.5t164.5 -246t61.5 -299t-61.5 -299t-164.5 -246t-246 -164.5t-299 -61.5z" />
    <glyph glyph-name="uni1F166" unicode="W&#x20dd;&#x25cf;" 
d="M898 875h4l151 -541h139l216 766h-168l-122 -566h-4l-145 566h-138l-145 -566h-4l-122 566h-168l217 -766h138zM900 -50q-156 0 -299 61.5t-246 164.5t-164.5 246t-61.5 299t61.5 299t164.5 246t246 164.5t299 61.5t299 -61.5t246 -164.5t164.5 -246t61.5 -299
t-61.5 -299t-164.5 -246t-246 -164.5t-299 -61.5z" />
    <glyph glyph-name="uni1F167" unicode="X&#x20dd;&#x25cf;" 
d="M1252 1120h-174l-168 -279h-4l-173 279h-182l250 -380l-253 -386h170l175 275h3l175 -275h177l-254 381zM900 -50q-156 0 -299 61.5t-246 164.5t-164.5 246t-61.5 299t61.5 299t164.5 246t246 164.5t299 61.5t299 -61.5t246 -164.5t164.5 -246t61.5 -299t-61.5 -299
t-164.5 -246t-246 -164.5t-299 -61.5z" />
    <glyph glyph-name="uni1F168" unicode="Y&#x20dd;&#x25cf;" 
d="M824 349h152v302l271 464h-169l-176 -324h-4l-176 324h-169l271 -464v-302zM900 -50q-156 0 -299 61.5t-246 164.5t-164.5 246t-61.5 299t61.5 299t164.5 246t246 164.5t299 61.5t299 -61.5t246 -164.5t164.5 -246t61.5 -299t-61.5 -299t-164.5 -246t-246 -164.5
t-299 -61.5z" />
    <glyph glyph-name="uni1F169" unicode="Z&#x20dd;&#x25cf;" 
d="M605 354h590v124h-405l394 545v97h-567v-124h383v-1l-395 -544v-97zM900 -50q-156 0 -299 61.5t-246 164.5t-164.5 246t-61.5 299t61.5 299t164.5 246t246 164.5t299 61.5t299 -61.5t246 -164.5t164.5 -246t61.5 -299t-61.5 -299t-164.5 -246t-246 -164.5t-299 -61.5z
" />
    <glyph glyph-name="uni1F170" unicode="A&#x20de;&#x25a0;" 
d="M1001 670h-202l99 297h4zM698 354l67 202h270l67 -202h156l-273 766h-170l-273 -766h156zM416 1464h968q107 0 182.5 -74.5t75.5 -179.5v-976q0 -105 -75.5 -179.5t-182.5 -74.5h-968q-107 0 -182.5 74.5t-75.5 179.5v976q0 105 75.5 179.5t182.5 74.5z" />
    <glyph glyph-name="uni1F171" unicode="B&#x20de;&#x25a0;" 
d="M629 354h323q127 0 205 58t78 160q0 79 -47 128t-122 61q58 17 92 60t34 108q0 89 -64.5 140t-172.5 51h-326v-766zM780 1005h145q54 0 85 -27t31 -72q0 -104 -158 -104h-103v203zM780 694h155q69 0 106 -31t37 -86t-43 -81.5t-138 -26.5h-117v225zM416 1464h968
q107 0 182.5 -74.5t75.5 -179.5v-976q0 -105 -75.5 -179.5t-182.5 -74.5h-968q-107 0 -182.5 74.5t-75.5 179.5v976q0 105 75.5 179.5t182.5 74.5z" />
    <glyph glyph-name="uni1F172" unicode="C&#x20de;&#x25a0;" 
d="M1075 593q-9 -51 -58.5 -86.5t-115.5 -35.5q-91 0 -146.5 72t-55.5 191t55.5 191.5t146.5 72.5q68 0 118.5 -38.5t59.5 -93.5h155q-15 120 -105.5 192.5t-229.5 72.5q-160 0 -258.5 -110t-98.5 -287t98.5 -286.5t258.5 -109.5q134 0 224.5 70t108.5 185h-157zM416 1464
h968q107 0 182.5 -74.5t75.5 -179.5v-976q0 -105 -75.5 -179.5t-182.5 -74.5h-968q-107 0 -182.5 74.5t-75.5 179.5v976q0 105 75.5 179.5t182.5 74.5z" />
    <glyph glyph-name="uni1F173" unicode="D&#x20de;&#x25a0;" 
d="M598 1120v-766h285q178 0 267.5 99t89.5 285t-89.5 284t-267.5 98h-285zM750 997h115q112 0 165.5 -65t53.5 -196t-53.5 -195t-165.5 -64h-115v520zM416 1464h968q107 0 182.5 -74.5t75.5 -179.5v-976q0 -105 -75.5 -179.5t-182.5 -74.5h-968q-107 0 -182.5 74.5
t-75.5 179.5v976q0 105 75.5 179.5t182.5 74.5z" />
    <glyph glyph-name="uni1F174" unicode="E&#x20de;&#x25a0;" 
d="M1159 477h-361v206h339v117h-339v197h361v123h-514v-766h514v123zM416 1464h968q107 0 182.5 -74.5t75.5 -179.5v-976q0 -105 -75.5 -179.5t-182.5 -74.5h-968q-107 0 -182.5 74.5t-75.5 179.5v976q0 105 75.5 179.5t182.5 74.5z" />
    <glyph glyph-name="uni1F175" unicode="F&#x20de;&#x25a0;" 
d="M830 354v307h324v123h-324v212h353v124h-505v-766h152zM416 1464h968q107 0 182.5 -74.5t75.5 -179.5v-976q0 -105 -75.5 -179.5t-182.5 -74.5h-968q-107 0 -182.5 74.5t-75.5 179.5v976q0 105 75.5 179.5t182.5 74.5z" />
    <glyph glyph-name="uni1F176" unicode="G&#x20de;&#x25a0;" 
d="M1077 620q0 -60 -46 -101t-128 -41q-93 0 -148 68.5t-55 187.5q0 120 55 188.5t148 68.5q72 0 119.5 -30t53.5 -74h157q-16 108 -107 175.5t-224 67.5q-161 0 -261 -109.5t-100 -286.5t99 -286t260 -109q148 0 237 86t89 215v134h-312v-127h163v-27zM416 1464h968
q107 0 182.5 -74.5t75.5 -179.5v-976q0 -105 -75.5 -179.5t-182.5 -74.5h-968q-107 0 -182.5 74.5t-75.5 179.5v976q0 105 75.5 179.5t182.5 74.5z" />
    <glyph glyph-name="uni1F177" unicode="H&#x20de;&#x25a0;" 
d="M1222 354v766h-151v-312h-341v312h-152v-766h152v330h341v-330h151zM416 1464h968q107 0 182.5 -74.5t75.5 -179.5v-976q0 -105 -75.5 -179.5t-182.5 -74.5h-968q-107 0 -182.5 74.5t-75.5 179.5v976q0 105 75.5 179.5t182.5 74.5z" />
    <glyph glyph-name="uni1F178" unicode="I&#x20de;&#x25a0;" 
d="M976 354v766h-152v-766h152zM416 1464h968q107 0 182.5 -74.5t75.5 -179.5v-976q0 -105 -75.5 -179.5t-182.5 -74.5h-968q-107 0 -182.5 74.5t-75.5 179.5v976q0 105 75.5 179.5t182.5 74.5z" />
    <glyph glyph-name="uni1F179" unicode="J&#x20de;&#x25a0;" 
d="M606 570q0 -100 67 -165t187 -65q124 0 193.5 66t69.5 189v525h-153v-530q0 -119 -112 -119q-46 0 -74 27.5t-29 71.5h-149zM416 1464h968q107 0 182.5 -74.5t75.5 -179.5v-976q0 -105 -75.5 -179.5t-182.5 -74.5h-968q-107 0 -182.5 74.5t-75.5 179.5v976
q0 105 75.5 179.5t182.5 74.5z" />
    <glyph glyph-name="uni1F17A" unicode="&#x212a;&#x20de;&#x25a0;" 
d="M1248 1120h-172l-311 -343v343h-152v-766h152v252l79 85l230 -337h185l-304 436zM416 1464h968q107 0 182.5 -74.5t75.5 -179.5v-976q0 -105 -75.5 -179.5t-182.5 -74.5h-968q-107 0 -182.5 74.5t-75.5 179.5v976q0 105 75.5 179.5t182.5 74.5z" />
    <glyph glyph-name="uni1F17B" unicode="L&#x20de;&#x25a0;" 
d="M1200 481h-344v639h-153v-766h497v127zM416 1464h968q107 0 182.5 -74.5t75.5 -179.5v-976q0 -105 -75.5 -179.5t-182.5 -74.5h-968q-107 0 -182.5 74.5t-75.5 179.5v976q0 105 75.5 179.5t182.5 74.5z" />
    <glyph glyph-name="uni1F17C" unicode="M&#x20de;&#x25a0;" 
d="M651 354v521l196 -495h106l195 491v-517h139v766h-152l-236 -582l-233 582h-153v-766h138zM416 1464h968q107 0 182.5 -74.5t75.5 -179.5v-976q0 -105 -75.5 -179.5t-182.5 -74.5h-968q-107 0 -182.5 74.5t-75.5 179.5v976q0 105 75.5 179.5t182.5 74.5z" />
    <glyph glyph-name="uni1F17D" unicode="N&#x20de;&#x25a0;" 
d="M728 354v523l359 -523h131v766h-146v-524l-361 524h-129v-766h146zM416 1464h968q107 0 182.5 -74.5t75.5 -179.5v-976q0 -105 -75.5 -179.5t-182.5 -74.5h-968q-107 0 -182.5 74.5t-75.5 179.5v976q0 105 75.5 179.5t182.5 74.5z" />
    <glyph glyph-name="uni1F17E" unicode="O&#x20de;&#x25a0;" 
d="M900 465q-89 0 -147.5 71.5t-58.5 197.5q0 127 58.5 198.5t147.5 71.5t147.5 -71.5t58.5 -198.5q0 -126 -58.5 -197.5t-147.5 -71.5zM900 338q155 0 257.5 106t102.5 290q0 185 -102.5 291t-257.5 106t-257.5 -106t-102.5 -291q0 -184 102.5 -290t257.5 -106zM416 1464
h968q107 0 182.5 -74.5t75.5 -179.5v-976q0 -105 -75.5 -179.5t-182.5 -74.5h-968q-107 0 -182.5 74.5t-75.5 179.5v976q0 105 75.5 179.5t182.5 74.5z" />
    <glyph glyph-name="uni1F17F" unicode="P&#x20de;&#x25a0;" 
d="M960 1120h-314v-766h152v263h161q125 0 198.5 70t73.5 180q0 111 -73 182t-198 71zM1075 867q0 -62 -36.5 -97t-101.5 -35h-139v264h139q66 0 102 -34.5t36 -97.5zM416 1464h968q107 0 182.5 -74.5t75.5 -179.5v-976q0 -105 -75.5 -179.5t-182.5 -74.5h-968
q-107 0 -182.5 74.5t-75.5 179.5v976q0 105 75.5 179.5t182.5 74.5z" />
    <glyph glyph-name="uni1F180" unicode="Q&#x20de;&#x25a0;" 
d="M1240 280l-106 142q126 110 126 312q0 185 -102.5 291t-257.5 106t-257.5 -106t-102.5 -291q0 -184 102.5 -290t257.5 -106q66 0 125 21l57 -79h158zM900 465q-89 0 -147.5 71.5t-58.5 197.5q0 127 58.5 198.5t147.5 71.5t147.5 -71.5t58.5 -198.5q0 -124 -58 -196
l-46 62h-152l94 -130q-23 -5 -44 -5zM416 1464h968q107 0 182.5 -74.5t75.5 -179.5v-976q0 -105 -75.5 -179.5t-182.5 -74.5h-968q-107 0 -182.5 74.5t-75.5 179.5v976q0 105 75.5 179.5t182.5 74.5z" />
    <glyph glyph-name="uni1F181" unicode="R&#x20de;&#x25a0;" 
d="M768 755v245h143q65 0 103 -32.5t38 -92.5q0 -58 -38 -89t-106 -31h-140zM931 1120h-313v-766h150v287h147l139 -287h173l-161 310q62 23 102 79.5t40 135.5q0 111 -73.5 176t-203.5 65zM416 1464h968q107 0 182.5 -74.5t75.5 -179.5v-976q0 -105 -75.5 -179.5
t-182.5 -74.5h-968q-107 0 -182.5 74.5t-75.5 179.5v976q0 105 75.5 179.5t182.5 74.5z" />
    <glyph glyph-name="uni1F182" unicode="S&#x20de;&#x25a0;" 
d="M589 576q3 -109 86 -173t222 -64q145 0 229.5 64t84.5 174q0 87 -52.5 139.5t-163.5 78.5l-127 28q-105 23 -105 90q0 47 38.5 75.5t102.5 28.5t105 -31t46 -82h145q-1 103 -83 167.5t-212 64.5q-131 0 -213 -64t-82 -167q0 -81 51.5 -135t148.5 -76l127 -30
q64 -14 93 -37t29 -61q0 -50 -41.5 -78.5t-112.5 -28.5t-116.5 32t-49.5 85h-150zM416 1464h968q107 0 182.5 -74.5t75.5 -179.5v-976q0 -105 -75.5 -179.5t-182.5 -74.5h-968q-107 0 -182.5 74.5t-75.5 179.5v976q0 105 75.5 179.5t182.5 74.5z" />
    <glyph glyph-name="uni1F183" unicode="T&#x20de;&#x25a0;" 
d="M976 354v641h229v125h-610v-125h229v-641h152zM416 1464h968q107 0 182.5 -74.5t75.5 -179.5v-976q0 -105 -75.5 -179.5t-182.5 -74.5h-968q-107 0 -182.5 74.5t-75.5 179.5v976q0 105 75.5 179.5t182.5 74.5z" />
    <glyph glyph-name="uni1F184" unicode="U&#x20de;&#x25a0;" 
d="M900 468q-79 0 -123 43.5t-44 120.5v488h-153v-500q0 -127 87.5 -203.5t232.5 -76.5t232.5 77t87.5 203v500h-153v-488q0 -77 -44.5 -120.5t-122.5 -43.5zM416 1464h968q107 0 182.5 -74.5t75.5 -179.5v-976q0 -105 -75.5 -179.5t-182.5 -74.5h-968q-107 0 -182.5 74.5
t-75.5 179.5v976q0 105 75.5 179.5t182.5 74.5z" />
    <glyph glyph-name="uni1F185" unicode="V&#x20de;&#x25a0;" 
d="M986 354l277 766h-175l-186 -608h-4l-186 608h-175l277 -766h172zM416 1464h968q107 0 182.5 -74.5t75.5 -179.5v-976q0 -105 -75.5 -179.5t-182.5 -74.5h-968q-107 0 -182.5 74.5t-75.5 179.5v976q0 105 75.5 179.5t182.5 74.5z" />
    <glyph glyph-name="uni1F186" unicode="W&#x20de;&#x25a0;" 
d="M898 895h4l151 -541h139l216 766h-168l-122 -566h-4l-145 566h-138l-145 -566h-4l-122 566h-168l217 -766h138zM416 1464h968q107 0 182.5 -74.5t75.5 -179.5v-976q0 -105 -75.5 -179.5t-182.5 -74.5h-968q-107 0 -182.5 74.5t-75.5 179.5v976q0 105 75.5 179.5
t182.5 74.5z" />
    <glyph glyph-name="uni1F187" unicode="X&#x20de;&#x25a0;" 
d="M1252 1120h-174l-168 -279h-4l-173 279h-182l250 -380l-253 -386h170l175 275h3l175 -275h177l-254 381zM416 1464h968q107 0 182.5 -74.5t75.5 -179.5v-976q0 -105 -75.5 -179.5t-182.5 -74.5h-968q-107 0 -182.5 74.5t-75.5 179.5v976q0 105 75.5 179.5t182.5 74.5z
" />
    <glyph glyph-name="uni1F188" unicode="Y&#x20de;&#x25a0;" 
d="M824 354h152v302l271 464h-169l-176 -324h-4l-176 324h-169l271 -464v-302zM416 1464h968q107 0 182.5 -74.5t75.5 -179.5v-976q0 -105 -75.5 -179.5t-182.5 -74.5h-968q-107 0 -182.5 74.5t-75.5 179.5v976q0 105 75.5 179.5t182.5 74.5z" />
    <glyph glyph-name="uni1F189" unicode="Z&#x20de;&#x25a0;" 
d="M605 354h590v124h-405l394 545v97h-567v-124h383v-1l-395 -544v-97zM416 1464h968q107 0 182.5 -74.5t75.5 -179.5v-976q0 -105 -75.5 -179.5t-182.5 -74.5h-968q-107 0 -182.5 74.5t-75.5 179.5v976q0 105 75.5 179.5t182.5 74.5z" />
    <glyph glyph-name="plus.uc.whitecircle" unicode="&#x2b;&#x20dd;" 
d="M954 682v-217h-108v217h-212v102h212v209h108v-209h212v-102h-212zM900 78q176 0 322 86t229.5 233.5t83.5 322.5t-83.5 322.5t-229.5 233.5t-322 86t-322 -86t-229.5 -233.5t-83.5 -322.5t83.5 -322.5t229.5 -233.5t322 -86zM900 -50q-156 0 -299 61.5t-246 164.5
t-164.5 246t-61.5 299t61.5 299t164.5 246t246 164.5t299 61.5t299 -61.5t246 -164.5t164.5 -246t61.5 -299t-61.5 -299t-164.5 -246t-246 -164.5t-299 -61.5z" />
    <glyph glyph-name="minus.uc.whitecircle" unicode="&#x2212;&#x20dd;" 
d="M1155 677h-510v104h510v-104zM900 78q176 0 322 86t229.5 233.5t83.5 322.5t-83.5 322.5t-229.5 233.5t-322 86t-322 -86t-229.5 -233.5t-83.5 -322.5t83.5 -322.5t229.5 -233.5t322 -86zM900 -50q-156 0 -299 61.5t-246 164.5t-164.5 246t-61.5 299t61.5 299t164.5 246
t246 164.5t299 61.5t299 -61.5t246 -164.5t164.5 -246t61.5 -299t-61.5 -299t-164.5 -246t-246 -164.5t-299 -61.5z" />
    <glyph glyph-name="multiply.uc.whitecircle" unicode="&#xd7;&#x20dd;" 
d="M900 802l163 156l77 -73l-163 -156l163 -156l-77 -73l-163 156l-163 -156l-77 73l163 156l-163 156l77 73zM900 78q176 0 322 86t229.5 233.5t83.5 322.5t-83.5 322.5t-229.5 233.5t-322 86t-322 -86t-229.5 -233.5t-83.5 -322.5t83.5 -322.5t229.5 -233.5t322 -86z
M900 -50q-156 0 -299 61.5t-246 164.5t-164.5 246t-61.5 299t61.5 299t164.5 246t246 164.5t299 61.5t299 -61.5t246 -164.5t164.5 -246t61.5 -299t-61.5 -299t-164.5 -246t-246 -164.5t-299 -61.5z" />
    <glyph glyph-name="divide.uc.whitecircle" unicode="&#xf7;&#x20dd;" 
d="M1155 683h-510v91h510v-91zM821 934q0 33 22.5 54.5t55.5 21.5q36 0 59 -21.5t23 -54.5q0 -31 -23.5 -52t-58.5 -21q-33 0 -55.5 21t-22.5 52zM821 527q0 33 22.5 54.5t56.5 21.5q35 0 58 -21.5t23 -54.5q0 -31 -23 -52t-58 -21q-34 0 -56.5 21t-22.5 52zM900 78
q176 0 322 86t229.5 233.5t83.5 322.5t-83.5 322.5t-229.5 233.5t-322 86t-322 -86t-229.5 -233.5t-83.5 -322.5t83.5 -322.5t229.5 -233.5t322 -86zM900 -50q-156 0 -299 61.5t-246 164.5t-164.5 246t-61.5 299t61.5 299t164.5 246t246 164.5t299 61.5t299 -61.5
t246 -164.5t164.5 -246t61.5 -299t-61.5 -299t-164.5 -246t-246 -164.5t-299 -61.5z" />
    <glyph glyph-name="equal.uc.whitecircle" unicode="&#x3d;&#x20dd;" 
d="M1141 567h-482v95h482v-95zM1141 795h-482v96h482v-96zM900 78q176 0 322 86t229.5 233.5t83.5 322.5t-83.5 322.5t-229.5 233.5t-322 86t-322 -86t-229.5 -233.5t-83.5 -322.5t83.5 -322.5t229.5 -233.5t322 -86zM900 -50q-156 0 -299 61.5t-246 164.5t-164.5 246
t-61.5 299t61.5 299t164.5 246t246 164.5t299 61.5t299 -61.5t246 -164.5t164.5 -246t61.5 -299t-61.5 -299t-164.5 -246t-246 -164.5t-299 -61.5z" />
    <glyph glyph-name="greater.uc.whitecircle" unicode="&#x3e;&#x20dd;" 
d="M1166 764v-84l-482 -246v122l337 167v5l-337 173v124zM900 78q176 0 322 86t229.5 233.5t83.5 322.5t-83.5 322.5t-229.5 233.5t-322 86t-322 -86t-229.5 -233.5t-83.5 -322.5t83.5 -322.5t229.5 -233.5t322 -86zM900 -50q-156 0 -299 61.5t-246 164.5t-164.5 246
t-61.5 299t61.5 299t164.5 246t246 164.5t299 61.5t299 -61.5t246 -164.5t164.5 -246t61.5 -299t-61.5 -299t-164.5 -246t-246 -164.5t-299 -61.5z" />
    <glyph glyph-name="less.uc.whitecircle" unicode="&#x3c;&#x20dd;" 
d="M635 680v84l481 261v-124l-338 -173v-5l338 -167v-122zM900 78q176 0 322 86t229.5 233.5t83.5 322.5t-83.5 322.5t-229.5 233.5t-322 86t-322 -86t-229.5 -233.5t-83.5 -322.5t83.5 -322.5t229.5 -233.5t322 -86zM900 -50q-156 0 -299 61.5t-246 164.5t-164.5 246
t-61.5 299t61.5 299t164.5 246t246 164.5t299 61.5t299 -61.5t246 -164.5t164.5 -246t61.5 -299t-61.5 -299t-164.5 -246t-246 -164.5t-299 -61.5z" />
    <glyph glyph-name="numbersign.whitecircle" unicode="&#x30;&#x20dd;" 
d="M1187 802h-112l-30 -139h107l-19 -90h-107l-40 -190h-98l41 190h-131l-40 -190h-98l40 190h-105l18 90h106l30 139h-101l18 90h103l38 184h97l-38 -184h130l39 184h97l-38 -184h111zM842 806l-33 -153h144l33 153h-144zM900 78q176 0 322 86t229.5 233.5t83.5 322.5
t-83.5 322.5t-229.5 233.5t-322 86t-322 -86t-229.5 -233.5t-83.5 -322.5t83.5 -322.5t229.5 -233.5t322 -86zM900 -50q-156 0 -299 61.5t-246 164.5t-164.5 246t-61.5 299t61.5 299t164.5 246t246 164.5t299 61.5t299 -61.5t246 -164.5t164.5 -246t61.5 -299t-61.5 -299
t-164.5 -246t-246 -164.5t-299 -61.5z" />
    <glyph glyph-name="uni25BC.whitecircle" unicode="&#x25bc;&#x20dd;" 
d="M1214 945l-314 -543l-313 543h627zM900 78q176 0 322 86t229.5 233.5t83.5 322.5t-83.5 322.5t-229.5 233.5t-322 86t-322 -86t-229.5 -233.5t-83.5 -322.5t83.5 -322.5t229.5 -233.5t322 -86zM900 -50q-156 0 -299 61.5t-246 164.5t-164.5 246t-61.5 299t61.5 299
t164.5 246t246 164.5t299 61.5t299 -61.5t246 -164.5t164.5 -246t61.5 -299t-61.5 -299t-164.5 -246t-246 -164.5t-299 -61.5z" />
    <glyph glyph-name="uni25B2.whitecircle" unicode="&#x25b2;&#x20dd;" 
d="M1214 513h-627l313 543zM900 78q176 0 322 86t229.5 233.5t83.5 322.5t-83.5 322.5t-229.5 233.5t-322 86t-322 -86t-229.5 -233.5t-83.5 -322.5t83.5 -322.5t229.5 -233.5t322 -86zM900 -50q-156 0 -299 61.5t-246 164.5t-164.5 246t-61.5 299t61.5 299t164.5 246
t246 164.5t299 61.5t299 -61.5t246 -164.5t164.5 -246t61.5 -299t-61.5 -299t-164.5 -246t-246 -164.5t-299 -61.5z" />
    <glyph glyph-name="uni25C0.whitecircle" unicode="&#x25c0;&#x20dd;" 
d="M1116 415l-543 314l543 313v-627zM900 78q176 0 322 86t229.5 233.5t83.5 322.5t-83.5 322.5t-229.5 233.5t-322 86t-322 -86t-229.5 -233.5t-83.5 -322.5t83.5 -322.5t229.5 -233.5t322 -86zM900 -50q-156 0 -299 61.5t-246 164.5t-164.5 246t-61.5 299t61.5 299
t164.5 246t246 164.5t299 61.5t299 -61.5t246 -164.5t164.5 -246t61.5 -299t-61.5 -299t-164.5 -246t-246 -164.5t-299 -61.5z" />
    <glyph glyph-name="uni25B6.whitecircle" unicode="&#x25b6;&#x20dd;" 
d="M684 415v627l543 -313zM900 78q176 0 322 86t229.5 233.5t83.5 322.5t-83.5 322.5t-229.5 233.5t-322 86t-322 -86t-229.5 -233.5t-83.5 -322.5t83.5 -322.5t229.5 -233.5t322 -86zM900 -50q-156 0 -299 61.5t-246 164.5t-164.5 246t-61.5 299t61.5 299t164.5 246
t246 164.5t299 61.5t299 -61.5t246 -164.5t164.5 -246t61.5 -299t-61.5 -299t-164.5 -246t-246 -164.5t-299 -61.5z" />
    <glyph glyph-name="question.whitecircle" unicode="&#x3f;&#x20dd;" 
d="M798 454q0 34 24.5 55.5t63.5 21.5q40 0 65 -21t25 -56q0 -33 -25 -54t-65 -21q-38 0 -63 21.5t-25 53.5zM824 606v33q-3 53 22 90.5t74 71.5q32 22 45.5 33t25 30.5t11.5 43.5q0 44 -30.5 67t-75.5 23q-52 0 -80.5 -30t-28.5 -76h-119q-1 54 19 94.5t54.5 63.5t75 34
t85.5 11q97 0 163 -47t66 -134q0 -41 -17.5 -74t-36 -49t-51.5 -40q-38 -28 -51.5 -39.5t-24 -31t-10.5 -47.5v-27h-116zM900 78q176 0 322 86t229.5 233.5t83.5 322.5t-83.5 322.5t-229.5 233.5t-322 86t-322 -86t-229.5 -233.5t-83.5 -322.5t83.5 -322.5t229.5 -233.5
t322 -86zM900 -50q-156 0 -299 61.5t-246 164.5t-164.5 246t-61.5 299t61.5 299t164.5 246t246 164.5t299 61.5t299 -61.5t246 -164.5t164.5 -246t61.5 -299t-61.5 -299t-164.5 -246t-246 -164.5t-299 -61.5z" />
    <glyph glyph-name="exclam.whitecircle" unicode="&#x21;&#x20dd;" 
d="M811 454q0 35 24.5 56.5t64.5 21.5t64.5 -21.5t24.5 -56.5q0 -33 -25 -54t-64 -21t-64 21t-25 54zM830 1081h141l-15 -454h-111zM900 78q176 0 322 86t229.5 233.5t83.5 322.5t-83.5 322.5t-229.5 233.5t-322 86t-322 -86t-229.5 -233.5t-83.5 -322.5t83.5 -322.5
t229.5 -233.5t322 -86zM900 -50q-156 0 -299 61.5t-246 164.5t-164.5 246t-61.5 299t61.5 299t164.5 246t246 164.5t299 61.5t299 -61.5t246 -164.5t164.5 -246t61.5 -299t-61.5 -299t-164.5 -246t-246 -164.5t-299 -61.5z" />
    <glyph glyph-name="uni2717.whitecircle" unicode="&#x2717;&#x20dd;" 
d="M904 806l259 258l82 -81l-258 -259l258 -259l-82 -83l-259 258l-259 -258l-83 83l258 259l-259 260l82 82zM900 78q176 0 322 86t229.5 233.5t83.5 322.5t-83.5 322.5t-229.5 233.5t-322 86t-322 -86t-229.5 -233.5t-83.5 -322.5t83.5 -322.5t229.5 -233.5t322 -86z
M900 -50q-156 0 -299 61.5t-246 164.5t-164.5 246t-61.5 299t61.5 299t164.5 246t246 164.5t299 61.5t299 -61.5t246 -164.5t164.5 -246t61.5 -299t-61.5 -299t-164.5 -246t-246 -164.5t-299 -61.5z" />
    <glyph glyph-name="uni2713.whitecircle" unicode="&#x2713;&#x20dd;" 
d="M1323 950l-546 -544l-288 285l88 87l199 -198l459 458zM900 78q176 0 322 86t229.5 233.5t83.5 322.5t-83.5 322.5t-229.5 233.5t-322 86t-322 -86t-229.5 -233.5t-83.5 -322.5t83.5 -322.5t229.5 -233.5t322 -86zM900 -50q-156 0 -299 61.5t-246 164.5t-164.5 246
t-61.5 299t61.5 299t164.5 246t246 164.5t299 61.5t299 -61.5t246 -164.5t164.5 -246t61.5 -299t-61.5 -299t-164.5 -246t-246 -164.5t-299 -61.5z" />
    <glyph glyph-name="zero.whitesquare" unicode="&#x30;&#x20de;" 
d="M900 486q67 0 105.5 65.5t38.5 183.5t-38.5 183.5t-105.5 65.5t-105.5 -65.5t-38.5 -183.5t38.5 -183.5t105.5 -65.5zM900 376q-120 0 -194 95.5t-74 263.5t74 263.5t194 95.5t194 -95.5t74 -263.5t-74 -263.5t-194 -95.5zM416 1464h968q107 0 182.5 -74.5t75.5 -179.5
v-976q0 -105 -75.5 -179.5t-182.5 -74.5h-968q-107 0 -182.5 74.5t-75.5 179.5v976q0 105 75.5 179.5t182.5 74.5zM1513 1208q0 56 -42.5 97t-100.5 41h-940q-58 0 -100.5 -40.5t-42.5 -97.5v-972q0 -56 42.5 -97t100.5 -41h940q58 0 100.5 41t42.5 97v972z" />
    <glyph glyph-name="one.whitesquare" unicode="&#x31;&#x20de;" 
d="M1009 388h-130v571h-6l-166 -114v117l172 119h130v-693zM416 1464h968q107 0 182.5 -74.5t75.5 -179.5v-976q0 -105 -75.5 -179.5t-182.5 -74.5h-968q-107 0 -182.5 74.5t-75.5 179.5v976q0 105 75.5 179.5t182.5 74.5zM1513 1208q0 56 -42.5 97t-100.5 41h-940
q-58 0 -100.5 -40.5t-42.5 -97.5v-972q0 -56 42.5 -97t100.5 -41h940q58 0 100.5 41t42.5 97v972z" />
    <glyph glyph-name="two.whitesquare" unicode="&#x32;&#x20de;" 
d="M782 878h-124v6q0 86 63.5 148t179.5 62q108 0 174.5 -54.5t66.5 -138.5q0 -33 -9 -61.5t-31.5 -59t-36.5 -46.5t-49 -52l-174 -185v-6h313v-103h-492v77l268 280q26 26 40.5 43.5t28 45.5t13.5 56q0 45 -32.5 74t-81.5 29q-54 0 -85.5 -31.5t-31.5 -77.5v-6zM416 1464
h968q107 0 182.5 -74.5t75.5 -179.5v-976q0 -105 -75.5 -179.5t-182.5 -74.5h-968q-107 0 -182.5 74.5t-75.5 179.5v976q0 105 75.5 179.5t182.5 74.5zM1513 1208q0 56 -42.5 97t-100.5 41h-940q-58 0 -100.5 -40.5t-42.5 -97.5v-972q0 -56 42.5 -97t100.5 -41h940
q58 0 100.5 41t42.5 97v972z" />
    <glyph glyph-name="three.whitesquare" unicode="&#x33;&#x20de;" 
d="M820 696v98h77q51 0 84.5 29.5t33.5 73.5q-1 43 -34 71t-84 28t-84 -26.5t-35 -62.5h-122q2 80 67 133t177 54q109 0 175.5 -50t68.5 -129q1 -67 -42.5 -110t-92.5 -51v-6q59 -6 107.5 -48.5t49.5 -118.5q1 -93 -76.5 -149.5t-193.5 -56.5q-115 0 -183.5 53.5
t-71.5 134.5h120q4 -39 41.5 -64t94.5 -26q62 0 101 32t39 81q-2 49 -39 79.5t-97 30.5h-81zM416 1464h968q107 0 182.5 -74.5t75.5 -179.5v-976q0 -105 -75.5 -179.5t-182.5 -74.5h-968q-107 0 -182.5 74.5t-75.5 179.5v976q0 105 75.5 179.5t182.5 74.5zM1513 1208
q0 56 -42.5 97t-100.5 41h-940q-58 0 -100.5 -40.5t-42.5 -97.5v-972q0 -56 42.5 -97t100.5 -41h940q58 0 100.5 41t42.5 97v972z" />
    <glyph glyph-name="four.whitesquare" unicode="&#x34;&#x20de;" 
d="M895 1081h189v-458h91v-102h-91v-133h-123v133h-352v103q30 54 69.5 117.5l68 108.5l77 119.5zM730 623h231v361h-6q-135 -198 -225 -357v-4zM416 1464h968q107 0 182.5 -74.5t75.5 -179.5v-976q0 -105 -75.5 -179.5t-182.5 -74.5h-968q-107 0 -182.5 74.5t-75.5 179.5
v976q0 105 75.5 179.5t182.5 74.5zM1513 1208q0 56 -42.5 97t-100.5 41h-940q-58 0 -100.5 -40.5t-42.5 -97.5v-972q0 -56 42.5 -97t100.5 -41h940q58 0 100.5 41t42.5 97v972z" />
    <glyph glyph-name="five.whitesquare" unicode="&#x35;&#x20de;" 
d="M652 562h121q9 -43 46.5 -65t88.5 -22q56 0 97 38.5t41 102.5q0 58 -40.5 94.5t-98.5 36.5q-46 0 -79 -20.5t-47 -47.5h-114l32 402h434v-102h-329l-17 -195h6q15 21 53.5 40.5t93.5 19.5q99 0 166 -60.5t67 -164.5q0 -109 -74.5 -176.5t-195.5 -67.5q-108 0 -177 53
t-74 134zM416 1464h968q107 0 182.5 -74.5t75.5 -179.5v-976q0 -105 -75.5 -179.5t-182.5 -74.5h-968q-107 0 -182.5 74.5t-75.5 179.5v976q0 105 75.5 179.5t182.5 74.5zM1513 1208q0 56 -42.5 97t-100.5 41h-940q-58 0 -100.5 -40.5t-42.5 -97.5v-972q0 -56 42.5 -97
t100.5 -41h940q58 0 100.5 41t42.5 97v972z" />
    <glyph glyph-name="six.whitesquare" unicode="&#x36;&#x20de;" 
d="M925 377q-135 0 -217 90.5t-82 261.5q0 172 81.5 270t221.5 98q107 0 178 -51t85 -135h-129q-10 40 -45 62t-87 22q-86 0 -133.5 -65t-48.5 -187h9q27 49 78.5 76t118.5 27q107 0 177.5 -64.5t70.5 -163.5q0 -106 -78 -173.5t-200 -67.5zM924 478q64 0 108 39.5t44 97.5
q0 60 -42 98t-109 38t-110 -38t-43 -96q0 -59 43.5 -99t108.5 -40zM416 1464h968q107 0 182.5 -74.5t75.5 -179.5v-976q0 -105 -75.5 -179.5t-182.5 -74.5h-968q-107 0 -182.5 74.5t-75.5 179.5v976q0 105 75.5 179.5t182.5 74.5zM1513 1208q0 56 -42.5 97t-100.5 41h-940
q-58 0 -100.5 -40.5t-42.5 -97.5v-972q0 -56 42.5 -97t100.5 -41h940q58 0 100.5 41t42.5 97v972z" />
    <glyph glyph-name="seven.whitesquare" unicode="&#x37;&#x20de;" 
d="M662 1081h491v-105l-296 -588h-137l301 584v6h-359v103zM416 1464h968q107 0 182.5 -74.5t75.5 -179.5v-976q0 -105 -75.5 -179.5t-182.5 -74.5h-968q-107 0 -182.5 74.5t-75.5 179.5v976q0 105 75.5 179.5t182.5 74.5zM1513 1208q0 56 -42.5 97t-100.5 41h-940
q-58 0 -100.5 -40.5t-42.5 -97.5v-972q0 -56 42.5 -97t100.5 -41h940q58 0 100.5 41t42.5 97v972z" />
    <glyph glyph-name="eight.whitesquare" unicode="&#x38;&#x20de;" 
d="M900 467q63 0 104 33.5t41 85.5t-40.5 85.5t-104.5 33.5q-63 0 -104.5 -34t-41.5 -85q0 -52 41 -85.5t105 -33.5zM900 793q53 0 87 29.5t34 75.5t-34 74.5t-87 28.5t-87 -28.5t-34 -74.5t34 -75.5t87 -29.5zM898 375q-122 0 -197.5 56t-75.5 147q0 64 41.5 111.5
t109.5 61.5v5q-57 18 -89.5 59t-32.5 96q0 80 69 131.5t177 51.5t177 -51.5t69 -131.5q0 -55 -33 -97t-89 -58v-5q68 -14 109.5 -61t41.5 -111q0 -91 -77 -147.5t-200 -56.5zM416 1464h968q107 0 182.5 -74.5t75.5 -179.5v-976q0 -105 -75.5 -179.5t-182.5 -74.5h-968
q-107 0 -182.5 74.5t-75.5 179.5v976q0 105 75.5 179.5t182.5 74.5zM1513 1208q0 56 -42.5 97t-100.5 41h-940q-58 0 -100.5 -40.5t-42.5 -97.5v-972q0 -56 42.5 -97t100.5 -41h940q58 0 100.5 41t42.5 97v972z" />
    <glyph glyph-name="nine.whitesquare" unicode="&#x39;&#x20de;" 
d="M899 377q-102 0 -174.5 51t-88.5 135h129q13 -39 49.5 -61.5t86.5 -22.5q84 0 130 66t48 186h-9q-26 -49 -77.5 -76t-118.5 -27q-108 0 -178 64.5t-70 163.5q0 106 77.5 173.5t199.5 67.5q137 0 218.5 -92.5t81.5 -259.5q0 -173 -80.5 -270.5t-223.5 -97.5zM904 724
q66 0 109.5 38t43.5 95q0 59 -43.5 98.5t-108.5 39.5t-109 -39t-44 -96q0 -60 42.5 -98t109.5 -38zM416 1464h968q107 0 182.5 -74.5t75.5 -179.5v-976q0 -105 -75.5 -179.5t-182.5 -74.5h-968q-107 0 -182.5 74.5t-75.5 179.5v976q0 105 75.5 179.5t182.5 74.5zM1513 1208
q0 56 -42.5 97t-100.5 41h-940q-58 0 -100.5 -40.5t-42.5 -97.5v-972q0 -56 42.5 -97t100.5 -41h940q58 0 100.5 41t42.5 97v972z" />
    <glyph glyph-name="plus.uc.whitesquare" unicode="&#x2b;&#x20de;" 
d="M954 682v-217h-108v217h-212v102h212v209h108v-209h212v-102h-212zM416 1464h968q107 0 182.5 -74.5t75.5 -179.5v-976q0 -105 -75.5 -179.5t-182.5 -74.5h-968q-107 0 -182.5 74.5t-75.5 179.5v976q0 105 75.5 179.5t182.5 74.5zM1513 1208q0 56 -42.5 97t-100.5 41
h-940q-58 0 -100.5 -40.5t-42.5 -97.5v-972q0 -56 42.5 -97t100.5 -41h940q58 0 100.5 41t42.5 97v972z" />
    <glyph glyph-name="minus.uc.whitesquare" unicode="&#x2212;&#x20de;" 
d="M1155 677h-510v104h510v-104zM416 1464h968q107 0 182.5 -74.5t75.5 -179.5v-976q0 -105 -75.5 -179.5t-182.5 -74.5h-968q-107 0 -182.5 74.5t-75.5 179.5v976q0 105 75.5 179.5t182.5 74.5zM1513 1208q0 56 -42.5 97t-100.5 41h-940q-58 0 -100.5 -40.5t-42.5 -97.5
v-972q0 -56 42.5 -97t100.5 -41h940q58 0 100.5 41t42.5 97v972z" />
    <glyph glyph-name="multiply.uc.whitesquare" unicode="&#xd7;&#x20de;" 
d="M900 802l163 156l77 -73l-163 -156l163 -156l-77 -73l-163 156l-163 -156l-77 73l163 156l-163 156l77 73zM416 1464h968q107 0 182.5 -74.5t75.5 -179.5v-976q0 -105 -75.5 -179.5t-182.5 -74.5h-968q-107 0 -182.5 74.5t-75.5 179.5v976q0 105 75.5 179.5t182.5 74.5z
M1513 1208q0 56 -42.5 97t-100.5 41h-940q-58 0 -100.5 -40.5t-42.5 -97.5v-972q0 -56 42.5 -97t100.5 -41h940q58 0 100.5 41t42.5 97v972z" />
    <glyph glyph-name="divide.uc.whitesquare" unicode="&#xf7;&#x20de;" 
d="M1155 683h-510v91h510v-91zM821 934q0 33 22.5 54.5t55.5 21.5q36 0 59 -21.5t23 -54.5q0 -31 -23.5 -52t-58.5 -21q-33 0 -55.5 21t-22.5 52zM821 527q0 33 22.5 54.5t56.5 21.5q35 0 58 -21.5t23 -54.5q0 -31 -23 -52t-58 -21q-34 0 -56.5 21t-22.5 52zM416 1464h968
q107 0 182.5 -74.5t75.5 -179.5v-976q0 -105 -75.5 -179.5t-182.5 -74.5h-968q-107 0 -182.5 74.5t-75.5 179.5v976q0 105 75.5 179.5t182.5 74.5zM1513 1208q0 56 -42.5 97t-100.5 41h-940q-58 0 -100.5 -40.5t-42.5 -97.5v-972q0 -56 42.5 -97t100.5 -41h940
q58 0 100.5 41t42.5 97v972z" />
    <glyph glyph-name="equal.uc.whitesquare" unicode="&#x3d;&#x20de;" 
d="M1141 567h-482v95h482v-95zM1141 795h-482v96h482v-96zM416 1464h968q107 0 182.5 -74.5t75.5 -179.5v-976q0 -105 -75.5 -179.5t-182.5 -74.5h-968q-107 0 -182.5 74.5t-75.5 179.5v976q0 105 75.5 179.5t182.5 74.5zM1513 1208q0 56 -42.5 97t-100.5 41h-940
q-58 0 -100.5 -40.5t-42.5 -97.5v-972q0 -56 42.5 -97t100.5 -41h940q58 0 100.5 41t42.5 97v972z" />
    <glyph glyph-name="greater.uc.whitesquare" unicode="&#x3e;&#x20de;" 
d="M1166 764v-84l-482 -246v122l337 167v5l-337 173v124zM416 1464h968q107 0 182.5 -74.5t75.5 -179.5v-976q0 -105 -75.5 -179.5t-182.5 -74.5h-968q-107 0 -182.5 74.5t-75.5 179.5v976q0 105 75.5 179.5t182.5 74.5zM1513 1208q0 56 -42.5 97t-100.5 41h-940
q-58 0 -100.5 -40.5t-42.5 -97.5v-972q0 -56 42.5 -97t100.5 -41h940q58 0 100.5 41t42.5 97v972z" />
    <glyph glyph-name="less.uc.whitesquare" unicode="&#x3c;&#x20de;" 
d="M635 680v84l481 261v-124l-338 -173v-5l338 -167v-122zM416 1464h968q107 0 182.5 -74.5t75.5 -179.5v-976q0 -105 -75.5 -179.5t-182.5 -74.5h-968q-107 0 -182.5 74.5t-75.5 179.5v976q0 105 75.5 179.5t182.5 74.5zM1513 1208q0 56 -42.5 97t-100.5 41h-940
q-58 0 -100.5 -40.5t-42.5 -97.5v-972q0 -56 42.5 -97t100.5 -41h940q58 0 100.5 41t42.5 97v972z" />
    <glyph glyph-name="numbersign.whitesquare" unicode="&#x23;&#x20de;" 
d="M1187 802h-112l-30 -139h107l-19 -90h-107l-40 -190h-98l41 190h-131l-40 -190h-98l40 190h-105l18 90h106l30 139h-101l18 90h103l38 184h97l-38 -184h130l39 184h97l-38 -184h111zM842 806l-33 -153h144l33 153h-144zM416 1464h968q107 0 182.5 -74.5t75.5 -179.5v-976
q0 -105 -75.5 -179.5t-182.5 -74.5h-968q-107 0 -182.5 74.5t-75.5 179.5v976q0 105 75.5 179.5t182.5 74.5zM1513 1208q0 56 -42.5 97t-100.5 41h-940q-58 0 -100.5 -40.5t-42.5 -97.5v-972q0 -56 42.5 -97t100.5 -41h940q58 0 100.5 41t42.5 97v972z" />
    <glyph glyph-name="uni25BC.whitesquare" unicode="&#x25bc;&#x20de;" 
d="M1215 945l-314 -543l-314 543h628zM416 1464h968q107 0 182.5 -74.5t75.5 -179.5v-976q0 -105 -75.5 -179.5t-182.5 -74.5h-968q-107 0 -182.5 74.5t-75.5 179.5v976q0 105 75.5 179.5t182.5 74.5zM1513 1208q0 56 -42.5 97t-100.5 41h-940q-58 0 -100.5 -40.5
t-42.5 -97.5v-972q0 -56 42.5 -97t100.5 -41h940q58 0 100.5 41t42.5 97v972z" />
    <glyph glyph-name="uni25B2.whitesquare" unicode="&#x25b2;&#x20de;" 
d="M1214 513h-627l313 543zM416 1464h968q107 0 182.5 -74.5t75.5 -179.5v-976q0 -105 -75.5 -179.5t-182.5 -74.5h-968q-107 0 -182.5 74.5t-75.5 179.5v976q0 105 75.5 179.5t182.5 74.5zM1513 1208q0 56 -42.5 97t-100.5 41h-940q-58 0 -100.5 -40.5t-42.5 -97.5v-972
q0 -56 42.5 -97t100.5 -41h940q58 0 100.5 41t42.5 97v972z" />
    <glyph glyph-name="uni25C0.whitesquare" unicode="&#x25c0;&#x20de;" 
d="M1116 415l-543 314l543 313v-627zM416 1464h968q107 0 182.5 -74.5t75.5 -179.5v-976q0 -105 -75.5 -179.5t-182.5 -74.5h-968q-107 0 -182.5 74.5t-75.5 179.5v976q0 105 75.5 179.5t182.5 74.5zM1513 1208q0 56 -42.5 97t-100.5 41h-940q-58 0 -100.5 -40.5
t-42.5 -97.5v-972q0 -56 42.5 -97t100.5 -41h940q58 0 100.5 41t42.5 97v972z" />
    <glyph glyph-name="uni25B6.whitesquare" unicode="&#x25b6;&#x20de;" 
d="M684 415v627l543 -313zM416 1464h968q107 0 182.5 -74.5t75.5 -179.5v-976q0 -105 -75.5 -179.5t-182.5 -74.5h-968q-107 0 -182.5 74.5t-75.5 179.5v976q0 105 75.5 179.5t182.5 74.5zM1513 1208q0 56 -42.5 97t-100.5 41h-940q-58 0 -100.5 -40.5t-42.5 -97.5v-972
q0 -56 42.5 -97t100.5 -41h940q58 0 100.5 41t42.5 97v972z" />
    <glyph glyph-name="question.whitesquare" unicode="&#x3f;&#x20de;" 
d="M798 454q0 34 24.5 55.5t63.5 21.5q40 0 65 -21t25 -56q0 -33 -25 -54t-65 -21q-38 0 -63 21.5t-25 53.5zM668 892q-1 54 19 94.5t54.5 63.5t75 34t85.5 11q97 0 163 -47t66 -134q0 -41 -17.5 -74t-36 -49t-51.5 -40q-38 -28 -51.5 -39.5t-24 -31t-10.5 -47.5v-27h-116
v33q-3 53 22 90.5t74 71.5q32 22 45.5 33t25 30.5t11.5 43.5q0 44 -30.5 67t-75.5 23q-52 0 -80.5 -30t-28.5 -76h-119zM416 1464h968q107 0 182.5 -74.5t75.5 -179.5v-976q0 -105 -75.5 -179.5t-182.5 -74.5h-968q-107 0 -182.5 74.5t-75.5 179.5v976q0 105 75.5 179.5
t182.5 74.5zM1513 1208q0 56 -42.5 97t-100.5 41h-940q-58 0 -100.5 -40.5t-42.5 -97.5v-972q0 -56 42.5 -97t100.5 -41h940q58 0 100.5 41t42.5 97v972z" />
    <glyph glyph-name="exclam.whitesquare" unicode="&#x21;&#x20de;" 
d="M811 454q0 35 24.5 56.5t64.5 21.5t64.5 -21.5t24.5 -56.5q0 -33 -25 -54t-64 -21t-64 21t-25 54zM830 1081h141l-15 -454h-111zM416 1464h968q107 0 182.5 -74.5t75.5 -179.5v-976q0 -105 -75.5 -179.5t-182.5 -74.5h-968q-107 0 -182.5 74.5t-75.5 179.5v976
q0 105 75.5 179.5t182.5 74.5zM1513 1208q0 56 -42.5 97t-100.5 41h-940q-58 0 -100.5 -40.5t-42.5 -97.5v-972q0 -56 42.5 -97t100.5 -41h940q58 0 100.5 41t42.5 97v972z" />
    <glyph glyph-name="uni2717.whitesquare" unicode="&#x2717;&#x20de;" 
d="M904 806l259 258l82 -81l-258 -259l258 -259l-82 -83l-259 258l-259 -258l-83 83l258 259l-259 260l82 82zM416 1464h968q107 0 182.5 -74.5t75.5 -179.5v-976q0 -105 -75.5 -179.5t-182.5 -74.5h-968q-107 0 -182.5 74.5t-75.5 179.5v976q0 105 75.5 179.5t182.5 74.5z
M1513 1208q0 56 -42.5 97t-100.5 41h-940q-58 0 -100.5 -40.5t-42.5 -97.5v-972q0 -56 42.5 -97t100.5 -41h940q58 0 100.5 41t42.5 97v972z" />
    <glyph glyph-name="uni2713.whitesquare" unicode="&#x2713;&#x20de;" 
d="M1323 950l-546 -544l-288 285l88 87l199 -198l459 458zM416 1464h968q107 0 182.5 -74.5t75.5 -179.5v-976q0 -105 -75.5 -179.5t-182.5 -74.5h-968q-107 0 -182.5 74.5t-75.5 179.5v976q0 105 75.5 179.5t182.5 74.5zM1513 1208q0 56 -42.5 97t-100.5 41h-940
q-58 0 -100.5 -40.5t-42.5 -97.5v-972q0 -56 42.5 -97t100.5 -41h940q58 0 100.5 41t42.5 97v972z" />
    <glyph glyph-name="plus.uc.blackcircle" unicode="&#x2b;&#x20dd;&#x25cf;" 
d="M965 674h231v121h-231v228h-130v-228h-231v-121h231v-237h130v237zM900 -50q-156 0 -299 61.5t-246 164.5t-164.5 246t-61.5 299t61.5 299t164.5 246t246 164.5t299 61.5t299 -61.5t246 -164.5t164.5 -246t61.5 -299t-61.5 -299t-164.5 -246t-246 -164.5t-299 -61.5z" />
    <glyph glyph-name="minus.uc.blackcircle" unicode="&#x2212;&#x20dd;&#x25cf;" 
d="M1184 668v124h-568v-124h568zM900 -50q-156 0 -299 61.5t-246 164.5t-164.5 246t-61.5 299t61.5 299t164.5 246t246 164.5t299 61.5t299 -61.5t246 -164.5t164.5 -246t61.5 -299t-61.5 -299t-164.5 -246t-246 -164.5t-299 -61.5z" />
    <glyph glyph-name="multiply.uc.blackcircle" unicode="&#xd7;&#x20dd;&#x25cf;" 
d="M900 817l-178 170l-91 -87l178 -171l-178 -169l91 -87l178 169l178 -169l91 87l-178 169l178 171l-91 87zM900 -50q-156 0 -299 61.5t-246 164.5t-164.5 246t-61.5 299t61.5 299t164.5 246t246 164.5t299 61.5t299 -61.5t246 -164.5t164.5 -246t61.5 -299t-61.5 -299
t-164.5 -246t-246 -164.5t-299 -61.5z" />
    <glyph glyph-name="divide.uc.blackcircle" unicode="&#xf7;&#x20dd;&#x25cf;" 
d="M808 953q0 -37 26 -61t65 -24t66.5 24.5t27.5 60.5q0 39 -27 63.5t-67 24.5q-39 0 -65 -24.5t-26 -63.5zM1184 674v110h-568v-110h568zM808 510q0 -37 26.5 -61t65.5 -24t66 24.5t27 60.5q0 39 -26.5 63.5t-66.5 24.5q-39 0 -65.5 -24.5t-26.5 -63.5zM900 -50
q-156 0 -299 61.5t-246 164.5t-164.5 246t-61.5 299t61.5 299t164.5 246t246 164.5t299 61.5t299 -61.5t246 -164.5t164.5 -246t61.5 -299t-61.5 -299t-164.5 -246t-246 -164.5t-299 -61.5z" />
    <glyph glyph-name="equal.uc.blackcircle" unicode="&#x3d;&#x20dd;&#x25cf;" 
d="M1167 796v116h-534v-116h534zM1167 548v115h-534v-115h534zM900 -50q-156 0 -299 61.5t-246 164.5t-164.5 246t-61.5 299t61.5 299t164.5 246t246 164.5t299 61.5t299 -61.5t246 -164.5t164.5 -246t61.5 -299t-61.5 -299t-164.5 -246t-246 -164.5t-299 -61.5z" />
    <glyph glyph-name="greater.uc.blackcircle" unicode="&#x3e;&#x20dd;&#x25cf;" 
d="M1188 770l-535 290v-145l368 -190l1 -1l-369 -179v-145l535 274v96zM900 -50q-156 0 -299 61.5t-246 164.5t-164.5 246t-61.5 299t61.5 299t164.5 246t246 164.5t299 61.5t299 -61.5t246 -164.5t164.5 -246t61.5 -299t-61.5 -299t-164.5 -246t-246 -164.5t-299 -61.5z
" />
    <glyph glyph-name="less.uc.blackcircle" unicode="&#x3c;&#x20dd;&#x25cf;" 
d="M604 674l534 -274v145l-367 179v1l367 190v145l-534 -290v-96zM900 -50q-156 0 -299 61.5t-246 164.5t-164.5 246t-61.5 299t61.5 299t164.5 246t246 164.5t299 61.5t299 -61.5t246 -164.5t164.5 -246t61.5 -299t-61.5 -299t-164.5 -246t-246 -164.5t-299 -61.5z" />
    <glyph glyph-name="numbersign.blackcircle" unicode="&#x23;&#x20dd;&#x25cf;" 
d="M840 809h147l-34 -157h-146zM1217 805l22 108h-122l42 200h-117l-41 -200h-132l42 200h-117l-41 -200h-113l-22 -108h111l-30 -141h-116l-22 -110h114l-43 -206h117l44 206h132l-44 -206h117l43 206h117l23 110h-116l29 141h123zM900 -50q-156 0 -299 61.5t-246 164.5
t-164.5 246t-61.5 299t61.5 299t164.5 246t246 164.5t299 61.5t299 -61.5t246 -164.5t164.5 -246t61.5 -299t-61.5 -299t-164.5 -246t-246 -164.5t-299 -61.5z" />
    <glyph glyph-name="uni25BC.blackcircle" unicode="&#x25bc;&#x20dd;&#x25cf;" 
d="M1246 980h-691l345 -598zM900 -50q-156 0 -299 61.5t-246 164.5t-164.5 246t-61.5 299t61.5 299t164.5 246t246 164.5t299 61.5t299 -61.5t246 -164.5t164.5 -246t61.5 -299t-61.5 -299t-164.5 -246t-246 -164.5t-299 -61.5z" />
    <glyph glyph-name="uni25B2.blackcircle" unicode="&#x25b2;&#x20dd;&#x25cf;" 
d="M1246 493l-346 598l-345 -598h691zM900 -50q-156 0 -299 61.5t-246 164.5t-164.5 246t-61.5 299t61.5 299t164.5 246t246 164.5t299 61.5t299 -61.5t246 -164.5t164.5 -246t61.5 -299t-61.5 -299t-164.5 -246t-246 -164.5t-299 -61.5z" />
    <glyph glyph-name="uni25C0.blackcircle" unicode="&#x25c0;&#x20dd;&#x25cf;" 
d="M1144 392v689l-599 -344zM900 -50q-156 0 -299 61.5t-246 164.5t-164.5 246t-61.5 299t61.5 299t164.5 246t246 164.5t299 61.5t299 -61.5t246 -164.5t164.5 -246t61.5 -299t-61.5 -299t-164.5 -246t-246 -164.5t-299 -61.5z" />
    <glyph glyph-name="uni25B6.blackcircle" unicode="&#x25b6;&#x20dd;&#x25cf;" 
d="M656 392l599 345l-599 344v-689zM900 -50q-156 0 -299 61.5t-246 164.5t-164.5 246t-61.5 299t61.5 299t164.5 246t246 164.5t299 61.5t299 -61.5t246 -164.5t164.5 -246t61.5 -299t-61.5 -299t-164.5 -246t-246 -164.5t-299 -61.5z" />
    <glyph glyph-name="question.blackcircle" unicode="&#x3f;&#x20dd;&#x25cf;" 
d="M779 429q0 -38 29 -62.5t73 -24.5q46 0 74.5 24.5t28.5 62.5q0 41 -28.5 65.5t-74.5 24.5q-45 0 -73.5 -25t-28.5 -65zM808 590h137v34q0 42 17.5 63.5t73.5 60.5q37 27 57.5 45t40 55.5t19.5 82.5q0 97 -73.5 150t-181.5 53q-50 0 -94.5 -12.5t-83 -38t-61 -71
t-22.5 -105.5v-5h140q0 50 30 82.5t85 32.5q46 0 78 -23.5t32 -69.5q0 -25 -13 -45.5t-27.5 -32.5t-46.5 -34q-55 -38 -82.5 -80t-24.5 -101v-41zM902 -50q-156 0 -299 61.5t-246 164.5t-164.5 246t-61.5 299t61.5 299t164.5 246t246 164.5t299 61.5t299 -61.5t246 -164.5
t164.5 -246t61.5 -299t-61.5 -299t-164.5 -246t-246 -164.5t-299 -61.5z" />
    <glyph glyph-name="exclam.blackcircle" unicode="&#x21;&#x20dd;&#x25cf;" 
d="M817 1118l17 -505h132l17 505h-166zM798 430q0 -37 28.5 -62t73.5 -25t73.5 25t28.5 62q0 40 -28.5 64.5t-73.5 24.5t-73.5 -24.5t-28.5 -64.5zM900 -50q-156 0 -299 61.5t-246 164.5t-164.5 246t-61.5 299t61.5 299t164.5 246t246 164.5t299 61.5t299 -61.5t246 -164.5
t164.5 -246t61.5 -299t-61.5 -299t-164.5 -246t-246 -164.5t-299 -61.5z" />
    <glyph glyph-name="uni2717.blackcircle" unicode="&#x2717;&#x20dd;&#x25cf;" 
d="M904 816l-286 287l-91 -90l285 -287l-284 -284l92 -92l284 284l285 -284l90 92l-284 284l284 284l-90 91zM900 -50q-156 0 -299 61.5t-246 164.5t-164.5 246t-61.5 299t61.5 299t164.5 246t246 164.5t299 61.5t299 -61.5t246 -164.5t164.5 -246t61.5 -299t-61.5 -299
t-164.5 -246t-246 -164.5t-299 -61.5z" />
    <glyph glyph-name="uni2713.blackcircle" unicode="&#x2713;&#x20dd;&#x25cf;" 
d="M764 377l600 599l-97 96l-504 -503l-218 217l-97 -96zM900 -50q-156 0 -299 61.5t-246 164.5t-164.5 246t-61.5 299t61.5 299t164.5 246t246 164.5t299 61.5t299 -61.5t246 -164.5t164.5 -246t61.5 -299t-61.5 -299t-164.5 -246t-246 -164.5t-299 -61.5z" />
    <glyph glyph-name="zero.blacksquare" unicode="&#x30;&#x20de;&#x25a0;" 
d="M896 461q-70 0 -109 71t-39 203t39 203t109 71t109 -71t39 -203t-39 -203t-109 -71zM896 338q138 0 220 106.5t82 290.5t-82 290.5t-220 106.5t-220 -106.5t-82 -290.5t82 -290.5t220 -106.5zM416 1464h968q107 0 182.5 -74.5t75.5 -179.5v-976q0 -105 -75.5 -179.5
t-182.5 -74.5h-968q-107 0 -182.5 74.5t-75.5 179.5v976q0 105 75.5 179.5t182.5 74.5z" />
    <glyph glyph-name="one.blacksquare" unicode="&#x31;&#x20de;&#x25a0;" 
d="M1023 353v765h-148l-191 -132v-140l187 128h1v-621h151zM416 1464h968q107 0 182.5 -74.5t75.5 -179.5v-976q0 -105 -75.5 -179.5t-182.5 -74.5h-968q-107 0 -182.5 74.5t-75.5 179.5v976q0 105 75.5 179.5t182.5 74.5z" />
    <glyph glyph-name="two.blacksquare" unicode="&#x32;&#x20de;&#x25a0;" 
d="M772 886v11q0 48 32.5 81.5t89.5 33.5q51 0 85 -30.5t34 -76.5q0 -30 -14.5 -60.5t-30 -49t-43.5 -46.5l-293 -306v-91h546v122h-342l203 212l48.5 54t37 49t30.5 61.5t9 65.5q0 93 -74 154t-194 61q-129 0 -199.5 -69.5t-70.5 -164.5v-11h146zM416 1464h968
q107 0 182.5 -74.5t75.5 -179.5v-976q0 -105 -75.5 -179.5t-182.5 -74.5h-968q-107 0 -182.5 74.5t-75.5 179.5v976q0 105 75.5 179.5t182.5 74.5z" />
    <glyph glyph-name="three.blacksquare" unicode="&#x33;&#x20de;&#x25a0;" 
d="M804 688h93q63 0 101.5 -32t39.5 -83q0 -52 -40 -84.5t-106 -32.5q-59 1 -99 28.5t-45 69.5h-140q4 -92 79.5 -154t203.5 -62q129 0 215 63t85 168q-3 83 -54.5 130.5t-114.5 54.5q53 11 99 59t45 120q-2 88 -76 144t-194 56q-125 -1 -197 -62t-75 -153h144
q2 40 36.5 68.5t87.5 28.5q54 0 88.5 -28.5t35.5 -74.5q0 -46 -35 -76t-89 -30h-88v-118zM416 1464h968q107 0 182.5 -74.5t75.5 -179.5v-976q0 -105 -75.5 -179.5t-182.5 -74.5h-968q-107 0 -182.5 74.5t-75.5 179.5v976q0 105 75.5 179.5t182.5 74.5z" />
    <glyph glyph-name="four.blacksquare" unicode="&#x34;&#x20de;&#x25a0;" 
d="M888 1118q-244 -380 -314 -503v-117h383v-145h145v145h100v120h-100v500h-214zM957 618h-241v1q77 134 241 380v-381zM416 1464h968q107 0 182.5 -74.5t75.5 -179.5v-976q0 -105 -75.5 -179.5t-182.5 -74.5h-968q-107 0 -182.5 74.5t-75.5 179.5v976q0 105 75.5 179.5
t182.5 74.5z" />
    <glyph glyph-name="five.blacksquare" unicode="&#x35;&#x20de;&#x25a0;" 
d="M619 552q5 -93 81.5 -153t197.5 -60q133 0 216 75t83 197q0 114 -75 181.5t-184 67.5q-57 0 -98.5 -19.5t-61.5 -43.5q11 148 17 201h359v120h-483l-35 -448h131q16 29 51 51.5t84 22.5q61 0 103.5 -38t42.5 -100q0 -68 -43 -108t-101 -40q-53 0 -93.5 24.5t-49.5 69.5
h-142zM416 1464h968q107 0 182.5 -74.5t75.5 -179.5v-976q0 -105 -75.5 -179.5t-182.5 -74.5h-968q-107 0 -182.5 74.5t-75.5 179.5v976q0 105 75.5 179.5t182.5 74.5z" />
    <glyph glyph-name="six.blacksquare" unicode="&#x36;&#x20de;&#x25a0;" 
d="M912 341q127 0 208.5 75t81.5 191q0 108 -71.5 178.5t-180.5 70.5q-67 0 -118 -29t-78 -82h-9q1 127 45.5 196t125.5 69q47 0 80 -23.5t43 -63.5h153q-14 93 -90.5 151t-187.5 58q-146 0 -231 -107.5t-85 -295.5t86 -288t228 -100zM910 462q-60 0 -100.5 41.5
t-40.5 102.5q0 60 39.5 99t102.5 39t102 -39t39 -101q0 -60 -40.5 -101t-101.5 -41zM416 1464h968q107 0 182.5 -74.5t75.5 -179.5v-976q0 -105 -75.5 -179.5t-182.5 -74.5h-968q-107 0 -182.5 74.5t-75.5 179.5v976q0 105 75.5 179.5t182.5 74.5z" />
    <glyph glyph-name="seven.blacksquare" unicode="&#x37;&#x20de;&#x25a0;" 
d="M631 1118v-123h392v-1l-332 -641h159l325 645v120h-544zM416 1464h968q107 0 182.5 -74.5t75.5 -179.5v-976q0 -105 -75.5 -179.5t-182.5 -74.5h-968q-107 0 -182.5 74.5t-75.5 179.5v976q0 105 75.5 179.5t182.5 74.5z" />
    <glyph glyph-name="eight.blacksquare" unicode="&#x38;&#x20de;&#x25a0;" 
d="M896 805q-56 0 -90.5 30t-34.5 78t34.5 78t90.5 30t90.5 -30t34.5 -78t-34.5 -78t-90.5 -30zM896 449q-67 0 -110.5 35.5t-43.5 88.5q0 54 43.5 89.5t110.5 35.5t110.5 -35.5t43.5 -89.5q0 -53 -43.5 -88.5t-110.5 -35.5zM896 338q136 0 220 62.5t84 164.5
q0 70 -44 121.5t-119 67.5q62 21 96.5 66.5t34.5 107.5q0 91 -75.5 148t-196.5 57t-196.5 -57t-75.5 -148q0 -62 34.5 -107.5t96.5 -66.5q-75 -16 -119 -67.5t-44 -121.5q0 -102 84 -164.5t220 -62.5zM416 1464h968q107 0 182.5 -74.5t75.5 -179.5v-976q0 -105 -75.5 -179.5
t-182.5 -74.5h-968q-107 0 -182.5 74.5t-75.5 179.5v976q0 105 75.5 179.5t182.5 74.5z" />
    <glyph glyph-name="nine.blacksquare" unicode="&#x39;&#x20de;&#x25a0;" 
d="M885 341q148 0 232.5 107t84.5 295q0 184 -84.5 286.5t-229.5 102.5q-127 0 -208.5 -75t-81.5 -191q0 -108 71.5 -178.5t180.5 -70.5q67 0 118 29t78 82h9q0 -125 -44.5 -195t-123.5 -70q-47 0 -81 23t-45 63h-153q16 -94 92.5 -151t184.5 -57zM889 730q-62 0 -101.5 39
t-39.5 101q0 60 40.5 100t101.5 40q60 0 100.5 -41t40.5 -101t-40 -99t-102 -39zM416 1464h968q107 0 182.5 -74.5t75.5 -179.5v-976q0 -105 -75.5 -179.5t-182.5 -74.5h-968q-107 0 -182.5 74.5t-75.5 179.5v976q0 105 75.5 179.5t182.5 74.5z" />
    <glyph glyph-name="plus.uc.blacksquare" unicode="&#x2b;&#x20de;&#x25a0;" 
d="M965 674h231v121h-231v228h-130v-228h-231v-121h231v-237h130v237zM416 1464h968q107 0 182.5 -74.5t75.5 -179.5v-976q0 -105 -75.5 -179.5t-182.5 -74.5h-968q-107 0 -182.5 74.5t-75.5 179.5v976q0 105 75.5 179.5t182.5 74.5z" />
    <glyph glyph-name="minus.uc.blacksquare" unicode="&#x2212;&#x20de;&#x25a0;" 
d="M1184 668v124h-568v-124h568zM416 1464h968q107 0 182.5 -74.5t75.5 -179.5v-976q0 -105 -75.5 -179.5t-182.5 -74.5h-968q-107 0 -182.5 74.5t-75.5 179.5v976q0 105 75.5 179.5t182.5 74.5z" />
    <glyph glyph-name="multiply.uc.blacksquare" unicode="&#xd7;&#x20de;&#x25a0;" 
d="M900 817l-178 170l-91 -87l178 -171l-178 -169l91 -87l178 169l178 -169l91 87l-178 169l178 171l-91 87zM416 1464h968q107 0 182.5 -74.5t75.5 -179.5v-976q0 -105 -75.5 -179.5t-182.5 -74.5h-968q-107 0 -182.5 74.5t-75.5 179.5v976q0 105 75.5 179.5t182.5 74.5z
" />
    <glyph glyph-name="divide.uc.blacksquare" unicode="&#xf7;&#x20de;&#x25a0;" 
d="M808 953q0 -37 26 -61t65 -24t66.5 24.5t27.5 60.5q0 39 -27 63.5t-67 24.5q-39 0 -65 -24.5t-26 -63.5zM1184 674v110h-568v-110h568zM808 510q0 -37 26.5 -61t65.5 -24t66 24.5t27 60.5q0 39 -26.5 63.5t-66.5 24.5q-39 0 -65.5 -24.5t-26.5 -63.5zM416 1464h968
q107 0 182.5 -74.5t75.5 -179.5v-976q0 -105 -75.5 -179.5t-182.5 -74.5h-968q-107 0 -182.5 74.5t-75.5 179.5v976q0 105 75.5 179.5t182.5 74.5z" />
    <glyph glyph-name="equal.uc.blacksquare" unicode="&#x3d;&#x20de;&#x25a0;" 
d="M1167 796v116h-534v-116h534zM1167 548v115h-534v-115h534zM416 1464h968q107 0 182.5 -74.5t75.5 -179.5v-976q0 -105 -75.5 -179.5t-182.5 -74.5h-968q-107 0 -182.5 74.5t-75.5 179.5v976q0 105 75.5 179.5t182.5 74.5z" />
    <glyph glyph-name="greater.uc.blacksquare" unicode="&#x3e;&#x20de;&#x25a0;" 
d="M1188 770l-535 290v-145l368 -190l1 -1l-369 -179v-145l535 274v96zM416 1464h968q107 0 182.5 -74.5t75.5 -179.5v-976q0 -105 -75.5 -179.5t-182.5 -74.5h-968q-107 0 -182.5 74.5t-75.5 179.5v976q0 105 75.5 179.5t182.5 74.5z" />
    <glyph glyph-name="less.uc.blacksquare" unicode="&#x3c;&#x20de;&#x25a0;" 
d="M604 674l534 -274v145l-367 179v1l367 190v145l-534 -290v-96zM416 1464h968q107 0 182.5 -74.5t75.5 -179.5v-976q0 -105 -75.5 -179.5t-182.5 -74.5h-968q-107 0 -182.5 74.5t-75.5 179.5v976q0 105 75.5 179.5t182.5 74.5z" />
    <glyph glyph-name="numbersign.blacksquare" unicode="&#x23;&#x20de;&#x25a0;" 
d="M840 809h147l-34 -157h-146zM1217 805l22 108h-122l42 200h-117l-41 -200h-132l42 200h-117l-41 -200h-113l-22 -108h111l-30 -141h-116l-22 -110h114l-43 -206h117l44 206h132l-44 -206h117l43 206h117l23 110h-116l29 141h123zM416 1464h968q107 0 182.5 -74.5
t75.5 -179.5v-976q0 -105 -75.5 -179.5t-182.5 -74.5h-968q-107 0 -182.5 74.5t-75.5 179.5v976q0 105 75.5 179.5t182.5 74.5z" />
    <glyph glyph-name="uni25BC.blacksquare" unicode="&#x25bc;&#x20de;&#x25a0;" 
d="M1246 975h-691l345 -599zM416 1464h968q107 0 182.5 -74.5t75.5 -179.5v-976q0 -105 -75.5 -179.5t-182.5 -74.5h-968q-107 0 -182.5 74.5t-75.5 179.5v976q0 105 75.5 179.5t182.5 74.5z" />
    <glyph glyph-name="uni25B2.blacksquare" unicode="&#x25b2;&#x20de;&#x25a0;" 
d="M1246 493l-346 598l-345 -598h691zM416 1464h968q107 0 182.5 -74.5t75.5 -179.5v-976q0 -105 -75.5 -179.5t-182.5 -74.5h-968q-107 0 -182.5 74.5t-75.5 179.5v976q0 105 75.5 179.5t182.5 74.5z" />
    <glyph glyph-name="uni25C0.blacksquare" unicode="&#x25c0;&#x20de;&#x25a0;" 
d="M1144 392v689l-599 -344zM416 1464h968q107 0 182.5 -74.5t75.5 -179.5v-976q0 -105 -75.5 -179.5t-182.5 -74.5h-968q-107 0 -182.5 74.5t-75.5 179.5v976q0 105 75.5 179.5t182.5 74.5z" />
    <glyph glyph-name="uni25B6.blacksquare" unicode="&#x25b6;&#x20de;&#x25a0;" 
d="M656 392l599 345l-599 344v-689zM416 1464h968q107 0 182.5 -74.5t75.5 -179.5v-976q0 -105 -75.5 -179.5t-182.5 -74.5h-968q-107 0 -182.5 74.5t-75.5 179.5v976q0 105 75.5 179.5t182.5 74.5z" />
    <glyph glyph-name="question.blacksquare" unicode="&#x3f;&#x20de;&#x25a0;" 
d="M779 429q0 -38 29 -62.5t73 -24.5q46 0 74.5 24.5t28.5 62.5q0 41 -28.5 65.5t-74.5 24.5q-45 0 -73.5 -25t-28.5 -65zM898 1134q-50 0 -94.5 -12.5t-83 -38t-61 -71t-22.5 -105.5v-5h140q0 50 30 82.5t85 32.5q46 0 78 -23.5t32 -69.5q0 -25 -13 -45.5t-27.5 -32.5
t-46.5 -34q-55 -38 -82.5 -80t-24.5 -101v-41h137v34q0 42 17.5 63.5t73.5 60.5q37 27 57.5 45t40 55.5t19.5 82.5q0 97 -73.5 150t-181.5 53zM416 1464h968q107 0 182.5 -74.5t75.5 -179.5v-976q0 -105 -75.5 -179.5t-182.5 -74.5h-968q-107 0 -182.5 74.5t-75.5 179.5v976
q0 105 75.5 179.5t182.5 74.5z" />
    <glyph glyph-name="exclam.blacksquare" unicode="&#x21;&#x20de;&#x25a0;" 
d="M817 1118l17 -505h132l17 505h-166zM798 430q0 -37 28.5 -62t73.5 -25t73.5 25t28.5 62q0 40 -28.5 64.5t-73.5 24.5t-73.5 -24.5t-28.5 -64.5zM416 1464h968q107 0 182.5 -74.5t75.5 -179.5v-976q0 -105 -75.5 -179.5t-182.5 -74.5h-968q-107 0 -182.5 74.5t-75.5 179.5
v976q0 105 75.5 179.5t182.5 74.5z" />
    <glyph glyph-name="uni2717.blacksquare" unicode="&#x2717;&#x20de;&#x25a0;" 
d="M527 1013l285 -287l-284 -284l92 -92l284 284l285 -284l90 92l-284 284l284 284l-90 91l-285 -285l-286 287zM416 1464h968q107 0 182.5 -74.5t75.5 -179.5v-976q0 -105 -75.5 -179.5t-182.5 -74.5h-968q-107 0 -182.5 74.5t-75.5 179.5v976q0 105 75.5 179.5t182.5 74.5
z" />
    <glyph glyph-name="uni2713.blacksquare" unicode="&#x2713;&#x20de;&#x25a0;" 
d="M764 377l600 599l-97 96l-504 -503l-218 217l-97 -96zM416 1464h968q107 0 182.5 -74.5t75.5 -179.5v-976q0 -105 -75.5 -179.5t-182.5 -74.5h-968q-107 0 -182.5 74.5t-75.5 179.5v976q0 105 75.5 179.5t182.5 74.5z" />
    <glyph glyph-name=".notdef" horiz-adv-x="2048" 
d="M100 -494v284h1848v-284h-1848zM100 -62v284h1848v-284h-1848zM100 370v284h1848v-284h-1848zM100 802v284h1848v-284h-1848zM100 1234v284h1848v-284h-1848zM100 1666v284h1848v-284h-1848z" />
    <glyph glyph-name=".null" horiz-adv-x="0" 
 />
    <glyph glyph-name="nonmarkingreturn" horiz-adv-x="0" 
 />
    <glyph glyph-name="space" unicode=" " horiz-adv-x="578" 
 />
    <glyph glyph-name="exclam" unicode="!" horiz-adv-x="637" 
d="M218 1444h200l-17 -964h-166zM319 -18q-61 0 -100 39t-39 100t39 100.5t100 39.5t99.5 -39t38.5 -101q0 -61 -38.5 -100t-99.5 -39z" />
    <glyph glyph-name="quotedbl" unicode="&#x22;" horiz-adv-x="895" 
d="M339 904h-160v539h160v-539zM716 904h-160v539h160v-539z" />
    <glyph glyph-name="numbersign" unicode="#" horiz-adv-x="1296" 
d="M663 0l82 403h-328l-82 -403h-142l81 403h-234l28 144h237l73 364h-247l29 143h247l81 389h142l-78 -389h326l81 389h143l-80 -389h249l-28 -143h-251l-75 -364h261l-28 -144h-262l-82 -403h-143zM445 544h330l75 369h-330z" />
    <glyph glyph-name="dollar" unicode="$" horiz-adv-x="1328" 
d="M726 633v-449q133 10 195.5 69t62.5 151q0 87 -54.5 140t-197.5 88zM606 832v425q-110 -14 -171 -73.5t-61 -135.5q0 -77 54 -131t178 -85zM726 803l31 -7q201 -49 301 -137.5t100 -240.5q0 -116 -59.5 -203t-155.5 -132.5t-217 -54.5v-173h-120v174q-121 11 -218.5 59
t-159 135.5t-64.5 200.5h174q31 -213 268 -239v477l-23 6q-192 46 -287.5 135t-95.5 233q0 159 112.5 260.5t293.5 117.5v174h120v-173q178 -16 295.5 -121t122.5 -267h-174q-10 99 -75 158.5t-169 72.5v-455z" />
    <glyph glyph-name="percent" unicode="%" horiz-adv-x="1720" 
d="M378 790q-147 0 -230.5 90.5t-83.5 249.5q0 157 84 248t230 91q145 0 229 -90.5t84 -248.5q0 -160 -83.5 -250t-229.5 -90zM378 921q75 0 116.5 54.5t41.5 153.5q0 98 -41.5 153t-116.5 55q-76 0 -117.5 -55t-41.5 -153q0 -99 41.5 -153.5t117.5 -54.5zM443 0h-163
l997 1443h163zM1343 -14q-146 0 -230 90.5t-84 249.5q0 157 84 248t230 91q145 0 229 -90.5t84 -248.5q0 -160 -83.5 -250t-229.5 -90zM1343 117q75 0 116.5 54.5t41.5 153.5t-41.5 153.5t-116.5 54.5t-116.5 -54.5t-41.5 -153.5t41 -153.5t117 -54.5z" />
    <glyph glyph-name="ampersand" unicode="&#x26;" horiz-adv-x="1457" 
d="M1203 0l-133 144q-93 -81 -214.5 -126t-252.5 -45q-215 0 -351.5 115t-136.5 297q0 252 286 403l56 28q-99 104 -140 181.5t-41 156.5q0 139 105 231t263 92q160 0 264 -91.5t104 -233.5q0 -111 -72.5 -198t-239.5 -175l361 -388q68 136 68 388v25h168v-26
q0 -325 -119 -509l251 -269h-226zM505 682q-210 -109 -210 -285q0 -122 89.5 -197t234.5 -75q99 0 192.5 36.5t152.5 98.5l-408 446q-11 -4 -51 -24zM603 881q132 67 186 127t54 138q0 84 -55 136t-143 52q-86 0 -141.5 -53t-55.5 -137q0 -60 35 -119t120 -144z" />
    <glyph glyph-name="quotesingle" unicode="'" horiz-adv-x="518" 
d="M339 904h-160v539h160v-539z" />
    <glyph glyph-name="parenleft" unicode="(" horiz-adv-x="782" 
d="M242 600q0 530 284 906h146q-107 -138 -180 -396t-73 -510q0 -253 72.5 -511.5t180.5 -395.5h-146q-284 376 -284 907z" />
    <glyph glyph-name="parenright" unicode=")" horiz-adv-x="782" 
d="M540 599q0 -530 -284 -906h-146q107 138 180 396t73 510q0 253 -72.5 511.5t-180.5 395.5h146q284 -376 284 -907z" />
    <glyph glyph-name="asterisk" unicode="*" horiz-adv-x="940" 
d="M756 825l-234 158l16 -279h-136l16 280l-234 -159l-67 116l250 131l-250 132l67 118l234 -163l-16 284h136l-16 -284l234 163l67 -118l-249 -132l249 -131z" />
    <glyph glyph-name="plus" unicode="+" horiz-adv-x="1328" 
d="M745 488v-422h-162v422h-402v162h402v422h162v-422h402v-162h-402z" />
    <glyph glyph-name="comma" unicode="," horiz-adv-x="608" 
d="M271 -367h-129l95 569h191z" />
    <glyph glyph-name="hyphen" unicode="&#x2011;" horiz-adv-x="966" 
d="M811 499h-656v163h656v-163z" />
    <glyph glyph-name="hyphen" unicode="-" horiz-adv-x="966" 
d="M811 499h-656v163h656v-163z" />
    <glyph glyph-name="period" unicode="." horiz-adv-x="608" 
d="M304 -10q-53 0 -91.5 38.5t-38.5 91.5q0 54 38.5 92t91.5 38q54 0 92 -38t38 -92q0 -53 -38 -91.5t-92 -38.5z" />
    <glyph glyph-name="slash" unicode="/" horiz-adv-x="682" 
d="M154 -307h-146l520 1813h146z" />
    <glyph glyph-name="zero" unicode="0" horiz-adv-x="1290" 
d="M646 -34q-244 0 -378 198t-134 558q0 357 135 556t377 199q241 0 375.5 -200t134.5 -558q0 -359 -133.5 -556t-376.5 -197zM646 123q160 0 244.5 154.5t84.5 444.5q0 287 -85.5 442t-243.5 155t-244.5 -155.5t-86.5 -441.5q0 -289 85.5 -444t245.5 -155z" />
    <glyph glyph-name="one" unicode="1" horiz-adv-x="955" 
d="M506 0v1243h-16l-367 -266v190l384 276h179v-1443h-180z" />
    <glyph glyph-name="two" unicode="2" horiz-adv-x="1237" 
d="M152 1036q0 193 133.5 317t340.5 124q190 0 317.5 -115t127.5 -290q0 -124 -68.5 -238.5t-263.5 -316.5l-328 -339v-16h684v-162h-934v124l488 528q144 156 191 232.5t47 168.5q0 117 -74 192t-199 75q-130 0 -209 -78t-79 -206h-174z" />
    <glyph glyph-name="three" unicode="3" horiz-adv-x="1284" 
d="M464 665v154h171q125 0 204.5 72t79.5 184q0 105 -75 175t-202 70q-132 0 -211.5 -65t-90.5 -186h-175q14 181 144.5 294.5t344.5 113.5q104 0 190 -31t142 -84t86 -122t30 -145q-1 -126 -71 -212t-186 -120v-16q143 -23 227 -116.5t84 -241.5q0 -181 -146 -302
t-362 -121q-220 0 -359 111t-149 295h174q12 -114 102 -181.5t230 -67.5q143 0 234 75t91 196q0 125 -88 198t-240 73h-179z" />
    <glyph glyph-name="four" unicode="4" horiz-adv-x="1318" 
d="M820 0v299h-703v164q316 531 618 980h261v-983h205v-161h-205v-299h-176zM301 471v-12h520v817h-12q-270 -404 -508 -805z" />
    <glyph glyph-name="five" unicode="5" horiz-adv-x="1267" 
d="M641 -34q-205 0 -339 115t-146 300h177q12 -116 97.5 -186.5t212.5 -70.5q142 0 228 93t86 245q0 146 -85 236t-222 90q-102 0 -180.5 -44.5t-121.5 -125.5h-169l83 825h801v-161h-660l-45 -470h16q105 131 321 131q186 0 314 -133t128 -343q0 -223 -137.5 -362
t-358.5 -139z" />
    <glyph glyph-name="six" unicode="6" horiz-adv-x="1305" 
d="M671 -33q-244 0 -393.5 188.5t-149.5 541.5q0 369 148.5 574.5t406.5 205.5q195 0 320 -99.5t153 -269.5h-185q-22 100 -97 154.5t-185 54.5q-182 0 -282 -150.5t-104 -441.5h16q53 105 154 163.5t230 58.5q206 0 340 -136.5t134 -346.5q0 -218 -142 -357.5t-364 -139.5z
M669 125q139 0 232.5 95.5t93.5 237.5q0 148 -90.5 240.5t-233.5 92.5t-235.5 -92t-92.5 -235q0 -145 93.5 -242t232.5 -97z" />
    <glyph glyph-name="seven" unicode="7" horiz-adv-x="1167" 
d="M221 0l648 1268v14h-772v161h955v-167l-642 -1276h-189z" />
    <glyph glyph-name="eight" unicode="8" horiz-adv-x="1308" 
d="M654 -34q-229 0 -374.5 117.5t-145.5 302.5q0 141 82 242t218 126v16q-110 30 -175.5 117t-65.5 205q0 169 129.5 277t331.5 108t331.5 -108t129.5 -277q0 -119 -64.5 -205t-176.5 -117v-16q136 -25 218 -126t82 -242q0 -185 -145.5 -302.5t-374.5 -117.5zM654 120
q150 0 244 77.5t94 201.5t-94 201.5t-244 77.5t-244 -77.5t-94 -201.5t94 -201.5t244 -77.5zM654 830q128 0 206 67.5t78 177.5q0 112 -78 180t-206 68t-206 -68t-78 -180q0 -110 78 -177.5t206 -67.5z" />
    <glyph glyph-name="nine" unicode="9" horiz-adv-x="1305" 
d="M622 -33q-184 0 -311.5 99.5t-161.5 269.5h185q28 -97 105.5 -153t184.5 -56q176 0 273.5 152t104.5 440h-16q-53 -105 -154 -163.5t-230 -58.5q-206 0 -340 136.5t-134 346.5q0 218 142 357.5t364 139.5q243 0 393 -187.5t150 -542.5q0 -372 -145 -576t-410 -204z
M634 653q143 0 235.5 92t92.5 235q0 145 -93.5 242t-232.5 97t-232.5 -95.5t-93.5 -237.5q0 -148 90.5 -240.5t233.5 -92.5z" />
    <glyph glyph-name="colon" unicode=":" horiz-adv-x="608" 
d="M304 -10q-53 0 -91.5 38.5t-38.5 91.5q0 54 38.5 92t91.5 38q54 0 92 -38t38 -92q0 -53 -38 -91.5t-92 -38.5zM304 764q-53 0 -91.5 38.5t-38.5 91.5q0 54 38.5 92t91.5 38q54 0 92 -38t38 -92q0 -53 -38 -91.5t-92 -38.5z" />
    <glyph glyph-name="semicolon" unicode=";" horiz-adv-x="608" 
d="M304 764q-53 0 -91.5 38.5t-38.5 91.5q0 54 38.5 92t91.5 38q54 0 92 -38t38 -92q0 -53 -38 -91.5t-92 -38.5zM271 -367h-129l95 569h191z" />
    <glyph glyph-name="less" unicode="&#x3c;" horiz-adv-x="1328" 
d="M1147 901l-759 -322v-9l759 -333v-181l-966 436v152l966 438v-181z" />
    <glyph glyph-name="equal" unicode="=" horiz-adv-x="1328" 
d="M1127 276h-926v154h926v-154zM1127 709h-926v154h926v-154z" />
    <glyph glyph-name="greater" unicode="&#x3e;" horiz-adv-x="1328" 
d="M181 237l759 322v9l-759 333v181l966 -436v-152l-966 -438v181z" />
    <glyph glyph-name="question" unicode="?" horiz-adv-x="1050" 
d="M80 1066q9 171 121.5 279.5t314.5 108.5q187 0 305.5 -103t118.5 -259q0 -219 -209 -345q-94 -56 -128.5 -106t-34.5 -130v-65h-175v92q-1 98 47.5 170t152.5 134q88 54 124.5 108t36.5 133q0 94 -67.5 154.5t-177.5 60.5q-113 0 -181.5 -62t-76.5 -170h-171zM494 -18
q-61 0 -100 39t-39 100t39 100.5t100 39.5t99.5 -39t38.5 -101q0 -61 -38.5 -100t-99.5 -39z" />
    <glyph glyph-name="at" unicode="@" horiz-adv-x="1880" 
d="M934 875q-100 0 -156.5 -74t-56.5 -205q0 -130 56.5 -205t154.5 -75q103 0 164 76t61 204t-60.5 203.5t-162.5 75.5zM969 1435q234 0 416.5 -93t284 -260.5t101.5 -382.5q0 -245 -102 -389t-274 -144q-88 0 -149.5 47t-70.5 121h-16q-32 -76 -97 -117.5t-153 -41.5
q-156 0 -252 117t-96 308q0 182 97 297.5t251 115.5q79 0 142 -38t92 -103h16v122h151v-587q0 -53 29.5 -82t83.5 -29q94 0 150.5 110t56.5 295q0 179 -84.5 317t-238 214.5t-351.5 76.5q-193 0 -346.5 -91t-239.5 -254.5t-86 -368.5q0 -320 191.5 -511t512.5 -191
q103 0 195.5 13t139.5 35v-126q-142 -49 -337 -49q-387 0 -615 226t-228 609q0 183 60.5 338.5t168.5 264.5t261.5 170t335.5 61z" />
    <glyph glyph-name="A" unicode="A" horiz-adv-x="1380" 
d="M1122 0l-145 413h-574l-145 -413h-189l532 1443h178l532 -1443h-189zM682 1210l-226 -644h468l-226 644h-16z" />
    <glyph glyph-name="B" unicode="B" horiz-adv-x="1346" 
d="M747 0h-563v1443h552q198 0 312.5 -97t114.5 -263q0 -112 -72.5 -202t-176.5 -109v-16q148 -19 235 -113.5t87 -237.5q0 -191 -129.5 -298t-359.5 -107zM364 1284v-463h288q329 0 329 231q0 110 -74.5 171t-208.5 61h-334zM364 159h356q163 0 247 65t84 190
q0 252 -348 252h-339v-507z" />
    <glyph glyph-name="C" unicode="C" horiz-adv-x="1466" 
d="M765 -34q-294 0 -465.5 203t-171.5 552t171 552.5t465 203.5q228 0 390 -130t194 -339h-183q-36 140 -144 221.5t-257 81.5q-208 0 -329.5 -159t-121.5 -431t122 -430.5t330 -158.5q151 0 258.5 72.5t141.5 197.5h183q-36 -199 -194.5 -317.5t-388.5 -118.5z" />
    <glyph glyph-name="D" unicode="D" horiz-adv-x="1488" 
d="M184 1443h495q321 0 501 -190.5t180 -530.5q0 -341 -179.5 -531.5t-501.5 -190.5h-495v1443zM364 1281v-1119h303q241 0 375 147t134 411q0 265 -134.5 413t-374.5 148h-303z" />
    <glyph glyph-name="E" unicode="E" horiz-adv-x="1220" 
d="M1078 162v-162h-894v1443h894v-162h-714v-463h677v-160h-677v-496h714z" />
    <glyph glyph-name="F" unicode="F" horiz-adv-x="1172" 
d="M364 0h-180v1443h876v-162h-696v-496h639v-160h-639v-625z" />
    <glyph glyph-name="G" unicode="G" horiz-adv-x="1529" 
d="M1395 558q0 -267 -168 -429.5t-445 -162.5q-299 0 -476.5 205t-177.5 551q0 342 179 548.5t475 206.5q240 0 402.5 -125t201.5 -339h-183q-47 146 -154 222t-267 76q-214 0 -341.5 -160t-127.5 -429q0 -273 126.5 -431.5t343.5 -158.5q194 0 313.5 113t119.5 296v35h-406
v158h585v-176z" />
    <glyph glyph-name="H" unicode="H" horiz-adv-x="1520" 
d="M1336 0h-180v657h-792v-657h-180v1443h180v-624h792v624h180v-1443z" />
    <glyph glyph-name="I" unicode="I" horiz-adv-x="548" 
d="M364 0h-180v1443h180v-1443z" />
    <glyph glyph-name="J" unicode="J" horiz-adv-x="1102" 
d="M86 337h179q3 -91 67 -148t165 -57q116 0 178.5 69.5t62.5 201.5v1040h180v-1041q0 -206 -112 -321t-308 -115q-182 0 -297 103t-115 268z" />
    <glyph glyph-name="K" unicode="&#x212a;" horiz-adv-x="1349" 
d="M364 0h-180v1443h180v-701h16l632 701h226l-577 -623l630 -820h-233l-521 695l-173 -191v-504z" />
    <glyph glyph-name="K" unicode="K" horiz-adv-x="1349" 
d="M364 0h-180v1443h180v-701h16l632 701h226l-577 -623l630 -820h-233l-521 695l-173 -191v-504z" />
    <glyph glyph-name="L" unicode="L" horiz-adv-x="1163" 
d="M1060 162v-162h-876v1443h180v-1281h696z" />
    <glyph glyph-name="M" unicode="M" horiz-adv-x="1790" 
d="M1606 0h-168v1102h-12l-455 -1102h-152l-455 1102h-12v-1102h-168v1443h209l494 -1204h16l494 1204h209v-1443z" />
    <glyph glyph-name="N" unicode="N" horiz-adv-x="1520" 
d="M362 0h-178v1443h175l783 -1123h16v1123h178v-1443h-175l-783 1119h-16v-1119z" />
    <glyph glyph-name="O" unicode="O" horiz-adv-x="1580" 
d="M790 1477q307 0 484.5 -203.5t177.5 -551.5q0 -347 -177 -551.5t-485 -204.5q-309 0 -485.5 204t-176.5 552t178 551.5t484 203.5zM790 1311q-220 0 -348.5 -159t-128.5 -430t127 -430.5t350 -159.5q221 0 349 160t128 430q0 271 -128 430t-349 159z" />
    <glyph glyph-name="P" unicode="P" horiz-adv-x="1301" 
d="M184 1443h545q205 0 333.5 -130.5t128.5 -336.5q0 -202 -130.5 -331.5t-333.5 -129.5h-363v-515h-180v1443zM364 1283v-608h318q154 0 239 79t85 222q0 149 -83.5 228t-240.5 79h-318z" />
    <glyph glyph-name="Q" unicode="Q" horiz-adv-x="1579" 
d="M791 -34q-308 0 -485.5 202t-177.5 553q0 349 178.5 552.5t484.5 203.5q304 0 482 -203.5t178 -552.5q0 -215 -66.5 -378t-189.5 -252l183 -254h-202l-127 173q-117 -44 -258 -44zM792 132q81 0 154 22l-191 259h204l131 -174q85 68 130.5 192.5t45.5 289.5
q0 272 -128 431t-347 159q-221 0 -349.5 -159t-128.5 -431q0 -273 128.5 -431t350.5 -158z" />
    <glyph glyph-name="R" unicode="R" horiz-adv-x="1338" 
d="M364 1283v-552h355q139 0 214.5 71.5t75.5 204.5q0 130 -79 203t-219 73h-347zM364 571v-571h-180v1443h551q209 0 334.5 -117.5t125.5 -312.5q0 -151 -77 -261t-213 -153l334 -599h-211l-309 571h-355z" />
    <glyph glyph-name="S" unicode="S" horiz-adv-x="1305" 
d="M115 377h182q17 -113 117 -180t254 -67q146 0 241.5 70.5t95.5 177.5q0 92 -70 152.5t-219 98.5l-185 48q-196 49 -285 142t-89 247q0 184 140.5 297.5t369.5 113.5q209 0 350 -112t152 -287h-181q-19 111 -105.5 173.5t-221.5 62.5q-144 0 -231.5 -66.5t-87.5 -175.5
q0 -85 64.5 -138t213.5 -91l151 -40q224 -56 321.5 -150t97.5 -253q0 -199 -146 -316.5t-393 -117.5q-229 0 -375.5 112t-160.5 299z" />
    <glyph glyph-name="T" unicode="T" horiz-adv-x="1298" 
d="M739 0h-180v1281h-465v162h1110v-162h-465v-1281z" />
    <glyph glyph-name="U" unicode="U" horiz-adv-x="1510" 
d="M362 1443v-935q0 -167 104.5 -271.5t288.5 -104.5t288.5 104.5t104.5 271.5v935h180v-947q0 -235 -154.5 -382.5t-418.5 -147.5t-418.5 147.5t-154.5 382.5v947h180z" />
    <glyph glyph-name="V" unicode="V" horiz-adv-x="1380" 
d="M779 0h-178l-532 1443h189l424 -1210h16l424 1210h189z" />
    <glyph glyph-name="W" unicode="W" horiz-adv-x="1982" 
d="M985 1139l-332 -1139h-170l-393 1443h188l287 -1173h12l323 1173h182l323 -1173h12l287 1173h188l-393 -1443h-170l-332 1139h-12z" />
    <glyph glyph-name="X" unicode="X" horiz-adv-x="1390" 
d="M90 0l494 726l-488 717h217l380 -574h16l386 574h205l-500 -725l489 -718h-216l-378 569h-16l-385 -569h-204z" />
    <glyph glyph-name="Y" unicode="Y" horiz-adv-x="1344" 
d="M762 0h-180v621l-512 822h205l389 -641h16l389 641h205l-512 -822v-621z" />
    <glyph glyph-name="Z" unicode="Z" horiz-adv-x="1355" 
d="M144 0v128l817 1137v16h-789v162h1022v-128l-813 -1137v-16h830v-162h-1067z" />
    <glyph glyph-name="bracketleft" unicode="[" horiz-adv-x="782" 
d="M268 1506h434v-136h-266v-1541h266v-136h-434v1813z" />
    <glyph glyph-name="backslash" unicode="\" horiz-adv-x="682" 
d="M530 -307l-530 1813h152l530 -1813h-152z" />
    <glyph glyph-name="bracketright" unicode="]" horiz-adv-x="782" 
d="M514 -307h-434v136h266v1541h-266v136h434v-1813z" />
    <glyph glyph-name="asciicircum" unicode="^" horiz-adv-x="940" 
d="M462 1243l-220 -481h-163l292 620h198l292 -620h-163l-220 481h-16z" />
    <glyph glyph-name="underscore" unicode="_" horiz-adv-x="916" 
d="M926 -235h-936v128h936v-128z" />
    <glyph glyph-name="grave" unicode="`" horiz-adv-x="1024" 
d="M552 1228l-231 340h206l177 -340h-152z" />
    <glyph glyph-name="a" unicode="a" horiz-adv-x="1130" 
d="M494 132q133 0 220.5 77t87.5 193v99l-290 -19q-122 -8 -179 -51t-57 -125q0 -81 61 -127.5t157 -46.5zM462 -19q-159 0 -261.5 87.5t-102.5 233.5q0 144 102 226t291 93l311 19v98q0 100 -62 153t-182 53q-97 0 -161 -35t-82 -99h-174q17 129 133.5 208t289.5 79
q196 0 303 -95t107 -264v-738h-164v159h-16q-52 -86 -138 -132t-194 -46z" />
    <glyph glyph-name="b" unicode="b" horiz-adv-x="1258" 
d="M698 -19q-112 0 -203.5 50.5t-142.5 140.5h-16v-172h-164v1506h172v-598h16q44 87 135.5 138t202.5 51q206 0 329 -152t123 -406q0 -253 -123.5 -405.5t-328.5 -152.5zM658 942q-147 0 -232.5 -108t-85.5 -295t85.5 -295t232.5 -108q148 0 231 107t83 296t-83 296
t-231 107z" />
    <glyph glyph-name="c" unicode="c" horiz-adv-x="1146" 
d="M1054 748h-174q-22 85 -94.5 139.5t-183.5 54.5q-145 0 -230.5 -108t-85.5 -291q0 -186 86 -296.5t230 -110.5q109 0 181.5 49t96.5 140h174q-24 -153 -143 -248.5t-308 -95.5q-227 0 -361 152.5t-134 409.5q0 252 134 403t360 151q189 0 308.5 -99t143.5 -250z" />
    <glyph glyph-name="d" unicode="d" horiz-adv-x="1258" 
d="M561 -19q-207 0 -330 152t-123 406q0 253 123.5 405.5t329.5 152.5q113 0 202.5 -50.5t135.5 -138.5h15v598h172v-1506h-164v172h-16q-51 -90 -142 -140.5t-203 -50.5zM601 942q-147 0 -231 -107.5t-84 -295.5q0 -189 83.5 -296t231.5 -107q147 0 232 108t85 295
q0 185 -85.5 294t-231.5 109z" />
    <glyph glyph-name="e" unicode="e" horiz-adv-x="1170" 
d="M592 945q-129 0 -212 -87t-93 -230h594q-3 143 -82 230t-207 87zM876 279h172q-38 -139 -158 -218.5t-296 -79.5q-224 0 -355 150.5t-131 406.5q0 255 132 407t354 152q218 0 343 -145t125 -397v-66h-775v-8q7 -160 90.5 -254t220.5 -94q209 0 278 146z" />
    <glyph glyph-name="f" unicode="f" horiz-adv-x="741" 
d="M234 0v934h-179v144h179v120q0 318 313 318q65 0 116 -10v-140q-26 5 -81 5q-92 0 -134 -44t-42 -134v-115h247v-144h-247v-934h-172z" />
    <glyph glyph-name="g" unicode="g" horiz-adv-x="1248" 
d="M598 168q149 0 234.5 105t85.5 282t-86 282t-234 105t-230 -104t-82 -283t82 -283t230 -104zM606 -414q-193 0 -312.5 80t-139.5 215h182q14 -67 85 -106t185 -39q145 0 226.5 67.5t81.5 186.5v212h-16q-51 -89 -139 -137.5t-199 -48.5q-208 0 -330 147.5t-122 391.5
t123 393t329 149q113 0 206 -51.5t140 -138.5h16v171h164v-1097q0 -181 -130 -288t-350 -107z" />
    <glyph glyph-name="h" unicode="h" horiz-adv-x="1216" 
d="M172 0v1506h172v-598h16q41 91 125.5 140t206.5 49q172 0 272 -105.5t100 -293.5v-698h-172v656q0 286 -249 286q-142 0 -220.5 -82.5t-78.5 -221.5v-638h-172z" />
    <glyph glyph-name="i" unicode="i" horiz-adv-x="504" 
d="M166 0v1078h172v-1078h-172zM252 1286q-50 0 -85 35t-35 85t35 85t85 35t85 -35t35 -85t-35 -85t-85 -35z" />
    <glyph glyph-name="j" unicode="j" horiz-adv-x="504" 
d="M338 1078v-1131q0 -166 -80 -241.5t-250 -75.5h-30v147h26q90 0 126 38t36 129v1134h172zM254 1286q-50 0 -85 35t-35 85t35 85t85 35t85 -35t35 -85t-35 -85t-85 -35z" />
    <glyph glyph-name="k" unicode="k" horiz-adv-x="1112" 
d="M360 607l468 471h211l-464 -462l495 -616h-219l-404 505l-103 -96v-409h-172v1506h172v-899h16z" />
    <glyph glyph-name="l" unicode="l" horiz-adv-x="516" 
d="M172 0v1506h172v-1506h-172z" />
    <glyph glyph-name="m" unicode="m" horiz-adv-x="1782" 
d="M162 0v1078h164v-170h16q37 90 115 139.5t186 49.5q106 0 182.5 -51t115.5 -138h16q44 87 132 138t198 51q165 0 254 -91.5t89 -260.5v-745h-172v705q0 237 -227 237q-110 0 -180 -72t-70 -177v-693h-172v732q0 96 -61.5 153t-163.5 57q-105 0 -177.5 -80t-72.5 -194
v-668h-172z" />
    <glyph glyph-name="n" unicode="n" horiz-adv-x="1195" 
d="M162 0v1078h164v-170h16q86 189 324 189q181 0 279 -103.5t98 -295.5v-698h-172v656q0 145 -62.5 215.5t-191.5 70.5q-130 0 -206.5 -81.5t-76.5 -222.5v-638h-172z" />
    <glyph glyph-name="o" unicode="o" horiz-adv-x="1210" 
d="M605 -19q-230 0 -363.5 149.5t-133.5 408.5q0 260 133 409t364 149t364 -149t133 -409q0 -259 -133.5 -408.5t-363.5 -149.5zM605 136q153 0 236 105.5t83 297.5t-83 297.5t-236 105.5t-236 -105.5t-83 -297.5t83 -297.5t236 -105.5z" />
    <glyph glyph-name="p" unicode="p" horiz-adv-x="1248" 
d="M687 1097q206 0 329.5 -152t123.5 -406q0 -253 -124 -405.5t-329 -152.5q-115 0 -204 47.5t-133 133.5h-16v-522h-172v1438h164v-180h16q52 93 143.5 146t201.5 53zM646 136q148 0 232 107t84 296t-83.5 296t-231.5 107q-146 0 -232 -108.5t-86 -294.5q0 -185 85.5 -294
t231.5 -109z" />
    <glyph glyph-name="q" unicode="q" horiz-adv-x="1248" 
d="M559 1097q110 0 203.5 -54t141.5 -145h16v180h166v-1438h-174v522h-16q-106 -181 -337 -181q-206 0 -328.5 151.5t-122.5 406.5q0 253 123 405.5t328 152.5zM598 136q148 0 233.5 108.5t85.5 294.5q0 185 -86 294t-232 109q-147 0 -230 -107t-83 -296q0 -190 82.5 -296.5
t229.5 -106.5z" />
    <glyph glyph-name="r" unicode="r" horiz-adv-x="780" 
d="M162 0v1078h164v-160h16q24 79 108 129t191 50q49 0 86 -5v-172q-35 10 -110 10q-123 0 -203 -74t-80 -188v-668h-172z" />
    <glyph glyph-name="s" unicode="s" horiz-adv-x="1072" 
d="M137 783q0 134 115 224t287 90q169 0 279 -78t127 -211h-170q-18 66 -79.5 104.5t-157.5 38.5q-97 0 -162.5 -45t-65.5 -116q0 -55 45.5 -91.5t141.5 -59.5l166 -40q154 -37 227.5 -107t73.5 -185q0 -143 -123 -234.5t-309 -91.5q-180 0 -295 80t-129 214h177
q22 -70 87 -109.5t166 -39.5q109 0 179 47t70 121q0 110 -171 152l-185 45q-153 37 -223.5 106.5t-70.5 185.5z" />
    <glyph glyph-name="t" unicode="t" horiz-adv-x="744" 
d="M234 1357h172v-279h240v-144h-240v-610q0 -95 38 -138t122 -43q37 0 80 4v-145q-57 -10 -101 -10q-167 0 -239 67t-72 221v654h-174v144h174v279z" />
    <glyph glyph-name="u" unicode="u" horiz-adv-x="1196" 
d="M1034 1078v-1078h-164v169h-16q-41 -91 -126 -139.5t-208 -48.5q-180 0 -274 103t-94 296v698h172v-656q0 -147 58 -215.5t186 -68.5q141 0 217.5 79.5t76.5 222.5v638h172z" />
    <glyph glyph-name="v" unicode="v" horiz-adv-x="1110" 
d="M1042 1078l-399 -1078h-176l-399 1078h184l295 -888h16l295 888h184z" />
    <glyph glyph-name="w" unicode="w" horiz-adv-x="1586" 
d="M1518 1078l-302 -1078h-175l-241 834h-16l-240 -834h-174l-302 1078h174l212 -862h16l241 862h165l241 -862h16l212 862h173z" />
    <glyph glyph-name="x" unicode="x" horiz-adv-x="1074" 
d="M543 404h-16l-256 -407h-195l369 539l-373 539h205l256 -401h16l253 401h195l-366 -532l371 -546h-204z" />
    <glyph glyph-name="y" unicode="y" horiz-adv-x="1112" 
d="M254 -390q-41 0 -77 6v147q26 -5 72 -5q75 0 119.5 40t78.5 137l20 64l-399 1079h186l296 -887h16l295 887h183l-421 -1144q-69 -187 -147 -255.5t-222 -68.5z" />
    <glyph glyph-name="z" unicode="z" horiz-adv-x="1104" 
d="M137 0v126l622 792v16h-621v144h826v-129l-619 -789v-16h622v-144h-830z" />
    <glyph glyph-name="braceleft" unicode="{" horiz-adv-x="782" 
d="M245 588q219 -22 219 -234v-295q0 -120 46 -172.5t152 -52.5h40v-141h-55q-177 0 -262 84.5t-85 259.5v255q0 120 -48 166.5t-172 46.5v190q124 0 172 46.5t48 166.5v254q0 175 85 259.5t262 84.5h55v-141h-40q-106 0 -152 -52.5t-46 -172.5v-294q0 -212 -219 -234v-24z
" />
    <glyph glyph-name="bar" unicode="|" horiz-adv-x="682" 
d="M414 -307h-146v1813h146v-1813z" />
    <glyph glyph-name="braceright" unicode="}" horiz-adv-x="782" 
d="M537 611q-219 22 -219 234v295q0 120 -46 172.5t-152 52.5h-40v141h55q177 0 262 -84.5t85 -259.5v-255q0 -120 48 -166.5t172 -46.5v-190q-124 0 -172 -46.5t-48 -166.5v-254q0 -175 -85 -259.5t-262 -84.5h-55v141h40q106 0 152 52.5t46 172.5v294q0 212 219 234v24z
" />
    <glyph glyph-name="asciitilde" unicode="~" horiz-adv-x="1328" 
d="M880 380q-76 0 -133.5 30.5t-149.5 112.5q-49 43 -81 60t-66 17q-125 0 -136 -179h-155q0 88 24.5 155t66.5 106t92.5 58.5t106.5 19.5q75 0 136 -33t145 -110q50 -46 82 -61.5t66 -15.5q125 0 136 179h155q0 -88 -24.5 -155t-66.5 -106t-92 -58.5t-106 -19.5z" />
    <glyph glyph-name="nonbreakingspace" unicode="&#xa0;" horiz-adv-x="578" 
 />
    <glyph glyph-name="exclamdown" unicode="&#xa1;" horiz-adv-x="637" 
d="M218 -342l17 964h166l17 -964h-200zM319 841q-61 0 -100 39.5t-39 100.5t39 100t100 39t99.5 -39t38.5 -100q0 -62 -38.5 -101t-99.5 -39z" />
    <glyph glyph-name="cent" unicode="&#xa2;" horiz-adv-x="1328" 
d="M631 333v778q-121 -22 -191 -123.5t-70 -265.5q0 -167 70 -267t191 -122zM989 537h171q-20 -149 -131.5 -247.5t-277.5 -113.5v-176h-120v178q-201 21 -319.5 165.5t-118.5 378.5q0 230 119 376.5t319 168.5v175h120v-174q174 -16 282 -120.5t125 -246.5h-170
q-18 85 -78.5 142.5t-158.5 70.5v-784q95 11 156.5 64t81.5 143z" />
    <glyph glyph-name="sterling" unicode="&#xa3;" horiz-adv-x="1328" 
d="M404 154h786v-154h-1062v152q133 30 220.5 129.5t87.5 219.5q0 71 -25 156h-283v136h236q-63 173 -63 267q0 196 137.5 306.5t379.5 110.5q187 0 300 -53v-160q-38 22 -121.5 38t-169.5 16q-161 0 -251.5 -67.5t-90.5 -186.5q0 -99 62 -271h469v-136h-425q22 -83 22 -149
q0 -117 -59 -205t-150 -135v-14z" />
    <glyph glyph-name="currency" unicode="&#xa4;" horiz-adv-x="1328" 
d="M401 656q0 -109 77.5 -186.5t186.5 -77.5t186.5 77.5t77.5 186.5t-77.5 186.5t-186.5 77.5t-186.5 -77.5t-77.5 -186.5zM1157 1043l-168 -169q67 -99 67 -218q0 -121 -68 -219l169 -169l-106 -106l-169 169q-97 -66 -217 -66q-119 0 -219 67l-169 -170l-106 106l170 170
q-67 100 -67 218t67 217l-170 170l106 106l169 -169q101 67 219 67q119 0 218 -67l168 169z" />
    <glyph glyph-name="yen" unicode="&#xa5;" horiz-adv-x="1328" 
d="M1254 1422l-443 -723h282v-120h-341v-160h341v-120h-341v-299h-176v299h-341v120h341v160h-341v120h282l-443 723h203l384 -658h6l384 658h203z" />
    <glyph glyph-name="brokenbar" unicode="&#xa6;" horiz-adv-x="682" 
d="M414 781h-146v725h146v-725zM414 -307h-146v725h146v-725z" />
    <glyph glyph-name="section" unicode="&#xa7;" horiz-adv-x="1224" 
d="M547 433l83 -18q97 0 162.5 58t65.5 144q0 68 -45 113.5t-130 64.5l-83 18q-97 0 -165.5 -59t-68.5 -143q0 -65 47.5 -112t133.5 -66zM617 -254q-176 0 -292.5 87t-126.5 226h176q10 -75 80 -121t172 -46q107 0 173 49.5t66 128.5q0 59 -50 100t-158 70l-141 38
q-169 46 -248 118.5t-79 180.5q0 98 62.5 169.5t175.5 103.5v16q-229 89 -229 283q0 146 113.5 237t297.5 91q171 0 281 -80.5t127 -218.5h-173q-11 70 -75.5 111.5t-163.5 41.5q-105 0 -169.5 -47.5t-64.5 -124.5q0 -60 48.5 -101t156.5 -70l141 -38q164 -44 241 -115
t77 -176q0 -106 -73.5 -188.5t-190.5 -105.5v-16q264 -59 264 -267q0 -148 -117 -242t-301 -94z" />
    <glyph glyph-name="dieresis" unicode="&#xa8;" horiz-adv-x="1024" 
d="M295 1286q-49 0 -84.5 35t-35.5 85t35.5 85t84.5 35t84.5 -35t35.5 -85t-35.5 -85t-84.5 -35zM729 1286q-49 0 -84.5 35t-35.5 85t35.5 85t84.5 35t84.5 -35t35.5 -85t-35.5 -85t-84.5 -35z" />
    <glyph glyph-name="copyright" unicode="&#xa9;" horiz-adv-x="1742" 
d="M871 -168q-165 0 -312.5 61.5t-252.5 167t-166.5 252.5t-61.5 313q0 222 104 404t286 286t403 104q166 0 313.5 -61t252.5 -166.5t166 -253t61 -313.5q0 -222 -104 -404t-286 -286t-403 -104zM871 -28q137 0 258 50.5t207.5 137t136.5 208t50 258.5q0 183 -85 333
t-234.5 235.5t-332.5 85.5q-137 0 -258 -50.5t-207.5 -137t-136.5 -208t-50 -258.5t50.5 -258t137 -208t207.5 -137.5t257 -50.5zM1249 768h-139q-18 71 -78.5 113.5t-143.5 42.5q-116 0 -184.5 -80t-68.5 -216q0 -138 68.5 -219t184.5 -81q88 0 146 39.5t76 111.5h139
q-19 -126 -116.5 -200.5t-243.5 -74.5q-181 0 -288.5 115t-107.5 309q0 192 107 306t288 114q143 0 242 -77t119 -203z" />
    <glyph glyph-name="a.sups" unicode="&#xaa;" horiz-adv-x="806" 
d="M356 843q84 0 140 44t56 110v60l-185 -12q-151 -9 -151 -101q0 -47 39 -74t101 -27zM319 721q-110 0 -180.5 59t-70.5 156q0 96 72.5 151.5t207.5 63.5l204 11v62q0 56 -39.5 86t-115.5 30q-63 0 -104 -20.5t-54 -58.5h-142q11 93 95 148.5t211 55.5q141 0 218 -63.5
t77 -177.5v-491h-141v100h-12q-34 -53 -93 -82.5t-133 -29.5z" />
    <glyph glyph-name="guillemotleft" unicode="&#xab;" horiz-adv-x="1395" 
d="M382 573v-16l351 -412h-204l-350 416v8l350 416h204zM865 573v-16l351 -412h-204l-350 416v8l350 416h204z" />
    <glyph glyph-name="logicalnot" unicode="&#xac;" horiz-adv-x="1328" 
d="M1122 651v-585h-162v423h-754v162h916z" />
    <glyph glyph-name="registered" unicode="&#xae;" horiz-adv-x="1260" 
d="M630 449q-218 0 -370 152t-152 370q0 144 69.5 264t189.5 189t263 69q108 0 204.5 -41t166 -110.5t110.5 -166t41 -204.5q0 -143 -69 -263t-189 -189.5t-264 -69.5zM630 553q175 0 296.5 121.5t121.5 296.5t-121 296.5t-297 121.5q-175 0 -296.5 -121.5t-121.5 -296.5
t121.5 -296.5t296.5 -121.5zM527 733h-98v499h249q75 0 124.5 -43.5t49.5 -109.5q0 -122 -116 -150l138 -196h-120l-129 183h-98v-183zM527 1143v-143h124q92 0 92 74q0 69 -89 69h-127z" />
    <glyph glyph-name="macron" unicode="&#xaf;" horiz-adv-x="1024" 
d="M839 1472v-136h-654v136h654z" />
    <glyph glyph-name="degree" unicode="&#xb0;" horiz-adv-x="940" 
d="M470 742q-142 0 -236 95.5t-94 234.5t94 234.5t236 95.5t236 -95.5t94 -234.5t-94 -234.5t-236 -95.5zM470 882q80 0 130 55t50 135q0 81 -50 135.5t-130 54.5q-81 0 -130.5 -54.5t-49.5 -135.5q0 -80 49.5 -135t130.5 -55z" />
    <glyph glyph-name="plusminus" unicode="&#xb1;" horiz-adv-x="1328" 
d="M1173 66h-1017v149h1017v-149zM739 628v-295h-149v295h-434v149h434v295h149v-295h434v-149h-434z" />
    <glyph glyph-name="two.sups" unicode="&#xb2;" horiz-adv-x="812" 
d="M95 1336q0 123 88.5 201t228.5 78q131 0 214.5 -70t83.5 -179q0 -75 -42.5 -140t-159.5 -171l-196 -177v-10h411v-135h-620v111l312 296q86 82 114 123t28 88q0 58 -41.5 95.5t-112.5 37.5q-74 0 -119 -41t-45 -107h-144z" />
    <glyph glyph-name="three.sups" unicode="&#xb3;" horiz-adv-x="839" 
d="M306 1114v121h110q71 0 115.5 35.5t44.5 91.5q0 53 -42.5 88t-114.5 35q-75 0 -119.5 -34t-50.5 -96h-144q7 117 93.5 188.5t229.5 71.5q137 0 217 -66.5t80 -164.5q-1 -76 -45.5 -126.5t-118.5 -69.5v-11q92 -13 145 -68t53 -142q0 -111 -95.5 -183.5t-240.5 -72.5
q-146 0 -237.5 72t-97.5 190h147q5 -58 55.5 -92.5t130.5 -34.5q81 0 131.5 37t50.5 97q0 62 -49.5 98t-134.5 36h-113z" />
    <glyph glyph-name="acute" unicode="&#xb4;" horiz-adv-x="1024" 
d="M473 1228h-152l177 340h206z" />
    <glyph glyph-name="mugreek" unicode="&#x3bc;" horiz-adv-x="1258" 
d="M162 -360v1438h172v-654q0 -286 244 -286q130 0 207 81t77 221v638h172v-809q0 -73 22 -100.5t78 -27.5q25 0 49 4v-145q-37 -10 -82 -10q-111 0 -162 37.5t-67 130.5l-2 12h-16q-43 -96 -110.5 -142.5t-173.5 -46.5q-160 0 -220 129h-16v-470h-172z" />
    <glyph glyph-name="mugreek" unicode="&#xb5;" horiz-adv-x="1258" 
d="M162 -360v1438h172v-654q0 -286 244 -286q130 0 207 81t77 221v638h172v-809q0 -73 22 -100.5t78 -27.5q25 0 49 4v-145q-37 -10 -82 -10q-111 0 -162 37.5t-67 130.5l-2 12h-16q-43 -96 -110.5 -142.5t-173.5 -46.5q-160 0 -220 129h-16v-470h-172z" />
    <glyph glyph-name="paragraph" unicode="&#xb6;" horiz-adv-x="1224" 
d="M728 -220h-160v834h-19q-193 0 -323 116t-130 292q0 182 130.5 301.5t323.5 119.5h178v-1663zM880 -220v1663h160v-1663h-160z" />
    <glyph glyph-name="periodcentered" unicode="&#xb7;" horiz-adv-x="608" 
d="M304 409q-53 0 -91.5 38.5t-38.5 91.5q0 54 38.5 92t91.5 38q54 0 92 -38t38 -92q0 -53 -38 -91.5t-92 -38.5z" />
    <glyph glyph-name="cedilla" unicode="&#xb8;" horiz-adv-x="1024" 
d="M382 -240v90l97 172h131v-22l-78 -132q103 0 163 -43t60 -120q0 -67 -37.5 -112t-93.5 -63.5t-128 -18.5q-65 0 -145 18v116q52 -13 113 -13q54 0 91 16t37 51t-35.5 48t-113.5 13h-61z" />
    <glyph glyph-name="one.sups" unicode="&#xb9;" horiz-adv-x="634" 
d="M313 733v700h-11l-225 -149v153l237 156h152v-860h-153z" />
    <glyph glyph-name="o.sups" unicode="&#xba;" horiz-adv-x="859" 
d="M429 719q-165 0 -259.5 99.5t-94.5 273.5t95 273.5t259 99.5q165 0 260 -99.5t95 -273.5t-95 -273.5t-260 -99.5zM429 848q97 0 150 64t53 180t-53 180t-150 64t-150 -64t-53 -180t53 -180t150 -64z" />
    <glyph glyph-name="guillemotright" unicode="&#xbb;" horiz-adv-x="1395" 
d="M1013 557v16l-351 412h204l350 -416v-8l-350 -416h-204zM530 557v16l-351 412h204l350 -416v-8l-350 -416h-204z" />
    <glyph glyph-name="onequarter" unicode="&#xbc;" horiz-adv-x="1874" 
d="M313 583v700h-11l-225 -149v153l237 156h152v-860h-153zM479 0h-163l997 1443h163zM1530 0v162h-441v132q157 258 371 566h217v-564h123v-134h-123v-162h-147zM1233 301v-9h300v439h-9q-175 -246 -291 -430z" />
    <glyph glyph-name="onehalf" unicode="&#xbd;" horiz-adv-x="1939" 
d="M313 583v700h-11l-225 -149v153l237 156h152v-860h-153zM479 0h-163l997 1443h163zM1222 603q0 123 88.5 201t228.5 78q131 0 214.5 -70t83.5 -179q0 -75 -42.5 -140t-159.5 -171l-196 -177v-10h411v-135h-620v111l312 296q86 82 114 123t28 88q0 58 -41.5 95.5
t-112.5 37.5q-74 0 -119 -41t-45 -107h-144z" />
    <glyph glyph-name="threequarters" unicode="&#xbe;" horiz-adv-x="2079" 
d="M306 964v121h110q71 0 115.5 35.5t44.5 91.5q0 53 -42.5 88t-114.5 35q-75 0 -119.5 -34t-50.5 -96h-144q7 117 93.5 188.5t229.5 71.5q137 0 217 -66.5t80 -164.5q-1 -76 -45.5 -126.5t-118.5 -69.5v-11q92 -13 145 -68t53 -142q0 -111 -95.5 -183.5t-240.5 -72.5
q-146 0 -237.5 72t-97.5 190h147q5 -58 55.5 -92.5t130.5 -34.5q81 0 131.5 37t50.5 97q0 62 -49.5 98t-134.5 36h-113zM684 0h-163l997 1443h163zM1735 0v162h-441v132q157 258 371 566h217v-564h123v-134h-123v-162h-147zM1438 301v-9h300v439h-9q-175 -246 -291 -430z
" />
    <glyph glyph-name="questiondown" unicode="&#xbf;" horiz-adv-x="1050" 
d="M970 35q-8 -171 -121 -280t-314 -109q-188 0 -306.5 103t-118.5 261q0 216 209 343q94 56 128 106t34 130v65h175v-92q1 -98 -46.5 -169.5t-152.5 -134.5q-87 -54 -124 -107.5t-37 -131.5q0 -96 67.5 -156.5t178.5 -60.5q112 0 180.5 62.5t76.5 170.5h171zM557 840
q-61 0 -100 39t-39 100q0 60 39.5 100t99.5 40t99 -40t39 -100q0 -61 -38.5 -100t-99.5 -39z" />
    <glyph glyph-name="Agrave" unicode="&#xc0;" horiz-adv-x="1380" 
d="M1122 0l-145 413h-574l-145 -413h-189l532 1443h178l532 -1443h-189zM682 1210l-226 -644h468l-226 644h-16zM607 1575l-241 298h216l177 -298h-152z" />
    <glyph glyph-name="Aacute" unicode="&#xc1;" horiz-adv-x="1380" 
d="M1122 0l-145 413h-574l-145 -413h-189l532 1443h178l532 -1443h-189zM682 1210l-226 -644h468l-226 644h-16zM773 1575h-152l177 298h216z" />
    <glyph glyph-name="Acircumflex" unicode="&#xc2;" horiz-adv-x="1380" 
d="M1122 0l-145 413h-574l-145 -413h-189l532 1443h178l532 -1443h-189zM682 1210l-226 -644h468l-226 644h-16zM608 1873h164l300 -298h-202l-172 177h-16l-172 -177h-202z" />
    <glyph glyph-name="Atilde" unicode="&#xc3;" horiz-adv-x="1380" 
d="M1122 0l-145 413h-574l-145 -413h-189l532 1443h178l532 -1443h-189zM682 1210l-226 -644h468l-226 644h-16zM814 1580q-45 0 -79.5 15.5t-55.5 37.5t-38 44t-38 37.5t-45 15.5q-76 0 -76 -154h-142q0 137 57.5 212.5t163.5 75.5q45 0 80 -16t56.5 -39t40 -46.5
t39.5 -39.5t45 -16q40 0 58 37.5t18 122.5h142q0 -137 -59 -212t-167 -75z" />
    <glyph glyph-name="Adieresis" unicode="&#xc4;" horiz-adv-x="1380" 
d="M1122 0l-145 413h-574l-145 -413h-189l532 1443h178l532 -1443h-189zM682 1210l-226 -644h468l-226 644h-16zM473 1631q-49 0 -84.5 35.5t-35.5 84.5t35.5 84.5t84.5 35.5t84.5 -35.5t35.5 -84.5t-35.5 -84.5t-84.5 -35.5zM907 1631q-49 0 -84.5 35.5t-35.5 84.5
t35.5 84.5t84.5 35.5t84.5 -35.5t35.5 -84.5t-35.5 -84.5t-84.5 -35.5z" />
    <glyph glyph-name="Aring" unicode="&#x212b;" horiz-adv-x="1380" 
d="M1122 0l-145 413h-574l-145 -413h-189l532 1443h178l532 -1443h-189zM682 1210l-226 -644h468l-226 644h-16zM690 1551q-83 0 -141 57t-58 140t58 140t141 57t141 -57t58 -140t-58 -140t-141 -57zM690 1643q46 0 75.5 30t29.5 75q0 46 -29.5 75.5t-75.5 29.5t-75.5 -29.5
t-29.5 -75.5q0 -45 29.5 -75t75.5 -30z" />
    <glyph glyph-name="Aring" unicode="&#xc5;" horiz-adv-x="1380" 
d="M1122 0l-145 413h-574l-145 -413h-189l532 1443h178l532 -1443h-189zM682 1210l-226 -644h468l-226 644h-16zM690 1551q-83 0 -141 57t-58 140t58 140t141 57t141 -57t58 -140t-58 -140t-141 -57zM690 1643q46 0 75.5 30t29.5 75q0 46 -29.5 75.5t-75.5 29.5t-75.5 -29.5
t-29.5 -75.5q0 -45 29.5 -75t75.5 -30z" />
    <glyph glyph-name="AE" unicode="&#xc6;" horiz-adv-x="1966" 
d="M839 1292l-310 -680h457v680h-147zM986 0v459h-527l-209 -459h-181l651 1443h1104v-162h-658v-473h621v-160h-621v-486h658v-162h-838z" />
    <glyph glyph-name="Ccedilla" unicode="&#xc7;" horiz-adv-x="1466" 
d="M1348 1008h-183q-36 140 -144 221.5t-257 81.5q-208 0 -329.5 -159t-121.5 -431t122 -430.5t330 -158.5q151 0 258.5 72.5t141.5 197.5h183q-33 -181 -168 -296.5t-336 -135.5l-60 -102q103 0 163 -43t60 -120q0 -67 -37.5 -112t-93.5 -63.5t-128 -18.5q-65 0 -145 18
v116q52 -13 113 -13q54 0 91 16t37 51t-35.5 48t-113.5 13h-61v90l67 119q-267 23 -420 223t-153 529q0 349 171 552.5t465 203.5q228 0 390 -130t194 -339z" />
    <glyph glyph-name="Egrave" unicode="&#xc8;" horiz-adv-x="1220" 
d="M1078 162v-162h-894v1443h894v-162h-714v-463h677v-160h-677v-496h714zM548 1575l-241 298h216l177 -298h-152z" />
    <glyph glyph-name="Eacute" unicode="&#xc9;" horiz-adv-x="1220" 
d="M1078 162v-162h-894v1443h894v-162h-714v-463h677v-160h-677v-496h714zM714 1575h-152l177 298h216z" />
    <glyph glyph-name="Ecircumflex" unicode="&#xca;" horiz-adv-x="1220" 
d="M1078 162v-162h-894v1443h894v-162h-714v-463h677v-160h-677v-496h714zM549 1873h164l300 -298h-202l-172 177h-16l-172 -177h-202z" />
    <glyph glyph-name="Edieresis" unicode="&#xcb;" horiz-adv-x="1220" 
d="M1078 162v-162h-894v1443h894v-162h-714v-463h677v-160h-677v-496h714zM414 1631q-50 0 -85 35.5t-35 84.5t35 84.5t85 35.5t85 -35.5t35 -84.5t-35 -84.5t-85 -35.5zM848 1631q-50 0 -85 35.5t-35 84.5t35 84.5t85 35.5t85 -35.5t35 -84.5t-35 -84.5t-85 -35.5z" />
    <glyph glyph-name="Igrave" unicode="&#xcc;" horiz-adv-x="548" 
d="M364 0h-180v1443h180v-1443zM191 1575l-241 298h216l177 -298h-152z" />
    <glyph glyph-name="Iacute" unicode="&#xcd;" horiz-adv-x="548" 
d="M364 0h-180v1443h180v-1443zM357 1575h-152l177 298h216z" />
    <glyph glyph-name="Icircumflex" unicode="&#xce;" horiz-adv-x="548" 
d="M364 0h-180v1443h180v-1443zM192 1873h164l300 -298h-202l-172 177h-16l-172 -177h-202z" />
    <glyph glyph-name="Idieresis" unicode="&#xcf;" horiz-adv-x="548" 
d="M364 0h-180v1443h180v-1443zM57 1631q-49 0 -84.5 35.5t-35.5 84.5t35.5 84.5t84.5 35.5t84.5 -35.5t35.5 -84.5t-35.5 -84.5t-84.5 -35.5zM491 1631q-49 0 -84.5 35.5t-35.5 84.5t35.5 84.5t84.5 35.5t84.5 -35.5t35.5 -84.5t-35.5 -84.5t-84.5 -35.5z" />
    <glyph glyph-name="Eth" unicode="&#xd0;" horiz-adv-x="1488" 
d="M364 162h303q241 0 375 147t134 411q0 265 -134.5 413t-374.5 148h-303v-456h309v-162h-309v-501zM184 1443h495q321 0 501 -190.5t180 -530.5q0 -341 -179.5 -531.5t-501.5 -190.5h-495v663h-158v162h158v618z" />
    <glyph glyph-name="Ntilde" unicode="&#xd1;" horiz-adv-x="1520" 
d="M362 0h-178v1443h175l783 -1123h16v1123h178v-1443h-175l-783 1119h-16v-1119zM884 1580q-45 0 -79.5 15.5t-55.5 37.5t-38 44t-38 37.5t-45 15.5q-76 0 -76 -154h-142q0 137 57.5 212.5t163.5 75.5q45 0 80 -16t56.5 -39t40 -46.5t39.5 -39.5t45 -16q40 0 58 37.5
t18 122.5h142q0 -137 -59 -212t-167 -75z" />
    <glyph glyph-name="Ograve" unicode="&#xd2;" horiz-adv-x="1580" 
d="M790 1477q307 0 484.5 -203.5t177.5 -551.5q0 -347 -177 -551.5t-485 -204.5q-309 0 -485.5 204t-176.5 552t178 551.5t484 203.5zM790 1311q-220 0 -348.5 -159t-128.5 -430t127 -430.5t350 -159.5q221 0 349 160t128 430q0 271 -128 430t-349 159zM707 1575l-241 298
h216l177 -298h-152z" />
    <glyph glyph-name="Oacute" unicode="&#xd3;" horiz-adv-x="1580" 
d="M790 1477q307 0 484.5 -203.5t177.5 -551.5q0 -347 -177 -551.5t-485 -204.5q-309 0 -485.5 204t-176.5 552t178 551.5t484 203.5zM790 1311q-220 0 -348.5 -159t-128.5 -430t127 -430.5t350 -159.5q221 0 349 160t128 430q0 271 -128 430t-349 159zM873 1575h-152
l177 298h216z" />
    <glyph glyph-name="Ocircumflex" unicode="&#xd4;" horiz-adv-x="1580" 
d="M790 1477q307 0 484.5 -203.5t177.5 -551.5q0 -347 -177 -551.5t-485 -204.5q-309 0 -485.5 204t-176.5 552t178 551.5t484 203.5zM790 1311q-220 0 -348.5 -159t-128.5 -430t127 -430.5t350 -159.5q221 0 349 160t128 430q0 271 -128 430t-349 159zM708 1873h164
l300 -298h-202l-172 177h-16l-172 -177h-202z" />
    <glyph glyph-name="Otilde" unicode="&#xd5;" horiz-adv-x="1580" 
d="M790 1477q307 0 484.5 -203.5t177.5 -551.5q0 -347 -177 -551.5t-485 -204.5q-309 0 -485.5 204t-176.5 552t178 551.5t484 203.5zM790 1311q-220 0 -348.5 -159t-128.5 -430t127 -430.5t350 -159.5q221 0 349 160t128 430q0 271 -128 430t-349 159zM914 1580
q-45 0 -79.5 15.5t-55.5 37.5t-38 44t-38 37.5t-45 15.5q-76 0 -76 -154h-142q0 137 57.5 212.5t163.5 75.5q45 0 80 -16t56.5 -39t40 -46.5t39.5 -39.5t45 -16q40 0 58 37.5t18 122.5h142q0 -137 -59 -212t-167 -75z" />
    <glyph glyph-name="Odieresis" unicode="&#xd6;" horiz-adv-x="1580" 
d="M790 1477q307 0 484.5 -203.5t177.5 -551.5q0 -347 -177 -551.5t-485 -204.5q-309 0 -485.5 204t-176.5 552t178 551.5t484 203.5zM790 1311q-220 0 -348.5 -159t-128.5 -430t127 -430.5t350 -159.5q221 0 349 160t128 430q0 271 -128 430t-349 159zM573 1631
q-49 0 -84.5 35.5t-35.5 84.5t35.5 84.5t84.5 35.5t84.5 -35.5t35.5 -84.5t-35.5 -84.5t-84.5 -35.5zM1007 1631q-49 0 -84.5 35.5t-35.5 84.5t35.5 84.5t84.5 35.5t84.5 -35.5t35.5 -84.5t-35.5 -84.5t-84.5 -35.5z" />
    <glyph glyph-name="multiply" unicode="&#xd7;" horiz-adv-x="1328" 
d="M664 464l-342 -342l-104 104l341 343l-341 343l104 104l342 -342l342 342l104 -104l-341 -343l341 -343l-104 -104z" />
    <glyph glyph-name="Oslash" unicode="&#xd8;" horiz-adv-x="1580" 
d="M1194 1086l-728 -837q127 -125 324 -125q225 0 355.5 162t130.5 436q0 215 -82 364zM386 357l728 837q-128 126 -324 126q-225 0 -355.5 -161.5t-130.5 -436.5q0 -218 82 -365zM1433 1361l-119 -137q138 -198 138 -502q0 -347 -177.5 -551.5t-484.5 -204.5
q-265 0 -436 154l-113 -130l-94 92l119 137q-138 196 -138 503q0 348 178 551.5t484 203.5q263 0 436 -154l113 130z" />
    <glyph glyph-name="Ugrave" unicode="&#xd9;" horiz-adv-x="1510" 
d="M362 1443v-935q0 -167 104.5 -271.5t288.5 -104.5t288.5 104.5t104.5 271.5v935h180v-947q0 -235 -154.5 -382.5t-418.5 -147.5t-418.5 147.5t-154.5 382.5v947h180zM672 1575l-241 298h216l177 -298h-152z" />
    <glyph glyph-name="Uacute" unicode="&#xda;" horiz-adv-x="1510" 
d="M362 1443v-935q0 -167 104.5 -271.5t288.5 -104.5t288.5 104.5t104.5 271.5v935h180v-947q0 -235 -154.5 -382.5t-418.5 -147.5t-418.5 147.5t-154.5 382.5v947h180zM838 1575h-152l177 298h216z" />
    <glyph glyph-name="Ucircumflex" unicode="&#xdb;" horiz-adv-x="1510" 
d="M362 1443v-935q0 -167 104.5 -271.5t288.5 -104.5t288.5 104.5t104.5 271.5v935h180v-947q0 -235 -154.5 -382.5t-418.5 -147.5t-418.5 147.5t-154.5 382.5v947h180zM673 1873h164l300 -298h-202l-172 177h-16l-172 -177h-202z" />
    <glyph glyph-name="Udieresis" unicode="&#xdc;" horiz-adv-x="1510" 
d="M362 1443v-935q0 -167 104.5 -271.5t288.5 -104.5t288.5 104.5t104.5 271.5v935h180v-947q0 -235 -154.5 -382.5t-418.5 -147.5t-418.5 147.5t-154.5 382.5v947h180zM538 1631q-50 0 -85 35.5t-35 84.5t35 84.5t85 35.5t85 -35.5t35 -84.5t-35 -84.5t-85 -35.5zM972 1631
q-50 0 -85 35.5t-35 84.5t35 84.5t85 35.5t85 -35.5t35 -84.5t-35 -84.5t-85 -35.5z" />
    <glyph glyph-name="Yacute" unicode="&#xdd;" horiz-adv-x="1344" 
d="M762 0h-180v621l-512 822h205l389 -641h16l389 641h205l-512 -822v-621zM755 1575h-152l177 298h216z" />
    <glyph glyph-name="Thorn" unicode="&#xde;" horiz-adv-x="1280" 
d="M184 1443h180v-266h373q83 0 159 -28t134.5 -80t93.5 -131.5t35 -175.5t-35 -176t-94.5 -132t-135.5 -80.5t-159 -28.5h-371v-345h-180v1443zM364 1017v-512h322q130 0 209 66t79 191t-79 190t-209 65h-322z" />
    <glyph glyph-name="germandbls" unicode="&#xdf;" horiz-adv-x="1274" 
d="M396 0h-171v1101q0 182 115.5 288.5t303.5 106.5q183 0 299 -105t116 -270q0 -121 -65 -212t-164 -122v-18q156 -15 246 -108.5t90 -253.5q0 -181 -126 -301t-329 -120q-83 0 -144 13v153q61 -14 132 -14q139 0 217.5 75t78.5 196q0 125 -89.5 197t-250.5 72h-61v170h51
q113 0 179 68.5t66 195.5q0 100 -66 166t-177 66q-117 0 -184 -68.5t-67 -191.5v-1084z" />
    <glyph glyph-name="agrave" unicode="&#xe0;" horiz-adv-x="1130" 
d="M494 132q133 0 220.5 77t87.5 193v99l-290 -19q-122 -8 -179 -51t-57 -125q0 -81 61 -127.5t157 -46.5zM462 -19q-159 0 -261.5 87.5t-102.5 233.5q0 144 102 226t291 93l311 19v98q0 100 -62 153t-182 53q-97 0 -161 -35t-82 -99h-174q17 129 133.5 208t289.5 79
q196 0 303 -95t107 -264v-738h-164v159h-16q-52 -86 -138 -132t-194 -46zM486 1228l-231 340h206l177 -340h-152z" />
    <glyph glyph-name="aacute" unicode="&#xe1;" horiz-adv-x="1130" 
d="M494 132q133 0 220.5 77t87.5 193v99l-290 -19q-122 -8 -179 -51t-57 -125q0 -81 61 -127.5t157 -46.5zM462 -19q-159 0 -261.5 87.5t-102.5 233.5q0 144 102 226t291 93l311 19v98q0 100 -62 153t-182 53q-97 0 -161 -35t-82 -99h-174q17 129 133.5 208t289.5 79
q196 0 303 -95t107 -264v-738h-164v159h-16q-52 -86 -138 -132t-194 -46zM642 1228h-152l177 340h206z" />
    <glyph glyph-name="acircumflex" unicode="&#xe2;" horiz-adv-x="1130" 
d="M494 132q133 0 220.5 77t87.5 193v99l-290 -19q-122 -8 -179 -51t-57 -125q0 -81 61 -127.5t157 -46.5zM462 -19q-159 0 -261.5 87.5t-102.5 233.5q0 144 102 226t291 93l311 19v98q0 100 -62 153t-182 53q-97 0 -161 -35t-82 -99h-174q17 129 133.5 208t289.5 79
q196 0 303 -95t107 -264v-738h-164v159h-16q-52 -86 -138 -132t-194 -46zM665 1568l242 -340h-188l-147 227h-16l-147 -227h-188l242 340h202z" />
    <glyph glyph-name="atilde" unicode="&#xe3;" horiz-adv-x="1130" 
d="M494 132q133 0 220.5 77t87.5 193v99l-290 -19q-122 -8 -179 -51t-57 -125q0 -81 61 -127.5t157 -46.5zM462 -19q-159 0 -261.5 87.5t-102.5 233.5q0 144 102 226t291 93l311 19v98q0 100 -62 153t-182 53q-97 0 -161 -35t-82 -99h-174q17 129 133.5 208t289.5 79
q196 0 303 -95t107 -264v-738h-164v159h-16q-52 -86 -138 -132t-194 -46zM688 1235q-45 0 -79.5 15.5t-55.5 37.5t-38 44t-38 37.5t-45 15.5q-76 0 -76 -154h-142q0 137 57.5 212.5t163.5 75.5q45 0 80 -16t56.5 -39.5t40 -46.5t39.5 -39t45 -16q40 0 58 37.5t18 122.5h142
q0 -137 -59 -212t-167 -75z" />
    <glyph glyph-name="adieresis" unicode="&#xe4;" horiz-adv-x="1130" 
d="M494 132q133 0 220.5 77t87.5 193v99l-290 -19q-122 -8 -179 -51t-57 -125q0 -81 61 -127.5t157 -46.5zM462 -19q-159 0 -261.5 87.5t-102.5 233.5q0 144 102 226t291 93l311 19v98q0 100 -62 153t-182 53q-97 0 -161 -35t-82 -99h-174q17 129 133.5 208t289.5 79
q196 0 303 -95t107 -264v-738h-164v159h-16q-52 -86 -138 -132t-194 -46zM347 1286q-49 0 -84.5 35t-35.5 85t35.5 85t84.5 35t84.5 -35t35.5 -85t-35.5 -85t-84.5 -35zM781 1286q-49 0 -84.5 35t-35.5 85t35.5 85t84.5 35t84.5 -35t35.5 -85t-35.5 -85t-84.5 -35z" />
    <glyph glyph-name="aring" unicode="&#xe5;" horiz-adv-x="1130" 
d="M494 132q133 0 220.5 77t87.5 193v99l-290 -19q-122 -8 -179 -51t-57 -125q0 -81 61 -127.5t157 -46.5zM462 -19q-159 0 -261.5 87.5t-102.5 233.5q0 144 102 226t291 93l311 19v98q0 100 -62 153t-182 53q-97 0 -161 -35t-82 -99h-174q17 129 133.5 208t289.5 79
q196 0 303 -95t107 -264v-738h-164v159h-16q-52 -86 -138 -132t-194 -46zM564 1228q-96 0 -164 66.5t-68 162.5t68 162.5t164 66.5t164 -66.5t68 -162.5t-68 -162.5t-164 -66.5zM564 1334q52 0 87 35t35 88t-35 88t-87 35t-87 -35t-35 -88t35 -88t87 -35z" />
    <glyph glyph-name="ae" unicode="&#xe6;" horiz-adv-x="1849" 
d="M1287 -19q-129 0 -236 65t-150 166h-16q-53 -109 -158.5 -170t-247.5 -61q-171 0 -276 87t-105 234q0 144 102 226t291 93l311 19v98q0 100 -62 153t-182 53q-97 0 -161 -35t-82 -99h-174q17 130 133.5 208.5t289.5 78.5q124 0 214.5 -50.5t133.5 -134.5h16
q48 81 145.5 133t211.5 52q214 0 335 -140.5t121 -388.5v-68h-768v-18q7 -159 93 -253.5t225 -94.5q100 0 164.5 35.5t99.5 109.5h172q-41 -143 -155.5 -220.5t-284.5 -77.5zM1276 946q-130 0 -211.5 -82.5t-91.5 -224.5h587q-3 135 -82.5 221t-201.5 86zM504 132
q128 0 213 80.5t85 197.5v91l-290 -19q-122 -8 -179 -51t-57 -125q0 -81 62.5 -127.5t165.5 -46.5z" />
    <glyph glyph-name="ccedilla" unicode="&#xe7;" horiz-adv-x="1146" 
d="M1054 748h-174q-22 85 -94.5 139.5t-183.5 54.5q-145 0 -230.5 -108t-85.5 -291q0 -186 86 -296.5t230 -110.5q109 0 181.5 49t96.5 140h174q-21 -133 -115 -224.5t-245 -113.5l-71 -119q103 0 163 -43t60 -120q0 -67 -37.5 -112t-93.5 -63.5t-128 -18.5q-65 0 -145 18
v116q52 -13 113 -13q54 0 91 16t37 51t-35.5 48t-113.5 13h-61v90l75 133q-203 20 -321.5 169.5t-118.5 390.5q0 252 134 403t360 151q189 0 308.5 -99t143.5 -250z" />
    <glyph glyph-name="egrave" unicode="&#xe8;" horiz-adv-x="1170" 
d="M592 945q-129 0 -212 -87t-93 -230h594q-3 143 -82 230t-207 87zM876 279h172q-38 -139 -158 -218.5t-296 -79.5q-224 0 -355 150.5t-131 406.5q0 255 132 407t354 152q218 0 343 -145t125 -397v-66h-775v-8q7 -160 90.5 -254t220.5 -94q209 0 278 146zM516 1228
l-231 340h206l177 -340h-152z" />
    <glyph glyph-name="eacute" unicode="&#xe9;" horiz-adv-x="1170" 
d="M592 945q-129 0 -212 -87t-93 -230h594q-3 143 -82 230t-207 87zM876 279h172q-38 -139 -158 -218.5t-296 -79.5q-224 0 -355 150.5t-131 406.5q0 255 132 407t354 152q218 0 343 -145t125 -397v-66h-775v-8q7 -160 90.5 -254t220.5 -94q209 0 278 146zM672 1228h-152
l177 340h206z" />
    <glyph glyph-name="ecircumflex" unicode="&#xea;" horiz-adv-x="1170" 
d="M592 945q-129 0 -212 -87t-93 -230h594q-3 143 -82 230t-207 87zM876 279h172q-38 -139 -158 -218.5t-296 -79.5q-224 0 -355 150.5t-131 406.5q0 255 132 407t354 152q218 0 343 -145t125 -397v-66h-775v-8q7 -160 90.5 -254t220.5 -94q209 0 278 146zM695 1568
l242 -340h-188l-147 227h-16l-147 -227h-188l242 340h202z" />
    <glyph glyph-name="edieresis" unicode="&#xeb;" horiz-adv-x="1170" 
d="M592 945q-129 0 -212 -87t-93 -230h594q-3 143 -82 230t-207 87zM876 279h172q-38 -139 -158 -218.5t-296 -79.5q-224 0 -355 150.5t-131 406.5q0 255 132 407t354 152q218 0 343 -145t125 -397v-66h-775v-8q7 -160 90.5 -254t220.5 -94q209 0 278 146zM377 1286
q-49 0 -84.5 35t-35.5 85t35.5 85t84.5 35t84.5 -35t35.5 -85t-35.5 -85t-84.5 -35zM811 1286q-49 0 -84.5 35t-35.5 85t35.5 85t84.5 35t84.5 -35t35.5 -85t-35.5 -85t-84.5 -35z" />
    <glyph glyph-name="igrave" unicode="&#xec;" horiz-adv-x="504" 
d="M166 0v1078h172v-1078h-172zM174 1228l-231 340h206l177 -340h-152z" />
    <glyph glyph-name="iacute" unicode="&#xed;" horiz-adv-x="504" 
d="M166 0v1078h172v-1078h-172zM330 1228h-152l177 340h206z" />
    <glyph glyph-name="icircumflex" unicode="&#xee;" horiz-adv-x="504" 
d="M166 0v1078h172v-1078h-172zM353 1568l242 -340h-188l-147 227h-16l-147 -227h-188l242 340h202z" />
    <glyph glyph-name="idieresis" unicode="&#xef;" horiz-adv-x="504" 
d="M166 0v1078h172v-1078h-172zM35 1286q-49 0 -84.5 35t-35.5 85t35.5 85t84.5 35t84.5 -35t35.5 -85t-35.5 -85t-84.5 -35zM469 1286q-49 0 -84.5 35t-35.5 85t35.5 85t84.5 35t84.5 -35t35.5 -85t-35.5 -85t-84.5 -35z" />
    <glyph glyph-name="eth" unicode="&#xf0;" horiz-adv-x="1192" 
d="M601 132q146 0 233 103.5t87 273.5q0 175 -87.5 282t-232.5 107t-231.5 -106t-86.5 -283q0 -170 86.5 -273.5t231.5 -103.5zM874 1440l-176 -100q386 -283 386 -779q0 -266 -130 -423t-353 -157q-228 0 -360.5 142.5t-132.5 385.5q0 241 125 389t328 148
q99 0 185.5 -51.5t122.5 -126.5h15q-74 232 -317 398l-291 -165v130l180 103q-87 46 -186 87v126q178 -53 321 -137l281 160z" />
    <glyph glyph-name="ntilde" unicode="&#xf1;" horiz-adv-x="1195" 
d="M162 0v1078h164v-170h16q86 189 324 189q181 0 279 -103.5t98 -295.5v-698h-172v656q0 145 -62.5 215.5t-191.5 70.5q-130 0 -206.5 -81.5t-76.5 -222.5v-638h-172zM727 1235q-45 0 -79.5 15.5t-55.5 37.5t-38 44t-38 37.5t-45 15.5q-76 0 -76 -154h-142
q0 137 57.5 212.5t163.5 75.5q45 0 80 -16t56.5 -39.5t40 -46.5t39.5 -39t45 -16q40 0 58 37.5t18 122.5h142q0 -137 -59 -212t-167 -75z" />
    <glyph glyph-name="ograve" unicode="&#xf2;" horiz-adv-x="1210" 
d="M605 -19q-230 0 -363.5 149.5t-133.5 408.5q0 260 133 409t364 149t364 -149t133 -409q0 -259 -133.5 -408.5t-363.5 -149.5zM605 136q153 0 236 105.5t83 297.5t-83 297.5t-236 105.5t-236 -105.5t-83 -297.5t83 -297.5t236 -105.5zM527 1228l-231 340h206l177 -340
h-152z" />
    <glyph glyph-name="oacute" unicode="&#xf3;" horiz-adv-x="1210" 
d="M605 -19q-230 0 -363.5 149.5t-133.5 408.5q0 260 133 409t364 149t364 -149t133 -409q0 -259 -133.5 -408.5t-363.5 -149.5zM605 136q153 0 236 105.5t83 297.5t-83 297.5t-236 105.5t-236 -105.5t-83 -297.5t83 -297.5t236 -105.5zM683 1228h-152l177 340h206z" />
    <glyph glyph-name="ocircumflex" unicode="&#xf4;" horiz-adv-x="1210" 
d="M605 -19q-230 0 -363.5 149.5t-133.5 408.5q0 260 133 409t364 149t364 -149t133 -409q0 -259 -133.5 -408.5t-363.5 -149.5zM605 136q153 0 236 105.5t83 297.5t-83 297.5t-236 105.5t-236 -105.5t-83 -297.5t83 -297.5t236 -105.5zM706 1568l242 -340h-188l-147 227
h-16l-147 -227h-188l242 340h202z" />
    <glyph glyph-name="otilde" unicode="&#xf5;" horiz-adv-x="1210" 
d="M605 -19q-230 0 -363.5 149.5t-133.5 408.5q0 260 133 409t364 149t364 -149t133 -409q0 -259 -133.5 -408.5t-363.5 -149.5zM605 136q153 0 236 105.5t83 297.5t-83 297.5t-236 105.5t-236 -105.5t-83 -297.5t83 -297.5t236 -105.5zM729 1235q-45 0 -79.5 15.5
t-55.5 37.5t-38 44t-38 37.5t-45 15.5q-76 0 -76 -154h-142q0 137 57.5 212.5t163.5 75.5q45 0 80 -16t56.5 -39.5t40 -46.5t39.5 -39t45 -16q40 0 58 37.5t18 122.5h142q0 -137 -59 -212t-167 -75z" />
    <glyph glyph-name="odieresis" unicode="&#xf6;" horiz-adv-x="1210" 
d="M605 -19q-230 0 -363.5 149.5t-133.5 408.5q0 260 133 409t364 149t364 -149t133 -409q0 -259 -133.5 -408.5t-363.5 -149.5zM605 136q153 0 236 105.5t83 297.5t-83 297.5t-236 105.5t-236 -105.5t-83 -297.5t83 -297.5t236 -105.5zM388 1286q-50 0 -85 35t-35 85t35 85
t85 35t85 -35t35 -85t-35 -85t-85 -35zM822 1286q-50 0 -85 35t-35 85t35 85t85 35t85 -35t35 -85t-35 -85t-85 -35z" />
    <glyph glyph-name="divide" unicode="&#xf7;" horiz-adv-x="1328" 
d="M665 832q-54 0 -90 35.5t-36 89.5t36 89.5t90 35.5q53 0 88.5 -35.5t35.5 -89.5q0 -55 -35.5 -90t-88.5 -35zM665 56q-54 0 -90 35.5t-36 89.5t36 89.5t90 35.5q53 0 88.5 -35.5t35.5 -89.5q0 -55 -35.5 -90t-88.5 -35zM1147 493h-966v152h966v-152z" />
    <glyph glyph-name="oslash" unicode="&#xf8;" horiz-adv-x="1210" 
d="M892 768l-495 -567q81 -72 208 -72q157 0 242.5 107.5t85.5 302.5q0 135 -41 229zM318 311l496 567q-83 71 -209 71q-157 0 -242.5 -107t-85.5 -303q0 -134 41 -228zM1099 1005l-92 -106q95 -143 95 -360q0 -259 -133.5 -408.5t-363.5 -149.5q-188 0 -312 101l-88 -101
l-94 92l93 106q-96 144 -96 360q0 260 133 409t364 149q187 0 312 -100l88 100z" />
    <glyph glyph-name="ugrave" unicode="&#xf9;" horiz-adv-x="1196" 
d="M1034 1078v-1078h-164v169h-16q-41 -91 -126 -139.5t-208 -48.5q-180 0 -274 103t-94 296v698h172v-656q0 -147 58 -215.5t186 -68.5q141 0 217.5 79.5t76.5 222.5v638h172zM515 1228l-231 340h206l177 -340h-152z" />
    <glyph glyph-name="uacute" unicode="&#xfa;" horiz-adv-x="1196" 
d="M1034 1078v-1078h-164v169h-16q-41 -91 -126 -139.5t-208 -48.5q-180 0 -274 103t-94 296v698h172v-656q0 -147 58 -215.5t186 -68.5q141 0 217.5 79.5t76.5 222.5v638h172zM671 1228h-152l177 340h206z" />
    <glyph glyph-name="ucircumflex" unicode="&#xfb;" horiz-adv-x="1196" 
d="M1034 1078v-1078h-164v169h-16q-41 -91 -126 -139.5t-208 -48.5q-180 0 -274 103t-94 296v698h172v-656q0 -147 58 -215.5t186 -68.5q141 0 217.5 79.5t76.5 222.5v638h172zM694 1568l242 -340h-188l-147 227h-16l-147 -227h-188l242 340h202z" />
    <glyph glyph-name="udieresis" unicode="&#xfc;" horiz-adv-x="1196" 
d="M1034 1078v-1078h-164v169h-16q-41 -91 -126 -139.5t-208 -48.5q-180 0 -274 103t-94 296v698h172v-656q0 -147 58 -215.5t186 -68.5q141 0 217.5 79.5t76.5 222.5v638h172zM376 1286q-50 0 -85 35t-35 85t35 85t85 35t85 -35t35 -85t-35 -85t-85 -35zM810 1286
q-50 0 -85 35t-35 85t35 85t85 35t85 -35t35 -85t-35 -85t-85 -35z" />
    <glyph glyph-name="yacute" unicode="&#xfd;" horiz-adv-x="1112" 
d="M254 -390q-41 0 -77 6v147q26 -5 72 -5q75 0 119.5 40t78.5 137l20 64l-399 1079h186l296 -887h16l295 887h183l-421 -1144q-69 -187 -147 -255.5t-222 -68.5zM629 1228h-152l177 340h206z" />
    <glyph glyph-name="thorn" unicode="&#xfe;" horiz-adv-x="1258" 
d="M697 1097q206 0 329.5 -152t123.5 -406q0 -253 -124 -405.5t-329 -152.5q-115 0 -204 47.5t-133 133.5h-16v-522h-172v1866h164v-608h16q52 93 143.5 146t201.5 53zM656 136q148 0 232 107t84 296t-83.5 296t-231.5 107q-146 0 -232 -108.5t-86 -294.5q0 -185 85.5 -294
t231.5 -109z" />
    <glyph glyph-name="ydieresis" unicode="&#xff;" horiz-adv-x="1112" 
d="M254 -390q-41 0 -77 6v147q26 -5 72 -5q75 0 119.5 40t78.5 137l20 64l-399 1079h186l296 -887h16l295 887h183l-421 -1144q-69 -187 -147 -255.5t-222 -68.5zM334 1286q-50 0 -85 35t-35 85t35 85t85 35t85 -35t35 -85t-35 -85t-85 -35zM768 1286q-50 0 -85 35t-35 85
t35 85t85 35t85 -35t35 -85t-35 -85t-85 -35z" />
    <glyph glyph-name="Amacron" unicode="&#x100;" horiz-adv-x="1380" 
d="M1122 0l-145 413h-574l-145 -413h-189l532 1443h178l532 -1443h-189zM682 1210l-226 -644h468l-226 644h-16zM1017 1817v-136h-654v136h654z" />
    <glyph glyph-name="amacron" unicode="&#x101;" horiz-adv-x="1130" 
d="M494 132q133 0 220.5 77t87.5 193v99l-290 -19q-122 -8 -179 -51t-57 -125q0 -81 61 -127.5t157 -46.5zM462 -19q-159 0 -261.5 87.5t-102.5 233.5q0 144 102 226t291 93l311 19v98q0 100 -62 153t-182 53q-97 0 -161 -35t-82 -99h-174q17 129 133.5 208t289.5 79
q196 0 303 -95t107 -264v-738h-164v159h-16q-52 -86 -138 -132t-194 -46zM891 1472v-136h-654v136h654z" />
    <glyph glyph-name="Abreve" unicode="&#x102;" horiz-adv-x="1380" 
d="M1122 0l-145 413h-574l-145 -413h-189l532 1443h178l532 -1443h-189zM682 1210l-226 -644h468l-226 644h-16zM336 1873h154q0 -80 52 -126.5t148 -46.5t148 46.5t52 126.5h154q0 -136 -93.5 -217t-260.5 -81t-260.5 81t-93.5 217z" />
    <glyph glyph-name="abreve" unicode="&#x103;" horiz-adv-x="1130" 
d="M494 132q133 0 220.5 77t87.5 193v99l-290 -19q-122 -8 -179 -51t-57 -125q0 -81 61 -127.5t157 -46.5zM462 -19q-159 0 -261.5 87.5t-102.5 233.5q0 144 102 226t291 93l311 19v98q0 100 -62 153t-182 53q-97 0 -161 -35t-82 -99h-174q17 129 133.5 208t289.5 79
q196 0 303 -95t107 -264v-738h-164v159h-16q-52 -86 -138 -132t-194 -46zM215 1568h154q0 -99 48.5 -155.5t146.5 -56.5t146.5 56.5t48.5 155.5h154q0 -154 -91 -247t-258 -93t-258 93t-91 247z" />
    <glyph glyph-name="Aogonek" unicode="&#x104;" horiz-adv-x="1380" 
d="M456 566h468l-226 644h-16zM779 1443l532 -1443q-167 -101 -167 -197q0 -44 28.5 -69t78.5 -25q33 0 69 10v-135q-55 -19 -113 -19q-97 0 -164.5 49.5t-67.5 142.5q0 132 147 244l-145 412h-574l-145 -413h-189l532 1443h178z" />
    <glyph glyph-name="aogonek" unicode="&#x105;" horiz-adv-x="1130" 
d="M802 402v99l-290 -19q-122 -8 -179 -51t-57 -125q0 -81 61 -127.5t157 -46.5q133 0 220.5 77t87.5 193zM974 738v-738q-167 -101 -167 -197q0 -44 28.5 -69t78.5 -25q33 0 69 10v-135q-55 -19 -113 -19q-97 0 -164.5 49.5t-67.5 142.5q0 143 172 263v139h-16
q-52 -86 -138 -132t-194 -46q-159 0 -261.5 87.5t-102.5 233.5q0 144 102 226t291 93l311 19v98q0 100 -62 153t-182 53q-97 0 -161 -35t-82 -99h-174q17 129 133.5 208t289.5 79q196 0 303 -95t107 -264z" />
    <glyph glyph-name="Cacute" unicode="&#x106;" horiz-adv-x="1466" 
d="M765 -34q-294 0 -465.5 203t-171.5 552t171 552.5t465 203.5q228 0 390 -130t194 -339h-183q-36 140 -144 221.5t-257 81.5q-208 0 -329.5 -159t-121.5 -431t122 -430.5t330 -158.5q151 0 258.5 72.5t141.5 197.5h183q-36 -199 -194.5 -317.5t-388.5 -118.5zM847 1575
h-152l177 298h216z" />
    <glyph glyph-name="cacute" unicode="&#x107;" horiz-adv-x="1146" 
d="M1054 748h-174q-22 85 -94.5 139.5t-183.5 54.5q-145 0 -230.5 -108t-85.5 -291q0 -186 86 -296.5t230 -110.5q109 0 181.5 49t96.5 140h174q-24 -153 -143 -248.5t-308 -95.5q-227 0 -361 152.5t-134 409.5q0 252 134 403t360 151q189 0 308.5 -99t143.5 -250zM678 1228
h-152l177 340h206z" />
    <glyph glyph-name="Ccircumflex" unicode="&#x108;" horiz-adv-x="1466" 
d="M765 -34q-294 0 -465.5 203t-171.5 552t171 552.5t465 203.5q228 0 390 -130t194 -339h-183q-36 140 -144 221.5t-257 81.5q-208 0 -329.5 -159t-121.5 -431t122 -430.5t330 -158.5q151 0 258.5 72.5t141.5 197.5h183q-36 -199 -194.5 -317.5t-388.5 -118.5zM682 1873
h164l300 -298h-202l-172 177h-16l-172 -177h-202z" />
    <glyph glyph-name="ccircumflex" unicode="&#x109;" horiz-adv-x="1146" 
d="M1054 748h-174q-22 85 -94.5 139.5t-183.5 54.5q-145 0 -230.5 -108t-85.5 -291q0 -186 86 -296.5t230 -110.5q109 0 181.5 49t96.5 140h174q-24 -153 -143 -248.5t-308 -95.5q-227 0 -361 152.5t-134 409.5q0 252 134 403t360 151q189 0 308.5 -99t143.5 -250zM701 1568
l242 -340h-188l-147 227h-16l-147 -227h-188l242 340h202z" />
    <glyph glyph-name="Cdotaccent" unicode="&#x10a;" horiz-adv-x="1466" 
d="M765 -34q-294 0 -465.5 203t-171.5 552t171 552.5t465 203.5q228 0 390 -130t194 -339h-183q-36 140 -144 221.5t-257 81.5q-208 0 -329.5 -159t-121.5 -431t122 -430.5t330 -158.5q151 0 258.5 72.5t141.5 197.5h183q-36 -199 -194.5 -317.5t-388.5 -118.5zM764 1631
q-50 0 -85 35.5t-35 84.5t35 84.5t85 35.5t85 -35.5t35 -84.5t-35 -84.5t-85 -35.5z" />
    <glyph glyph-name="cdotaccent" unicode="&#x10b;" horiz-adv-x="1146" 
d="M1054 748h-174q-22 85 -94.5 139.5t-183.5 54.5q-145 0 -230.5 -108t-85.5 -291q0 -186 86 -296.5t230 -110.5q109 0 181.5 49t96.5 140h174q-24 -153 -143 -248.5t-308 -95.5q-227 0 -361 152.5t-134 409.5q0 252 134 403t360 151q189 0 308.5 -99t143.5 -250zM600 1286
q-50 0 -85 35t-35 85t35 85t85 35t85 -35t35 -85t-35 -85t-85 -35z" />
    <glyph glyph-name="Ccaron" unicode="&#x10c;" horiz-adv-x="1466" 
d="M765 -34q-294 0 -465.5 203t-171.5 552t171 552.5t465 203.5q228 0 390 -130t194 -339h-183q-36 140 -144 221.5t-257 81.5q-208 0 -329.5 -159t-121.5 -431t122 -430.5t330 -158.5q151 0 258.5 72.5t141.5 197.5h183q-36 -199 -194.5 -317.5t-388.5 -118.5zM846 1575
h-164l-300 298h202l172 -177h16l172 177h202z" />
    <glyph glyph-name="ccaron" unicode="&#x10d;" horiz-adv-x="1146" 
d="M1054 748h-174q-22 85 -94.5 139.5t-183.5 54.5q-145 0 -230.5 -108t-85.5 -291q0 -186 86 -296.5t230 -110.5q109 0 181.5 49t96.5 140h174q-24 -153 -143 -248.5t-308 -95.5q-227 0 -361 152.5t-134 409.5q0 252 134 403t360 151q189 0 308.5 -99t143.5 -250zM499 1228
l-242 340h188l147 -227h16l147 227h188l-242 -340h-202z" />
    <glyph glyph-name="Dcaron" unicode="&#x10e;" horiz-adv-x="1488" 
d="M184 1443h495q321 0 501 -190.5t180 -530.5q0 -341 -179.5 -531.5t-501.5 -190.5h-495v1443zM364 1281v-1119h303q241 0 375 147t134 411q0 265 -134.5 413t-374.5 148h-303zM696 1575h-164l-300 298h202l172 -177h16l172 177h202z" />
    <glyph glyph-name="dcaron" unicode="&#x10f;" horiz-adv-x="1395" 
d="M1237 1568h178l-58 -490h-120v490zM561 -19q-207 0 -330 152t-123 406q0 253 123.5 405.5t329.5 152.5q113 0 202.5 -50.5t135.5 -138.5h15v598h172v-1506h-164v172h-16q-51 -90 -142 -140.5t-203 -50.5zM601 942q-147 0 -231 -107.5t-84 -295.5q0 -189 83.5 -296
t231.5 -107q147 0 232 108t85 295q0 185 -85.5 294t-231.5 109z" />
    <glyph glyph-name="Dcroat" unicode="&#x110;" horiz-adv-x="1488" 
d="M364 162h303q241 0 375 147t134 411q0 265 -134.5 413t-374.5 148h-303v-456h309v-162h-309v-501zM184 1443h495q321 0 501 -190.5t180 -530.5q0 -341 -179.5 -531.5t-501.5 -190.5h-495v663h-158v162h158v618z" />
    <glyph glyph-name="dcroat" unicode="&#x111;" horiz-adv-x="1258" 
d="M601 136q147 0 232 108t85 295q0 185 -85.5 294t-231.5 109q-147 0 -231 -107.5t-84 -295.5q0 -189 83.5 -296t231.5 -107zM1231 1421v-144h-145v-1277h-164v172h-16q-51 -90 -142 -140.5t-203 -50.5q-207 0 -330 152t-123 406q0 253 123.5 405.5t329.5 152.5
q113 0 202.5 -50.5t135.5 -138.5h15v369h-260v144h260v85h172v-85h145z" />
    <glyph glyph-name="Emacron" unicode="&#x112;" horiz-adv-x="1220" 
d="M1078 162v-162h-894v1443h894v-162h-714v-463h677v-160h-677v-496h714zM958 1817v-136h-654v136h654z" />
    <glyph glyph-name="emacron" unicode="&#x113;" horiz-adv-x="1170" 
d="M592 945q-129 0 -212 -87t-93 -230h594q-3 143 -82 230t-207 87zM876 279h172q-38 -139 -158 -218.5t-296 -79.5q-224 0 -355 150.5t-131 406.5q0 255 132 407t354 152q218 0 343 -145t125 -397v-66h-775v-8q7 -160 90.5 -254t220.5 -94q209 0 278 146zM921 1472v-136
h-654v136h654z" />
    <glyph glyph-name="Ebreve" unicode="&#x114;" horiz-adv-x="1220" 
d="M1078 162v-162h-894v1443h894v-162h-714v-463h677v-160h-677v-496h714zM277 1873h154q0 -80 52 -126.5t148 -46.5t148 46.5t52 126.5h154q0 -136 -93.5 -217t-260.5 -81t-260.5 81t-93.5 217z" />
    <glyph glyph-name="ebreve" unicode="&#x115;" horiz-adv-x="1170" 
d="M592 945q-129 0 -212 -87t-93 -230h594q-3 143 -82 230t-207 87zM876 279h172q-38 -139 -158 -218.5t-296 -79.5q-224 0 -355 150.5t-131 406.5q0 255 132 407t354 152q218 0 343 -145t125 -397v-66h-775v-8q7 -160 90.5 -254t220.5 -94q209 0 278 146zM245 1568h154
q0 -99 48.5 -155.5t146.5 -56.5t146.5 56.5t48.5 155.5h154q0 -154 -91 -247t-258 -93t-258 93t-91 247z" />
    <glyph glyph-name="Edotaccent" unicode="&#x116;" horiz-adv-x="1220" 
d="M1078 162v-162h-894v1443h894v-162h-714v-463h677v-160h-677v-496h714zM631 1631q-49 0 -84.5 35.5t-35.5 84.5t35.5 84.5t84.5 35.5t84.5 -35.5t35.5 -84.5t-35.5 -84.5t-84.5 -35.5z" />
    <glyph glyph-name="edotaccent" unicode="&#x117;" horiz-adv-x="1170" 
d="M592 945q-129 0 -212 -87t-93 -230h594q-3 143 -82 230t-207 87zM876 279h172q-38 -139 -158 -218.5t-296 -79.5q-224 0 -355 150.5t-131 406.5q0 255 132 407t354 152q218 0 343 -145t125 -397v-66h-775v-8q7 -160 90.5 -254t220.5 -94q209 0 278 146zM594 1286
q-50 0 -85 35t-35 85t35 85t85 35t85 -35t35 -85t-35 -85t-85 -35z" />
    <glyph glyph-name="Eogonek" unicode="&#x118;" horiz-adv-x="1220" 
d="M1078 162v-162q-167 -101 -167 -197q0 -44 28.5 -69t78.5 -25q33 0 69 10v-135q-55 -19 -113 -19q-97 0 -164.5 49.5t-67.5 142.5q0 131 145 243h-703v1443h894v-162h-714v-463h677v-160h-677v-496h714z" />
    <glyph glyph-name="eogonek" unicode="&#x119;" horiz-adv-x="1170" 
d="M287 628h594q-3 143 -82 230t-207 87q-129 0 -212 -87t-93 -230zM1062 489h-775v-8q7 -160 90.5 -254t220.5 -94q209 0 278 146h172q-30 -112 -117 -187l-49.5 -47.5l-51.5 -49t-42.5 -45.5t-38.5 -50t-23 -47t-10 -51q0 -14 3.5 -27.5t13.5 -30t32.5 -26.5t55.5 -10
q35 0 76 11v-135q-55 -19 -113 -19q-98 0 -167.5 49t-69.5 141q0 115 138 232q-43 -6 -91 -6q-224 0 -355 150.5t-131 406.5q0 255 132 407t354 152q218 0 343 -145t125 -397v-66z" />
    <glyph glyph-name="Ecaron" unicode="&#x11a;" horiz-adv-x="1220" 
d="M1078 162v-162h-894v1443h894v-162h-714v-463h677v-160h-677v-496h714zM713 1575h-164l-300 298h202l172 -177h16l172 177h202z" />
    <glyph glyph-name="ecaron" unicode="&#x11b;" horiz-adv-x="1170" 
d="M592 945q-129 0 -212 -87t-93 -230h594q-3 143 -82 230t-207 87zM876 279h172q-38 -139 -158 -218.5t-296 -79.5q-224 0 -355 150.5t-131 406.5q0 255 132 407t354 152q218 0 343 -145t125 -397v-66h-775v-8q7 -160 90.5 -254t220.5 -94q209 0 278 146zM493 1228
l-242 340h188l147 -227h16l147 227h188l-242 -340h-202z" />
    <glyph glyph-name="Gcircumflex" unicode="&#x11c;" horiz-adv-x="1529" 
d="M1395 558q0 -267 -168 -429.5t-445 -162.5q-299 0 -476.5 205t-177.5 551q0 342 179 548.5t475 206.5q240 0 402.5 -125t201.5 -339h-183q-47 146 -154 222t-267 76q-214 0 -341.5 -160t-127.5 -429q0 -273 126.5 -431.5t343.5 -158.5q194 0 313.5 113t119.5 296v35h-406
v158h585v-176zM700 1873h164l300 -298h-202l-172 177h-16l-172 -177h-202z" />
    <glyph glyph-name="gcircumflex" unicode="&#x11d;" horiz-adv-x="1248" 
d="M598 168q149 0 234.5 105t85.5 282t-86 282t-234 105t-230 -104t-82 -283t82 -283t230 -104zM606 -414q-193 0 -312.5 80t-139.5 215h182q14 -67 85 -106t185 -39q145 0 226.5 67.5t81.5 186.5v212h-16q-51 -89 -139 -137.5t-199 -48.5q-208 0 -330 147.5t-122 391.5
t123 393t329 149q113 0 206 -51.5t140 -138.5h16v171h164v-1097q0 -181 -130 -288t-350 -107zM715 1568l242 -340h-188l-147 227h-16l-147 -227h-188l242 340h202z" />
    <glyph glyph-name="Gbreve" unicode="&#x11e;" horiz-adv-x="1529" 
d="M1395 558q0 -267 -168 -429.5t-445 -162.5q-299 0 -476.5 205t-177.5 551q0 342 179 548.5t475 206.5q240 0 402.5 -125t201.5 -339h-183q-47 146 -154 222t-267 76q-214 0 -341.5 -160t-127.5 -429q0 -273 126.5 -431.5t343.5 -158.5q194 0 313.5 113t119.5 296v35h-406
v158h585v-176zM428 1873h154q0 -80 52 -126.5t148 -46.5t148 46.5t52 126.5h154q0 -136 -93.5 -217t-260.5 -81t-260.5 81t-93.5 217z" />
    <glyph glyph-name="gbreve" unicode="&#x11f;" horiz-adv-x="1248" 
d="M598 168q149 0 234.5 105t85.5 282t-86 282t-234 105t-230 -104t-82 -283t82 -283t230 -104zM606 -414q-193 0 -312.5 80t-139.5 215h182q14 -67 85 -106t185 -39q145 0 226.5 67.5t81.5 186.5v212h-16q-51 -89 -139 -137.5t-199 -48.5q-208 0 -330 147.5t-122 391.5
t123 393t329 149q113 0 206 -51.5t140 -138.5h16v171h164v-1097q0 -181 -130 -288t-350 -107zM265 1568h154q0 -99 48.5 -155.5t146.5 -56.5t146.5 56.5t48.5 155.5h154q0 -154 -91 -247t-258 -93t-258 93t-91 247z" />
    <glyph glyph-name="Gdotaccent" unicode="&#x120;" horiz-adv-x="1529" 
d="M1395 558q0 -267 -168 -429.5t-445 -162.5q-299 0 -476.5 205t-177.5 551q0 342 179 548.5t475 206.5q240 0 402.5 -125t201.5 -339h-183q-47 146 -154 222t-267 76q-214 0 -341.5 -160t-127.5 -429q0 -273 126.5 -431.5t343.5 -158.5q194 0 313.5 113t119.5 296v35h-406
v158h585v-176zM782 1631q-50 0 -85 35.5t-35 84.5t35 84.5t85 35.5t85 -35.5t35 -84.5t-35 -84.5t-85 -35.5z" />
    <glyph glyph-name="gdotaccent" unicode="&#x121;" horiz-adv-x="1248" 
d="M598 168q149 0 234.5 105t85.5 282t-86 282t-234 105t-230 -104t-82 -283t82 -283t230 -104zM606 -414q-193 0 -312.5 80t-139.5 215h182q14 -67 85 -106t185 -39q145 0 226.5 67.5t81.5 186.5v212h-16q-51 -89 -139 -137.5t-199 -48.5q-208 0 -330 147.5t-122 391.5
t123 393t329 149q113 0 206 -51.5t140 -138.5h16v171h164v-1097q0 -181 -130 -288t-350 -107zM614 1286q-50 0 -85 35t-35 85t35 85t85 35t85 -35t35 -85t-35 -85t-85 -35z" />
    <glyph glyph-name="Gcommaaccent" unicode="&#x122;" horiz-adv-x="1529" 
d="M1395 558q0 -267 -168 -429.5t-445 -162.5q-299 0 -476.5 205t-177.5 551q0 342 179 548.5t475 206.5q240 0 402.5 -125t201.5 -339h-183q-47 146 -154 222t-267 76q-214 0 -341.5 -160t-127.5 -429q0 -273 126.5 -431.5t343.5 -158.5q194 0 313.5 113t119.5 296v35h-406
v158h585v-176zM736 -494h-127l82 377h182z" />
    <glyph glyph-name="gcommaaccent" unicode="&#x123;" horiz-adv-x="1248" 
d="M660 1605h127l-82 -377h-182zM598 168q149 0 234.5 105t85.5 282t-86 282t-234 105t-230 -104t-82 -283t82 -283t230 -104zM606 -414q-193 0 -312.5 80t-139.5 215h182q14 -67 85 -106t185 -39q145 0 226.5 67.5t81.5 186.5v212h-16q-51 -89 -139 -137.5t-199 -48.5
q-208 0 -330 147.5t-122 391.5t123 393t329 149q113 0 206 -51.5t140 -138.5h16v171h164v-1097q0 -181 -130 -288t-350 -107z" />
    <glyph glyph-name="Hcircumflex" unicode="&#x124;" horiz-adv-x="1520" 
d="M1336 0h-180v657h-792v-657h-180v1443h180v-624h792v624h180v-1443zM678 1873h164l300 -298h-202l-172 177h-16l-172 -177h-202z" />
    <glyph glyph-name="hcircumflex" unicode="&#x125;" horiz-adv-x="1216" 
d="M172 0v1506h172v-598h16q41 91 125.5 140t206.5 49q172 0 272 -105.5t100 -293.5v-698h-172v656q0 286 -249 286q-142 0 -220.5 -82.5t-78.5 -221.5v-638h-172zM176 1936h164l300 -298h-202l-172 177h-16l-172 -177h-202z" />
    <glyph glyph-name="Hbar" unicode="&#x126;" horiz-adv-x="1520" 
d="M1156 819v246h-792v-246h792zM1480 1227v-162h-144v-1065h-180v657h-792v-657h-180v1065h-144v162h144v216h180v-216h792v216h180v-216h144z" />
    <glyph glyph-name="hbar" unicode="&#x127;" horiz-adv-x="1216" 
d="M344 908h16q41 91 125.5 140t206.5 49q172 0 272 -105.5t100 -293.5v-698h-172v656q0 286 -249 286q-142 0 -220.5 -82.5t-78.5 -221.5v-638h-172v1277h-144v144h144v85h172v-85h264v-144h-264v-369z" />
    <glyph glyph-name="Itilde" unicode="&#x128;" horiz-adv-x="548" 
d="M364 0h-180v1443h180v-1443zM398 1580q-45 0 -79.5 15.5t-55.5 37.5t-38 44t-38 37.5t-45 15.5q-76 0 -76 -154h-142q0 137 57.5 212.5t163.5 75.5q45 0 80 -16t56.5 -39t40 -46.5t39.5 -39.5t45 -16q40 0 58 37.5t18 122.5h142q0 -137 -59 -212t-167 -75z" />
    <glyph glyph-name="itilde" unicode="&#x129;" horiz-adv-x="504" 
d="M166 0v1078h172v-1078h-172zM376 1235q-45 0 -79.5 15.5t-55.5 37.5t-38 44t-38 37.5t-45 15.5q-76 0 -76 -154h-142q0 137 57.5 212.5t163.5 75.5q45 0 80 -16t56.5 -39.5t40 -46.5t39.5 -39t45 -16q40 0 58 37.5t18 122.5h142q0 -137 -59 -212t-167 -75z" />
    <glyph glyph-name="Imacron" unicode="&#x12a;" horiz-adv-x="548" 
d="M364 0h-180v1443h180v-1443zM601 1817v-136h-654v136h654z" />
    <glyph glyph-name="imacron" unicode="&#x12b;" horiz-adv-x="504" 
d="M166 0v1078h172v-1078h-172zM530 1472v-136h-556v136h556z" />
    <glyph glyph-name="Ibreve" unicode="&#x12c;" horiz-adv-x="548" 
d="M364 0h-180v1443h180v-1443zM-80 1873h154q0 -80 52 -126.5t148 -46.5t148 46.5t52 126.5h154q0 -136 -93.5 -217t-260.5 -81t-260.5 81t-93.5 217z" />
    <glyph glyph-name="ibreve" unicode="&#x12d;" horiz-adv-x="504" 
d="M166 0v1078h172v-1078h-172zM-97 1568h154q0 -99 48.5 -155.5t146.5 -56.5t146.5 56.5t48.5 155.5h154q0 -154 -91 -247t-258 -93t-258 93t-91 247z" />
    <glyph glyph-name="Iogonek" unicode="&#x12e;" horiz-adv-x="548" 
d="M364 1443v-1443q-167 -101 -167 -197q0 -44 28.5 -69t78.5 -25q33 0 69 10v-135q-55 -19 -113 -19q-97 0 -164.5 49.5t-67.5 142.5q0 137 156 251v1435h180z" />
    <glyph glyph-name="iogonek" unicode="&#x12f;" horiz-adv-x="504" 
d="M252 1286q-50 0 -85 35t-35 85t35 85t85 35t85 -35t35 -85t-35 -85t-85 -35zM338 1078v-1078q-167 -101 -167 -197q0 -44 28.5 -69t78.5 -25q33 0 69 10v-135q-55 -19 -113 -19q-97 0 -164.5 49.5t-67.5 142.5q0 139 164 257v1064h172z" />
    <glyph glyph-name="Idotaccent" unicode="&#x130;" horiz-adv-x="548" 
d="M364 0h-180v1443h180v-1443zM274 1631q-50 0 -85 35.5t-35 84.5t35 84.5t85 35.5t85 -35.5t35 -84.5t-35 -84.5t-85 -35.5z" />
    <glyph glyph-name="dotlessi" unicode="&#x131;" horiz-adv-x="504" 
d="M166 0v1078h172v-1078h-172z" />
    <glyph glyph-name="IJ" unicode="&#x132;" horiz-adv-x="1650" 
d="M364 0h-180v1443h180v-1443zM634 337h179q3 -91 67 -148t165 -57q116 0 178.5 69.5t62.5 201.5v1040h180v-1041q0 -206 -112 -321t-308 -115q-182 0 -297 103t-115 268z" />
    <glyph glyph-name="ij" unicode="&#x133;" horiz-adv-x="1008" 
d="M166 0v1078h172v-1078h-172zM252 1286q-50 0 -85 35t-35 85t35 85t85 35t85 -35t35 -85t-35 -85t-85 -35zM842 1078v-1131q0 -166 -80 -241.5t-250 -75.5h-30v147h26q90 0 126 38t36 129v1134h172zM758 1286q-50 0 -85 35t-35 85t35 85t85 35t85 -35t35 -85t-35 -85
t-85 -35z" />
    <glyph glyph-name="Jcircumflex" unicode="&#x134;" horiz-adv-x="1102" 
d="M86 337h179q3 -91 67 -148t165 -57q116 0 178.5 69.5t62.5 201.5v1040h180v-1041q0 -206 -112 -321t-308 -115q-182 0 -297 103t-115 268zM746 1873h164l300 -298h-202l-172 177h-16l-172 -177h-202z" />
    <glyph glyph-name="jcircumflex" unicode="&#x135;" horiz-adv-x="504" 
d="M338 1078v-1131q0 -166 -80 -241.5t-250 -75.5h-30v147h26q90 0 126 38t36 129v1134h172zM355 1568l242 -340h-188l-147 227h-16l-147 -227h-188l242 340h202z" />
    <glyph glyph-name="Kcommaaccent" unicode="&#x136;" horiz-adv-x="1349" 
d="M364 0h-180v1443h180v-701h16l632 701h226l-577 -623l630 -820h-233l-521 695l-173 -191v-504zM607 -494h-127l82 377h182z" />
    <glyph glyph-name="kcommaaccent" unicode="&#x137;" horiz-adv-x="1112" 
d="M360 607l468 471h211l-464 -462l495 -616h-219l-404 505l-103 -96v-409h-172v1506h172v-899h16zM557 -494h-127l82 377h182z" />
    <glyph glyph-name="Lacute" unicode="&#x139;" horiz-adv-x="1163" 
d="M1060 162v-162h-876v1443h180v-1281h696zM357 1575h-152l177 298h216z" />
    <glyph glyph-name="lacute" unicode="&#x13a;" horiz-adv-x="516" 
d="M172 0v1506h172v-1506h-172zM341 1638h-152l177 298h216z" />
    <glyph glyph-name="Lcommaaccent" unicode="&#x13b;" horiz-adv-x="1163" 
d="M1060 162v-162h-876v1443h180v-1281h696zM576 -494h-127l82 377h182z" />
    <glyph glyph-name="lcommaaccent" unicode="&#x13c;" horiz-adv-x="516" 
d="M172 0v1506h172v-1506h-172zM212 -494h-127l82 377h182z" />
    <glyph glyph-name="Lcaron" unicode="&#x13d;" horiz-adv-x="1163" 
d="M1060 162v-162h-876v1443h180v-1281h696zM646 1568h173l-53 -520h-120v520z" />
    <glyph glyph-name="lcaron" unicode="&#x13e;" horiz-adv-x="653" 
d="M172 0v1506h172v-1506h-172zM495 1568h178l-58 -490h-120v490z" />
    <glyph glyph-name="Lslash" unicode="&#x141;" horiz-adv-x="1163" 
d="M364 162h696v-162h-876v714l-166 -77v142l166 77v587h180v-503l288 134v-142l-288 -134v-636z" />
    <glyph glyph-name="lslash" unicode="&#x142;" horiz-adv-x="516" 
d="M472 999v-144l-128 -63v-792h-172v709l-128 -63v144l128 63v653h172v-570z" />
    <glyph glyph-name="Nacute" unicode="&#x143;" horiz-adv-x="1520" 
d="M362 0h-178v1443h175l783 -1123h16v1123h178v-1443h-175l-783 1119h-16v-1119zM843 1575h-152l177 298h216z" />
    <glyph glyph-name="nacute" unicode="&#x144;" horiz-adv-x="1195" 
d="M162 0v1078h164v-170h16q86 189 324 189q181 0 279 -103.5t98 -295.5v-698h-172v656q0 145 -62.5 215.5t-191.5 70.5q-130 0 -206.5 -81.5t-76.5 -222.5v-638h-172zM681 1228h-152l177 340h206z" />
    <glyph glyph-name="Ncommaaccent" unicode="&#x145;" horiz-adv-x="1520" 
d="M362 0h-178v1443h175l783 -1123h16v1123h178v-1443h-175l-783 1119h-16v-1119zM714 -494h-127l82 377h182z" />
    <glyph glyph-name="ncommaaccent" unicode="&#x146;" horiz-adv-x="1195" 
d="M162 0v1078h164v-170h16q86 189 324 189q181 0 279 -103.5t98 -295.5v-698h-172v656q0 145 -62.5 215.5t-191.5 70.5q-130 0 -206.5 -81.5t-76.5 -222.5v-638h-172zM557 -494h-127l82 377h182z" />
    <glyph glyph-name="Ncaron" unicode="&#x147;" horiz-adv-x="1520" 
d="M362 0h-178v1443h175l783 -1123h16v1123h178v-1443h-175l-783 1119h-16v-1119zM842 1575h-164l-300 298h202l172 -177h16l172 177h202z" />
    <glyph glyph-name="ncaron" unicode="&#x148;" horiz-adv-x="1195" 
d="M162 0v1078h164v-170h16q86 189 324 189q181 0 279 -103.5t98 -295.5v-698h-172v656q0 145 -62.5 215.5t-191.5 70.5q-130 0 -206.5 -81.5t-76.5 -222.5v-638h-172zM502 1228l-242 340h188l147 -227h16l147 227h188l-242 -340h-202z" />
    <glyph glyph-name="eng" unicode="&#x14b;" horiz-adv-x="1195" 
d="M162 0v1078h164v-170h16q86 189 324 189q181 0 279 -103.5t98 -295.5v-807q0 -77 -22.5 -131t-61.5 -81t-80 -38t-90 -11q-85 0 -147 34v139q40 -22 97 -22q59 0 95.5 28t36.5 106v741q0 145 -62.5 215.5t-191.5 70.5q-130 0 -206.5 -81.5t-76.5 -222.5v-638h-172z" />
    <glyph glyph-name="Omacron" unicode="&#x14c;" horiz-adv-x="1580" 
d="M790 1477q307 0 484.5 -203.5t177.5 -551.5q0 -347 -177 -551.5t-485 -204.5q-309 0 -485.5 204t-176.5 552t178 551.5t484 203.5zM790 1311q-220 0 -348.5 -159t-128.5 -430t127 -430.5t350 -159.5q221 0 349 160t128 430q0 271 -128 430t-349 159zM1117 1817v-136h-654
v136h654z" />
    <glyph glyph-name="omacron" unicode="&#x14d;" horiz-adv-x="1210" 
d="M605 -19q-230 0 -363.5 149.5t-133.5 408.5q0 260 133 409t364 149t364 -149t133 -409q0 -259 -133.5 -408.5t-363.5 -149.5zM605 136q153 0 236 105.5t83 297.5t-83 297.5t-236 105.5t-236 -105.5t-83 -297.5t83 -297.5t236 -105.5zM932 1472v-136h-654v136h654z" />
    <glyph glyph-name="Obreve" unicode="&#x14e;" horiz-adv-x="1580" 
d="M790 1477q307 0 484.5 -203.5t177.5 -551.5q0 -347 -177 -551.5t-485 -204.5q-309 0 -485.5 204t-176.5 552t178 551.5t484 203.5zM790 1311q-220 0 -348.5 -159t-128.5 -430t127 -430.5t350 -159.5q221 0 349 160t128 430q0 271 -128 430t-349 159zM436 1873h154
q0 -80 52 -126.5t148 -46.5t148 46.5t52 126.5h154q0 -136 -93.5 -217t-260.5 -81t-260.5 81t-93.5 217z" />
    <glyph glyph-name="obreve" unicode="&#x14f;" horiz-adv-x="1210" 
d="M605 -19q-230 0 -363.5 149.5t-133.5 408.5q0 260 133 409t364 149t364 -149t133 -409q0 -259 -133.5 -408.5t-363.5 -149.5zM605 136q153 0 236 105.5t83 297.5t-83 297.5t-236 105.5t-236 -105.5t-83 -297.5t83 -297.5t236 -105.5zM256 1568h154q0 -99 48.5 -155.5
t146.5 -56.5t146.5 56.5t48.5 155.5h154q0 -154 -91 -247t-258 -93t-258 93t-91 247z" />
    <glyph glyph-name="Ohungarumlaut" unicode="&#x150;" horiz-adv-x="1580" 
d="M790 1477q307 0 484.5 -203.5t177.5 -551.5q0 -347 -177 -551.5t-485 -204.5q-309 0 -485.5 204t-176.5 552t178 551.5t484 203.5zM790 1311q-220 0 -348.5 -159t-128.5 -430t127 -430.5t350 -159.5q221 0 349 160t128 430q0 271 -128 430t-349 159zM540 1575l126 298
h191l-175 -298h-142zM871 1575l166 298h206l-230 -298h-142z" />
    <glyph glyph-name="ohungarumlaut" unicode="&#x151;" horiz-adv-x="1210" 
d="M605 -19q-230 0 -363.5 149.5t-133.5 408.5q0 260 133 409t364 149t364 -149t133 -409q0 -259 -133.5 -408.5t-363.5 -149.5zM605 136q153 0 236 105.5t83 297.5t-83 297.5t-236 105.5t-236 -105.5t-83 -297.5t83 -297.5t236 -105.5zM372 1228l111 340h199l-177 -340
h-133zM680 1228l177 340h206l-241 -340h-142z" />
    <glyph glyph-name="OE" unicode="&#x152;" horiz-adv-x="2325" 
d="M801 1311q-226 0 -357 -158t-131 -431q0 -275 130.5 -432.5t357.5 -157.5q217 0 342 157.5t125 432.5q0 274 -124.5 431.5t-342.5 157.5zM1289 0v247h-16q-66 -126 -201.5 -203.5t-290.5 -77.5q-301 0 -477 203.5t-176 552.5q0 347 176.5 551t476.5 204q152 0 288.5 -75
t203.5 -196h16v237h894v-162h-732v-463h695v-160h-695v-496h732v-162h-894z" />
    <glyph glyph-name="oe" unicode="&#x153;" horiz-adv-x="1987" 
d="M1411 -19q-134 0 -241.5 62.5t-148.5 165.5h-16q-42 -103 -151.5 -165.5t-248.5 -62.5q-231 0 -364 149.5t-133 408.5t133 408.5t364 149.5q135 0 241 -61.5t160 -170.5h16q54 109 157 170.5t232 61.5q218 0 343 -144.5t125 -396.5v-66h-775v-8q7 -160 90.5 -254
t220.5 -94q210 0 278 145h172q-40 -140 -159.5 -219t-294.5 -79zM1698 629q-3 143 -82 230t-207 87t-211.5 -86.5t-93.5 -230.5h594zM286 539q0 -192 83.5 -297.5t235.5 -105.5t235.5 105.5t83.5 297.5q0 193 -83.5 298t-235.5 105t-235.5 -105t-83.5 -298z" />
    <glyph glyph-name="Racute" unicode="&#x154;" horiz-adv-x="1338" 
d="M364 1283v-552h355q139 0 214.5 71.5t75.5 204.5q0 130 -79 203t-219 73h-347zM364 571v-571h-180v1443h551q209 0 334.5 -117.5t125.5 -312.5q0 -151 -77 -261t-213 -153l334 -599h-211l-309 571h-355zM692 1575h-152l177 298h216z" />
    <glyph glyph-name="racute" unicode="&#x155;" horiz-adv-x="780" 
d="M162 0v1078h164v-160h16q24 79 108 129t191 50q49 0 86 -5v-172q-35 10 -110 10q-123 0 -203 -74t-80 -188v-668h-172zM456 1228h-152l177 340h206z" />
    <glyph glyph-name="Rcommaaccent" unicode="&#x156;" horiz-adv-x="1338" 
d="M364 1283v-552h355q139 0 214.5 71.5t75.5 204.5q0 130 -79 203t-219 73h-347zM364 571v-571h-180v1443h551q209 0 334.5 -117.5t125.5 -312.5q0 -151 -77 -261t-213 -153l334 -599h-211l-309 571h-355zM563 -494h-127l82 377h182z" />
    <glyph glyph-name="rcommaaccent" unicode="&#x157;" horiz-adv-x="780" 
d="M162 0v1078h164v-160h16q24 79 108 129t191 50q49 0 86 -5v-172q-35 10 -110 10q-123 0 -203 -74t-80 -188v-668h-172zM202 -494h-127l82 377h182z" />
    <glyph glyph-name="Rcaron" unicode="&#x158;" horiz-adv-x="1338" 
d="M364 1283v-552h355q139 0 214.5 71.5t75.5 204.5q0 130 -79 203t-219 73h-347zM364 571v-571h-180v1443h551q209 0 334.5 -117.5t125.5 -312.5q0 -151 -77 -261t-213 -153l334 -599h-211l-309 571h-355zM691 1575h-164l-300 298h202l172 -177h16l172 177h202z" />
    <glyph glyph-name="rcaron" unicode="&#x159;" horiz-adv-x="780" 
d="M162 0v1078h164v-160h16q24 79 108 129t191 50q49 0 86 -5v-172q-35 10 -110 10q-123 0 -203 -74t-80 -188v-668h-172zM277 1228l-242 340h188l147 -227h16l147 227h188l-242 -340h-202z" />
    <glyph glyph-name="Sacute" unicode="&#x15a;" horiz-adv-x="1305" 
d="M115 377h182q17 -113 117 -180t254 -67q146 0 241.5 70.5t95.5 177.5q0 92 -70 152.5t-219 98.5l-185 48q-196 49 -285 142t-89 247q0 184 140.5 297.5t369.5 113.5q209 0 350 -112t152 -287h-181q-19 111 -105.5 173.5t-221.5 62.5q-144 0 -231.5 -66.5t-87.5 -175.5
q0 -85 64.5 -138t213.5 -91l151 -40q224 -56 321.5 -150t97.5 -253q0 -199 -146 -316.5t-393 -117.5q-229 0 -375.5 112t-160.5 299zM750 1575h-152l177 298h216z" />
    <glyph glyph-name="sacute" unicode="&#x15b;" horiz-adv-x="1072" 
d="M137 783q0 134 115 224t287 90q169 0 279 -78t127 -211h-170q-18 66 -79.5 104.5t-157.5 38.5q-97 0 -162.5 -45t-65.5 -116q0 -55 45.5 -91.5t141.5 -59.5l166 -40q154 -37 227.5 -107t73.5 -185q0 -143 -123 -234.5t-309 -91.5q-180 0 -295 80t-129 214h177
q22 -70 87 -109.5t166 -39.5q109 0 179 47t70 121q0 110 -171 152l-185 45q-153 37 -223.5 106.5t-70.5 185.5zM617 1228h-152l177 340h206z" />
    <glyph glyph-name="Scircumflex" unicode="&#x15c;" horiz-adv-x="1305" 
d="M115 377h182q17 -113 117 -180t254 -67q146 0 241.5 70.5t95.5 177.5q0 92 -70 152.5t-219 98.5l-185 48q-196 49 -285 142t-89 247q0 184 140.5 297.5t369.5 113.5q209 0 350 -112t152 -287h-181q-19 111 -105.5 173.5t-221.5 62.5q-144 0 -231.5 -66.5t-87.5 -175.5
q0 -85 64.5 -138t213.5 -91l151 -40q224 -56 321.5 -150t97.5 -253q0 -199 -146 -316.5t-393 -117.5q-229 0 -375.5 112t-160.5 299zM585 1873h164l300 -298h-202l-172 177h-16l-172 -177h-202z" />
    <glyph glyph-name="scircumflex" unicode="&#x15d;" horiz-adv-x="1072" 
d="M137 783q0 134 115 224t287 90q169 0 279 -78t127 -211h-170q-18 66 -79.5 104.5t-157.5 38.5q-97 0 -162.5 -45t-65.5 -116q0 -55 45.5 -91.5t141.5 -59.5l166 -40q154 -37 227.5 -107t73.5 -185q0 -143 -123 -234.5t-309 -91.5q-180 0 -295 80t-129 214h177
q22 -70 87 -109.5t166 -39.5q109 0 179 47t70 121q0 110 -171 152l-185 45q-153 37 -223.5 106.5t-70.5 185.5zM640 1568l242 -340h-188l-147 227h-16l-147 -227h-188l242 340h202z" />
    <glyph glyph-name="Scedilla" unicode="&#x15e;" horiz-adv-x="1305" 
d="M620 843l151 -40q224 -56 321.5 -150t97.5 -253q0 -182 -123 -296.5t-336 -134.5l-60 -101q103 0 163 -43t60 -120q0 -67 -37.5 -112t-93.5 -63.5t-128 -18.5q-65 0 -145 18v116q52 -13 113 -13q54 0 91 16t37 51t-35.5 48t-113.5 13h-61v90l67 118q-204 16 -332 126
t-141 283h182q17 -113 117 -180t254 -67q146 0 241.5 70.5t95.5 177.5q0 92 -70 152.5t-219 98.5l-185 48q-196 49 -285 142t-89 247q0 184 140.5 297.5t369.5 113.5q209 0 350 -112t152 -287h-181q-19 111 -105.5 173.5t-221.5 62.5q-144 0 -231.5 -66.5t-87.5 -175.5
q0 -85 64.5 -138t213.5 -91z" />
    <glyph glyph-name="scedilla" unicode="&#x15f;" horiz-adv-x="1072" 
d="M497 639l166 -40q154 -37 227.5 -107t73.5 -185q0 -124 -94.5 -211t-246.5 -109l-71 -119q103 0 163 -43t60 -120q0 -67 -37.5 -112t-93.5 -63.5t-128 -18.5q-65 0 -145 18v116q52 -13 113 -13q54 0 91 16t37 51t-35.5 48t-113.5 13h-61v90l75 133q-158 12 -257 90
t-112 202h177q22 -70 87 -109.5t166 -39.5q109 0 179 47t70 121q0 110 -171 152l-185 45q-153 37 -223.5 106.5t-70.5 185.5q0 134 115 224t287 90q169 0 279 -78t127 -211h-170q-18 66 -79.5 104.5t-157.5 38.5q-97 0 -162.5 -45t-65.5 -116q0 -55 45.5 -91.5t141.5 -59.5z
" />
    <glyph glyph-name="Scaron" unicode="&#x160;" horiz-adv-x="1305" 
d="M115 377h182q17 -113 117 -180t254 -67q146 0 241.5 70.5t95.5 177.5q0 92 -70 152.5t-219 98.5l-185 48q-196 49 -285 142t-89 247q0 184 140.5 297.5t369.5 113.5q209 0 350 -112t152 -287h-181q-19 111 -105.5 173.5t-221.5 62.5q-144 0 -231.5 -66.5t-87.5 -175.5
q0 -85 64.5 -138t213.5 -91l151 -40q224 -56 321.5 -150t97.5 -253q0 -199 -146 -316.5t-393 -117.5q-229 0 -375.5 112t-160.5 299zM749 1575h-164l-300 298h202l172 -177h16l172 177h202z" />
    <glyph glyph-name="scaron" unicode="&#x161;" horiz-adv-x="1072" 
d="M137 783q0 134 115 224t287 90q169 0 279 -78t127 -211h-170q-18 66 -79.5 104.5t-157.5 38.5q-97 0 -162.5 -45t-65.5 -116q0 -55 45.5 -91.5t141.5 -59.5l166 -40q154 -37 227.5 -107t73.5 -185q0 -143 -123 -234.5t-309 -91.5q-180 0 -295 80t-129 214h177
q22 -70 87 -109.5t166 -39.5q109 0 179 47t70 121q0 110 -171 152l-185 45q-153 37 -223.5 106.5t-70.5 185.5zM438 1228l-242 340h188l147 -227h16l147 227h188l-242 -340h-202z" />
    <glyph glyph-name="Tcedilla" unicode="&#x162;" horiz-adv-x="1298" 
d="M739 22v-22l-78 -132q103 0 163 -43t60 -120q0 -67 -37.5 -112t-93.5 -63.5t-128 -18.5q-65 0 -145 18v116q52 -13 113 -13q54 0 91 16t37 51t-35.5 48t-113.5 13h-61v90l85 150h-37v1281h-465v162h1110v-162h-465v-1259z" />
    <glyph glyph-name="tcedilla" unicode="&#x163;" horiz-adv-x="744" 
d="M510 -7l-74 -125q103 0 163 -43t60 -120q0 -67 -37.5 -112t-93.5 -63.5t-128 -18.5q-65 0 -145 18v116q52 -13 113 -13q54 0 91 16t37 51t-35.5 48t-113.5 13h-61v90l93 165q-76 28 -110.5 92t-34.5 173v654h-174v144h174v279h172v-279h240v-144h-240v-610q0 -95 38 -138
t122 -43q37 0 80 4v-145q-57 -10 -101 -10q-24 0 -35 1z" />
    <glyph glyph-name="Tcaron" unicode="&#x164;" horiz-adv-x="1298" 
d="M739 0h-180v1281h-465v162h1110v-162h-465v-1281zM731 1575h-164l-300 298h202l172 -177h16l172 177h202z" />
    <glyph glyph-name="tcaron" unicode="&#x165;" horiz-adv-x="744" 
d="M234 1357h172v-279h240v-144h-240v-610q0 -95 38 -138t122 -43q37 0 80 4v-145q-57 -10 -101 -10q-167 0 -239 67t-72 221v654h-174v144h174v279zM539 1720h178l-58 -490h-120v490z" />
    <glyph glyph-name="Tbar" unicode="&#x166;" horiz-adv-x="1298" 
d="M1204 1281h-465v-478h326v-162h-326v-641h-180v641h-326v162h326v478h-465v162h1110v-162z" />
    <glyph glyph-name="tbar" unicode="&#x167;" horiz-adv-x="744" 
d="M646 934h-240v-281h236v-144h-236v-185q0 -95 38 -138t122 -43q37 0 80 4v-145q-57 -10 -101 -10q-167 0 -239 67t-72 221v229h-178v144h178v281h-174v144h174v279h172v-279h240v-144z" />
    <glyph glyph-name="Utilde" unicode="&#x168;" horiz-adv-x="1510" 
d="M362 1443v-935q0 -167 104.5 -271.5t288.5 -104.5t288.5 104.5t104.5 271.5v935h180v-947q0 -235 -154.5 -382.5t-418.5 -147.5t-418.5 147.5t-154.5 382.5v947h180zM879 1580q-45 0 -79.5 15.5t-55.5 37.5t-38 44t-38 37.5t-45 15.5q-76 0 -76 -154h-142
q0 137 57.5 212.5t163.5 75.5q45 0 80 -16t56.5 -39t40 -46.5t39.5 -39.5t45 -16q40 0 58 37.5t18 122.5h142q0 -137 -59 -212t-167 -75z" />
    <glyph glyph-name="utilde" unicode="&#x169;" horiz-adv-x="1196" 
d="M1034 1078v-1078h-164v169h-16q-41 -91 -126 -139.5t-208 -48.5q-180 0 -274 103t-94 296v698h172v-656q0 -147 58 -215.5t186 -68.5q141 0 217.5 79.5t76.5 222.5v638h172zM717 1235q-45 0 -79.5 15.5t-55.5 37.5t-38 44t-38 37.5t-45 15.5q-76 0 -76 -154h-142
q0 137 57.5 212.5t163.5 75.5q45 0 80 -16t56.5 -39.5t40 -46.5t39.5 -39t45 -16q40 0 58 37.5t18 122.5h142q0 -137 -59 -212t-167 -75z" />
    <glyph glyph-name="Umacron" unicode="&#x16a;" horiz-adv-x="1510" 
d="M362 1443v-935q0 -167 104.5 -271.5t288.5 -104.5t288.5 104.5t104.5 271.5v935h180v-947q0 -235 -154.5 -382.5t-418.5 -147.5t-418.5 147.5t-154.5 382.5v947h180zM1082 1817v-136h-654v136h654z" />
    <glyph glyph-name="umacron" unicode="&#x16b;" horiz-adv-x="1196" 
d="M1034 1078v-1078h-164v169h-16q-41 -91 -126 -139.5t-208 -48.5q-180 0 -274 103t-94 296v698h172v-656q0 -147 58 -215.5t186 -68.5q141 0 217.5 79.5t76.5 222.5v638h172zM920 1472v-136h-654v136h654z" />
    <glyph glyph-name="Ubreve" unicode="&#x16c;" horiz-adv-x="1510" 
d="M362 1443v-935q0 -167 104.5 -271.5t288.5 -104.5t288.5 104.5t104.5 271.5v935h180v-947q0 -235 -154.5 -382.5t-418.5 -147.5t-418.5 147.5t-154.5 382.5v947h180zM401 1873h154q0 -80 52 -126.5t148 -46.5t148 46.5t52 126.5h154q0 -136 -93.5 -217t-260.5 -81
t-260.5 81t-93.5 217z" />
    <glyph glyph-name="ubreve" unicode="&#x16d;" horiz-adv-x="1196" 
d="M1034 1078v-1078h-164v169h-16q-41 -91 -126 -139.5t-208 -48.5q-180 0 -274 103t-94 296v698h172v-656q0 -147 58 -215.5t186 -68.5q141 0 217.5 79.5t76.5 222.5v638h172zM244 1568h154q0 -99 48.5 -155.5t146.5 -56.5t146.5 56.5t48.5 155.5h154q0 -154 -91 -247
t-258 -93t-258 93t-91 247z" />
    <glyph glyph-name="Uring" unicode="&#x16e;" horiz-adv-x="1510" 
d="M362 1443v-935q0 -167 104.5 -271.5t288.5 -104.5t288.5 104.5t104.5 271.5v935h180v-947q0 -235 -154.5 -382.5t-418.5 -147.5t-418.5 147.5t-154.5 382.5v947h180zM755 1551q-83 0 -141 57t-58 140t58 140t141 57t141 -57t58 -140t-58 -140t-141 -57zM755 1643
q46 0 75.5 30t29.5 75q0 46 -29.5 75.5t-75.5 29.5t-75.5 -29.5t-29.5 -75.5q0 -45 29.5 -75t75.5 -30z" />
    <glyph glyph-name="uring" unicode="&#x16f;" horiz-adv-x="1196" 
d="M1034 1078v-1078h-164v169h-16q-41 -91 -126 -139.5t-208 -48.5q-180 0 -274 103t-94 296v698h172v-656q0 -147 58 -215.5t186 -68.5q141 0 217.5 79.5t76.5 222.5v638h172zM593 1228q-96 0 -164 66.5t-68 162.5t68 162.5t164 66.5t164 -66.5t68 -162.5t-68 -162.5
t-164 -66.5zM593 1334q52 0 87 35t35 88t-35 88t-87 35t-87 -35t-35 -88t35 -88t87 -35z" />
    <glyph glyph-name="Uhungarumlaut" unicode="&#x170;" horiz-adv-x="1510" 
d="M362 1443v-935q0 -167 104.5 -271.5t288.5 -104.5t288.5 104.5t104.5 271.5v935h180v-947q0 -235 -154.5 -382.5t-418.5 -147.5t-418.5 147.5t-154.5 382.5v947h180zM505 1575l126 298h191l-175 -298h-142zM836 1575l166 298h206l-230 -298h-142z" />
    <glyph glyph-name="uhungarumlaut" unicode="&#x171;" horiz-adv-x="1196" 
d="M1034 1078v-1078h-164v169h-16q-41 -91 -126 -139.5t-208 -48.5q-180 0 -274 103t-94 296v698h172v-656q0 -147 58 -215.5t186 -68.5q141 0 217.5 79.5t76.5 222.5v638h172zM360 1228l111 340h199l-177 -340h-133zM668 1228l177 340h206l-241 -340h-142z" />
    <glyph glyph-name="Uogonek" unicode="&#x172;" horiz-adv-x="1510" 
d="M1148 1443h180v-947q0 -229 -145 -374q-24 -25 -80 -77.5t-84.5 -82.5t-55 -75t-26.5 -85q0 -14 3.5 -27.5t13.5 -30t32.5 -26.5t55.5 -10q35 0 76 11v-135q-55 -19 -113 -19q-98 0 -167.5 49t-69.5 141q0 110 129 224q-65 -13 -142 -13q-264 0 -418.5 147.5
t-154.5 382.5v947h180v-935q0 -167 104.5 -271.5t288.5 -104.5t288.5 104.5t104.5 271.5v935z" />
    <glyph glyph-name="uogonek" unicode="&#x173;" horiz-adv-x="1196" 
d="M1034 1078v-1078q-167 -101 -167 -197q0 -44 28.5 -69t78.5 -25q33 0 69 10v-135q-55 -19 -113 -19q-97 0 -164.5 49.5t-67.5 142.5q0 143 172 263v149h-16q-41 -91 -126 -139.5t-208 -48.5q-180 0 -274 103t-94 296v698h172v-656q0 -147 58 -215.5t186 -68.5
q141 0 217.5 79.5t76.5 222.5v638h172z" />
    <glyph glyph-name="Wcircumflex" unicode="&#x174;" horiz-adv-x="1982" 
d="M985 1139l-332 -1139h-170l-393 1443h188l287 -1173h12l323 1173h182l323 -1173h12l287 1173h188l-393 -1443h-170l-332 1139h-12zM909 1873h164l300 -298h-202l-172 177h-16l-172 -177h-202z" />
    <glyph glyph-name="wcircumflex" unicode="&#x175;" horiz-adv-x="1586" 
d="M1518 1078l-302 -1078h-175l-241 834h-16l-240 -834h-174l-302 1078h174l212 -862h16l241 862h165l241 -862h16l212 862h173zM894 1568l242 -340h-188l-147 227h-16l-147 -227h-188l242 340h202z" />
    <glyph glyph-name="Ycircumflex" unicode="&#x176;" horiz-adv-x="1344" 
d="M762 0h-180v621l-512 822h205l389 -641h16l389 641h205l-512 -822v-621zM590 1873h164l300 -298h-202l-172 177h-16l-172 -177h-202z" />
    <glyph glyph-name="ycircumflex" unicode="&#x177;" horiz-adv-x="1112" 
d="M254 -390q-41 0 -77 6v147q26 -5 72 -5q75 0 119.5 40t78.5 137l20 64l-399 1079h186l296 -887h16l295 887h183l-421 -1144q-69 -187 -147 -255.5t-222 -68.5zM652 1568l242 -340h-188l-147 227h-16l-147 -227h-188l242 340h202z" />
    <glyph glyph-name="Ydieresis" unicode="&#x178;" horiz-adv-x="1344" 
d="M762 0h-180v621l-512 822h205l389 -641h16l389 641h205l-512 -822v-621zM455 1631q-49 0 -84.5 35.5t-35.5 84.5t35.5 84.5t84.5 35.5t84.5 -35.5t35.5 -84.5t-35.5 -84.5t-84.5 -35.5zM889 1631q-49 0 -84.5 35.5t-35.5 84.5t35.5 84.5t84.5 35.5t84.5 -35.5t35.5 -84.5
t-35.5 -84.5t-84.5 -35.5z" />
    <glyph glyph-name="Zacute" unicode="&#x179;" horiz-adv-x="1355" 
d="M144 0v128l817 1137v16h-789v162h1022v-128l-813 -1137v-16h830v-162h-1067zM761 1575h-152l177 298h216z" />
    <glyph glyph-name="zacute" unicode="&#x17a;" horiz-adv-x="1104" 
d="M137 0v126l622 792v16h-621v144h826v-129l-619 -789v-16h622v-144h-830zM623 1228h-152l177 340h206z" />
    <glyph glyph-name="Zdotaccent" unicode="&#x17b;" horiz-adv-x="1355" 
d="M144 0v128l817 1137v16h-789v162h1022v-128l-813 -1137v-16h830v-162h-1067zM678 1631q-50 0 -85 35.5t-35 84.5t35 84.5t85 35.5t85 -35.5t35 -84.5t-35 -84.5t-85 -35.5z" />
    <glyph glyph-name="zdotaccent" unicode="&#x17c;" horiz-adv-x="1104" 
d="M137 0v126l622 792v16h-621v144h826v-129l-619 -789v-16h622v-144h-830zM545 1286q-49 0 -84.5 35t-35.5 85t35.5 85t84.5 35t84.5 -35t35.5 -85t-35.5 -85t-84.5 -35z" />
    <glyph glyph-name="Zcaron" unicode="&#x17d;" horiz-adv-x="1355" 
d="M144 0v128l817 1137v16h-789v162h1022v-128l-813 -1137v-16h830v-162h-1067zM760 1575h-164l-300 298h202l172 -177h16l172 177h202z" />
    <glyph glyph-name="zcaron" unicode="&#x17e;" horiz-adv-x="1104" 
d="M137 0v126l622 792v16h-621v144h826v-129l-619 -789v-16h622v-144h-830zM444 1228l-242 340h188l147 -227h16l147 227h188l-242 -340h-202z" />
    <glyph glyph-name="uni04D8" unicode="&#x4d8;" horiz-adv-x="1506" 
d="M738 -34q-283 0 -449.5 191.5t-170.5 521.5v79h1057v27q2 232 -127 379t-334 147q-284 0 -389 -232h-185q65 188 217.5 293t360.5 105q299 0 474.5 -204.5t175.5 -552.5q0 -339 -173.5 -546.5t-456.5 -207.5zM742 132q174 0 290 126.5t139 340.5h-855
q17 -220 129.5 -343.5t296.5 -123.5z" />
    <glyph glyph-name="uni04D8" unicode="&#x18f;" horiz-adv-x="1506" 
d="M738 -34q-283 0 -449.5 191.5t-170.5 521.5v79h1057v27q2 232 -127 379t-334 147q-284 0 -389 -232h-185q65 188 217.5 293t360.5 105q299 0 474.5 -204.5t175.5 -552.5q0 -339 -173.5 -546.5t-456.5 -207.5zM742 132q174 0 290 126.5t139 340.5h-855
q17 -220 129.5 -343.5t296.5 -123.5z" />
    <glyph glyph-name="florin" unicode="&#x192;" horiz-adv-x="1328" 
d="M1243 1446v-157q-72 22 -190 22q-224 0 -256 -221l-39 -270h363v-136h-382l-52 -362q-26 -180 -123 -263t-269 -83q-110 0 -218 27v167q99 -35 202 -35q102 0 161.5 47t74.5 153l50 349h-343v136h363l40 281q26 177 130.5 271.5t275.5 94.5q131 0 212 -21z" />
    <glyph glyph-name="Ohorn" unicode="&#x1a0;" horiz-adv-x="1603" 
d="M791 -34q-309 0 -486 204t-177 552t178.5 551.5t484.5 203.5q74 0 207.5 -20t208.5 -20q62 0 85.5 21t23.5 72v140h159v-192q0 -79 -52.5 -125t-129.5 -46h-59v-12q97 -67 157 -226.5t60 -346.5q0 -348 -176.5 -552t-483.5 -204zM791 132q221 0 348 160t127 430
q0 272 -127 430.5t-348 158.5q-220 0 -349 -159t-129 -430t127.5 -430.5t350.5 -159.5z" />
    <glyph glyph-name="ohorn" unicode="&#x1a1;" horiz-adv-x="1254" 
d="M605 136q152 0 235.5 105.5t83.5 297.5q0 193 -83.5 298t-235.5 105t-235.5 -105t-83.5 -298q0 -192 83.5 -297.5t235.5 -105.5zM1102 539q0 -259 -133 -408.5t-364 -149.5t-364 149.5t-133 408.5t133 408.5t364 149.5q66 0 143.5 -12.5t129.5 -12.5q63 0 86 20.5
t23 72.5v137h159v-189q0 -75 -43.5 -117.5t-100.5 -42.5h-56v-7q71 -50 113.5 -157t42.5 -250z" />
    <glyph glyph-name="Uhorn" unicode="&#x1af;" horiz-adv-x="1648" 
d="M755 -34q-259 0 -416 145t-157 385v947h180v-935q0 -172 107 -274t286 -102t286 102t107 274v935h182q47 0 69 21.5t22 66.5v159h159v-189q0 -90 -55 -138t-147 -48h-50v-819q0 -240 -157 -385t-416 -145z" />
    <glyph glyph-name="uhorn" unicode="&#x1b0;" horiz-adv-x="1316" 
d="M854 169q-41 -91 -126 -139.5t-208 -48.5q-180 0 -274 103t-94 296v698h172v-656q0 -147 58 -215.5t186 -68.5q141 0 217.5 79.5t76.5 222.5v638h144q47 0 69 21.5t22 66.5v152h159v-182q0 -90 -55 -138t-147 -48h-20v-950h-164v169h-16z" />
    <glyph glyph-name="dentalclick" unicode="&#x1c0;" horiz-adv-x="660" 
d="M257 -370v1813h146v-1813h-146z" />
    <glyph glyph-name="lateralclick" unicode="&#x1c1;" horiz-adv-x="1063" 
d="M257 -370v1813h146v-1813h-146zM660 -370v1813h146v-1813h-146z" />
    <glyph glyph-name="alveolarclick" unicode="&#x1c2;" horiz-adv-x="900" 
d="M820 946h-296v-245h296v-132h-296v-939h-148v939h-296v132h296v245h-296v132h296v365h148v-365h296v-132z" />
    <glyph glyph-name="retroflexclick" unicode="&#x1c3;" horiz-adv-x="637" 
d="M218 1444h200l-17 -964h-166zM319 -18q-61 0 -100 39t-39 100t39 100.5t100 39.5t99.5 -39t38.5 -101q0 -61 -38.5 -100t-99.5 -39z" />
    <glyph glyph-name="uni01C4" unicode="&#x1c4;" horiz-adv-x="2843" 
d="M184 1443h495q321 0 501 -190.5t180 -530.5q0 -341 -179.5 -531.5t-501.5 -190.5h-495v1443zM364 1281v-1119h303q241 0 375 147t134 411q0 265 -134.5 413t-374.5 148h-303zM1632 0v128l817 1137v16h-789v162h1022v-128l-813 -1137v-16h830v-162h-1067zM2248 1575h-164
l-300 298h202l172 -177h16l172 177h202z" />
    <glyph glyph-name="uni01C5" unicode="&#x1c5;" horiz-adv-x="2592" 
d="M184 1443h495q321 0 501 -190.5t180 -530.5q0 -341 -179.5 -531.5t-501.5 -190.5h-495v1443zM364 1281v-1119h303q241 0 375 147t134 411q0 265 -134.5 413t-374.5 148h-303zM1625 0v126l622 792v16h-621v144h826v-129l-619 -789v-16h622v-144h-830zM1932 1228l-242 340
h188l147 -227h16l147 227h188l-242 -340h-202z" />
    <glyph glyph-name="uni01C6" unicode="&#x1c6;" horiz-adv-x="2362" 
d="M561 -19q-207 0 -330 152t-123 406q0 253 123.5 405.5t329.5 152.5q113 0 202.5 -50.5t135.5 -138.5h15v598h172v-1506h-164v172h-16q-51 -90 -142 -140.5t-203 -50.5zM601 942q-147 0 -231 -107.5t-84 -295.5q0 -189 83.5 -296t231.5 -107q147 0 232 108t85 295
q0 185 -85.5 294t-231.5 109zM1395 0v126l622 792v16h-621v144h826v-129l-619 -789v-16h622v-144h-830zM1702 1228l-242 340h188l147 -227h16l147 227h188l-242 -340h-202z" />
    <glyph glyph-name="uni01C7" unicode="&#x1c7;" horiz-adv-x="2265" 
d="M1060 162v-162h-876v1443h180v-1281h696zM1249 337h179q3 -91 67 -148t165 -57q116 0 178.5 69.5t62.5 201.5v1040h180v-1041q0 -206 -112 -321t-308 -115q-182 0 -297 103t-115 268z" />
    <glyph glyph-name="uni01C8" unicode="&#x1c8;" horiz-adv-x="1667" 
d="M1060 162v-162h-876v1443h180v-1281h696zM1501 1078v-1131q0 -166 -80 -241.5t-250 -75.5h-30v147h26q90 0 126 38t36 129v1134h172zM1417 1286q-49 0 -84.5 35t-35.5 85t35.5 85t84.5 35t84.5 -35t35.5 -85t-35.5 -85t-84.5 -35z" />
    <glyph glyph-name="uni01C9" unicode="&#x1c9;" horiz-adv-x="1020" 
d="M172 0v1506h172v-1506h-172zM854 1078v-1131q0 -166 -80 -241.5t-250 -75.5h-30v147h26q90 0 126 38t36 129v1134h172zM770 1286q-50 0 -85 35t-35 85t35 85t85 35t85 -35t35 -85t-35 -85t-85 -35z" />
    <glyph glyph-name="uni01CA" unicode="&#x1ca;" horiz-adv-x="2622" 
d="M362 0h-178v1443h175l783 -1123h16v1123h178v-1443h-175l-783 1119h-16v-1119zM1606 337h179q3 -91 67 -148t165 -57q116 0 178.5 69.5t62.5 201.5v1040h180v-1041q0 -206 -112 -321t-308 -115q-182 0 -297 103t-115 268z" />
    <glyph glyph-name="uni01CB" unicode="&#x1cb;" horiz-adv-x="2024" 
d="M362 0h-178v1443h175l783 -1123h16v1123h178v-1443h-175l-783 1119h-16v-1119zM1858 1078v-1131q0 -166 -80 -241.5t-250 -75.5h-30v147h26q90 0 126 38t36 129v1134h172zM1774 1286q-50 0 -85 35t-35 85t35 85t85 35t85 -35t35 -85t-35 -85t-85 -35z" />
    <glyph glyph-name="uni01CC" unicode="&#x1cc;" horiz-adv-x="1699" 
d="M162 0v1078h164v-170h16q86 189 324 189q181 0 279 -103.5t98 -295.5v-698h-172v656q0 145 -62.5 215.5t-191.5 70.5q-130 0 -206.5 -81.5t-76.5 -222.5v-638h-172zM1533 1078v-1131q0 -166 -80 -241.5t-250 -75.5h-30v147h26q90 0 126 38t36 129v1134h172zM1449 1286
q-49 0 -84.5 35t-35.5 85t35.5 85t84.5 35t84.5 -35t35.5 -85t-35.5 -85t-84.5 -35z" />
    <glyph glyph-name="Acaron" unicode="&#x1cd;" horiz-adv-x="1380" 
d="M1122 0l-145 413h-574l-145 -413h-189l532 1443h178l532 -1443h-189zM682 1210l-226 -644h468l-226 644h-16zM772 1575h-164l-300 298h202l172 -177h16l172 177h202z" />
    <glyph glyph-name="acaron" unicode="&#x1ce;" horiz-adv-x="1130" 
d="M494 132q133 0 220.5 77t87.5 193v99l-290 -19q-122 -8 -179 -51t-57 -125q0 -81 61 -127.5t157 -46.5zM462 -19q-159 0 -261.5 87.5t-102.5 233.5q0 144 102 226t291 93l311 19v98q0 100 -62 153t-182 53q-97 0 -161 -35t-82 -99h-174q17 129 133.5 208t289.5 79
q196 0 303 -95t107 -264v-738h-164v159h-16q-52 -86 -138 -132t-194 -46zM463 1228l-242 340h188l147 -227h16l147 227h188l-242 -340h-202z" />
    <glyph glyph-name="Icaron" unicode="&#x1cf;" horiz-adv-x="548" 
d="M364 0h-180v1443h180v-1443zM356 1575h-164l-300 298h202l172 -177h16l172 177h202z" />
    <glyph glyph-name="icaron" unicode="&#x1d0;" horiz-adv-x="504" 
d="M166 0v1078h172v-1078h-172zM151 1228l-242 340h188l147 -227h16l147 227h188l-242 -340h-202z" />
    <glyph glyph-name="Ocaron" unicode="&#x1d1;" horiz-adv-x="1580" 
d="M790 1477q307 0 484.5 -203.5t177.5 -551.5q0 -347 -177 -551.5t-485 -204.5q-309 0 -485.5 204t-176.5 552t178 551.5t484 203.5zM790 1311q-220 0 -348.5 -159t-128.5 -430t127 -430.5t350 -159.5q221 0 349 160t128 430q0 271 -128 430t-349 159zM872 1575h-164
l-300 298h202l172 -177h16l172 177h202z" />
    <glyph glyph-name="ocaron" unicode="&#x1d2;" horiz-adv-x="1210" 
d="M605 -19q-230 0 -363.5 149.5t-133.5 408.5q0 260 133 409t364 149t364 -149t133 -409q0 -259 -133.5 -408.5t-363.5 -149.5zM605 136q153 0 236 105.5t83 297.5t-83 297.5t-236 105.5t-236 -105.5t-83 -297.5t83 -297.5t236 -105.5zM504 1228l-242 340h188l147 -227h16
l147 227h188l-242 -340h-202z" />
    <glyph glyph-name="Ucaron" unicode="&#x1d3;" horiz-adv-x="1510" 
d="M362 1443v-935q0 -167 104.5 -271.5t288.5 -104.5t288.5 104.5t104.5 271.5v935h180v-947q0 -235 -154.5 -382.5t-418.5 -147.5t-418.5 147.5t-154.5 382.5v947h180zM837 1575h-164l-300 298h202l172 -177h16l172 177h202z" />
    <glyph glyph-name="ucaron" unicode="&#x1d4;" horiz-adv-x="1196" 
d="M1034 1078v-1078h-164v169h-16q-41 -91 -126 -139.5t-208 -48.5q-180 0 -274 103t-94 296v698h172v-656q0 -147 58 -215.5t186 -68.5q141 0 217.5 79.5t76.5 222.5v638h172zM492 1228l-242 340h188l147 -227h16l147 227h188l-242 -340h-202z" />
    <glyph glyph-name="Udieresismacron" unicode="&#x1d5;" horiz-adv-x="1510" 
d="M362 1443v-935q0 -167 104.5 -271.5t288.5 -104.5t288.5 104.5t104.5 271.5v935h180v-947q0 -235 -154.5 -382.5t-418.5 -147.5t-418.5 147.5t-154.5 382.5v947h180zM553 1809q49 0 83 -34t34 -83t-34 -83t-83 -34t-83 34t-34 83t34 83t83 34zM418 2062h674v-130h-674
v130zM957 1809q49 0 83 -34t34 -83t-34 -83t-83 -34t-83 34t-34 83t34 83t83 34z" />
    <glyph glyph-name="udieresismacron" unicode="&#x1d6;" horiz-adv-x="1196" 
d="M1034 1078v-1078h-164v169h-16q-41 -91 -126 -139.5t-208 -48.5q-180 0 -274 103t-94 296v698h172v-656q0 -147 58 -215.5t186 -68.5q141 0 217.5 79.5t76.5 222.5v638h172zM391 1228q-49 0 -83 34t-34 83t34 83t83 34t83 -34t34 -83t-34 -83t-83 -34zM795 1228
q-49 0 -83 34t-34 83t34 83t83 34t83 -34t34 -83t-34 -83t-83 -34zM920 1756v-136h-654v136h654z" />
    <glyph glyph-name="Udieresisacute" unicode="&#x1d7;" horiz-adv-x="1510" 
d="M362 1443v-935q0 -167 104.5 -271.5t288.5 -104.5t288.5 104.5t104.5 271.5v935h180v-947q0 -235 -154.5 -382.5t-418.5 -147.5t-418.5 147.5t-154.5 382.5v947h180zM667 1873l230 222h227l-281 -222h-176zM553 1575q-50 0 -85.5 35.5t-35.5 85.5t35.5 85.5t85.5 35.5
t85.5 -35.5t35.5 -85.5t-35.5 -85.5t-85.5 -35.5zM957 1575q-50 0 -85.5 35.5t-35.5 85.5t35.5 85.5t85.5 35.5t85.5 -35.5t35.5 -85.5t-35.5 -85.5t-85.5 -35.5z" />
    <glyph glyph-name="udieresisacute" unicode="&#x1d8;" horiz-adv-x="1196" 
d="M1034 1078v-1078h-164v169h-16q-41 -91 -126 -139.5t-208 -48.5q-180 0 -274 103t-94 296v698h172v-656q0 -147 58 -215.5t186 -68.5q141 0 217.5 79.5t76.5 222.5v638h172zM493 1595l190 298h198l-218 -298h-170zM376 1286q-50 0 -85 35t-35 85t35 85t85 35t85 -35
t35 -85t-35 -85t-85 -35zM810 1286q-50 0 -85 35t-35 85t35 85t85 35t85 -35t35 -85t-35 -85t-85 -35z" />
    <glyph glyph-name="Udieresiscaron" unicode="&#x1d9;" horiz-adv-x="1510" 
d="M362 1443v-935q0 -167 104.5 -271.5t288.5 -104.5t288.5 104.5t104.5 271.5v935h180v-947q0 -235 -154.5 -382.5t-418.5 -147.5t-418.5 147.5t-154.5 382.5v947h180zM657 1862l-294 233h222l162 -135h16l162 135h222l-294 -233h-196zM553 1809q49 0 83 -34t34 -83
t-34 -83t-83 -34t-83 34t-34 83t34 83t83 34zM957 1809q49 0 83 -34t34 -83t-34 -83t-83 -34t-83 34t-34 83t34 83t83 34z" />
    <glyph glyph-name="udieresiscaron" unicode="&#x1da;" horiz-adv-x="1196" 
d="M1034 1078v-1078h-164v169h-16q-41 -91 -126 -139.5t-208 -48.5q-180 0 -274 103t-94 296v698h172v-656q0 -147 58 -215.5t186 -68.5q141 0 217.5 79.5t76.5 222.5v638h172zM391 1228q-49 0 -83 34t-34 83t34 83t83 34t83 -34t34 -83t-34 -83t-83 -34zM795 1228
q-49 0 -83 34t-34 83t34 83t83 34t83 -34t34 -83t-34 -83t-83 -34zM694 1575h-202l-282 320h200l175 -207h16l175 207h200z" />
    <glyph glyph-name="Udieresisgrave" unicode="&#x1db;" horiz-adv-x="1510" 
d="M362 1443v-935q0 -167 104.5 -271.5t288.5 -104.5t288.5 104.5t104.5 271.5v935h180v-947q0 -235 -154.5 -382.5t-418.5 -147.5t-418.5 147.5t-154.5 382.5v947h180zM861 1873h-176l-281 222h227zM553 1575q-50 0 -85.5 35.5t-35.5 85.5t35.5 85.5t85.5 35.5t85.5 -35.5
t35.5 -85.5t-35.5 -85.5t-85.5 -35.5zM957 1575q-50 0 -85.5 35.5t-35.5 85.5t35.5 85.5t85.5 35.5t85.5 -35.5t35.5 -85.5t-35.5 -85.5t-85.5 -35.5z" />
    <glyph glyph-name="udieresisgrave" unicode="&#x1dc;" horiz-adv-x="1196" 
d="M1034 1078v-1078h-164v169h-16q-41 -91 -126 -139.5t-208 -48.5q-180 0 -274 103t-94 296v698h172v-656q0 -147 58 -215.5t186 -68.5q141 0 217.5 79.5t76.5 222.5v638h172zM693 1595h-170l-218 298h198zM376 1286q-50 0 -85 35t-35 85t35 85t85 35t85 -35t35 -85
t-35 -85t-85 -35zM810 1286q-50 0 -85 35t-35 85t35 85t85 35t85 -35t35 -85t-35 -85t-85 -35z" />
    <glyph glyph-name="uni04D9" unicode="&#x4d9;" horiz-adv-x="1190" 
d="M588 133q129 0 212.5 87t92.5 230h-594q2 -143 81.5 -230t207.5 -87zM304 799h-172q40 136 159 217t291 81q227 0 358.5 -150.5t131.5 -406.5q0 -255 -132 -407t-354 -152q-218 0 -343 145t-125 397l3 66h772v8q0 158 -86 253t-225 95q-203 0 -278 -146z" />
    <glyph glyph-name="uni04D9" unicode="&#x259;" horiz-adv-x="1190" 
d="M588 133q129 0 212.5 87t92.5 230h-594q2 -143 81.5 -230t207.5 -87zM304 799h-172q40 136 159 217t291 81q227 0 358.5 -150.5t131.5 -406.5q0 -255 -132 -407t-354 -152q-218 0 -343 145t-125 397l3 66h772v8q0 158 -86 253t-225 95q-203 0 -278 -146z" />
    <glyph glyph-name="uni04D9" unicode="&#x1dd;" horiz-adv-x="1190" 
d="M588 133q129 0 212.5 87t92.5 230h-594q2 -143 81.5 -230t207.5 -87zM304 799h-172q40 136 159 217t291 81q227 0 358.5 -150.5t131.5 -406.5q0 -255 -132 -407t-354 -152q-218 0 -343 145t-125 397l3 66h772v8q0 158 -86 253t-225 95q-203 0 -278 -146z" />
    <glyph glyph-name="Adieresismacron" unicode="&#x1de;" horiz-adv-x="1380" 
d="M1122 0l-145 413h-574l-145 -413h-189l532 1443h178l532 -1443h-189zM682 1210l-226 -644h468l-226 644h-16zM488 1809q49 0 83 -34t34 -83t-34 -83t-83 -34t-83 34t-34 83t34 83t83 34zM353 2062h674v-130h-674v130zM892 1809q49 0 83 -34t34 -83t-34 -83t-83 -34
t-83 34t-34 83t34 83t83 34z" />
    <glyph glyph-name="adieresismacron" unicode="&#x1df;" horiz-adv-x="1130" 
d="M494 132q133 0 220.5 77t87.5 193v99l-290 -19q-122 -8 -179 -51t-57 -125q0 -81 61 -127.5t157 -46.5zM462 -19q-159 0 -261.5 87.5t-102.5 233.5q0 144 102 226t291 93l311 19v98q0 100 -62 153t-182 53q-97 0 -161 -35t-82 -99h-174q17 129 133.5 208t289.5 79
q196 0 303 -95t107 -264v-738h-164v159h-16q-52 -86 -138 -132t-194 -46zM362 1228q-49 0 -83 34t-34 83t34 83t83 34t83 -34t34 -83t-34 -83t-83 -34zM766 1228q-49 0 -83 34t-34 83t34 83t83 34t83 -34t34 -83t-34 -83t-83 -34zM891 1756v-136h-654v136h654z" />
    </font>
</defs>
</svg>
