<svg xmlns="http://www.w3.org/2000/svg" width="16" height="12" viewBox="0 0 16 12">
    <defs>
        <linearGradient id="a" x1="38.446%" x2="38.446%" y1="-30.78%" y2="100%">
            <stop offset="0%" stop-color="#00D5BF"/>
            <stop offset="100%" stop-color="#1D2978"/>
        </linearGradient>
    </defs>
    <path fill="url(#a)" fill-rule="nonzero" d="M10.602.525a.54.54 0 0 0-.793 0 .602.602 0 0 0 0 .82l4.024 4.198H.556a.565.565 0 0 0-.556.58c0 .324.246.589.555.589h13.277l-4.023 4.19a.613.613 0 0 0 0 .828.54.54 0 0 0 .793 0l4.976-5.192a.588.588 0 0 0 0-.82L10.602.525z"/>
</svg>
