<svg xmlns="http://www.w3.org/2000/svg" width="28" height="28" viewBox="0 0 28 28">
    <g fill="#202986" fill-rule="evenodd">
        <path d="M6.339 15.877a1.866 1.866 0 0 0 1.87-1.893 1.869 1.869 0 0 0-1.86-1.86 1.854 1.854 0 0 0-1.884 1.874c.003 1.071.812 1.883 1.874 1.879m6.306-1.846c-.017.578-.214 1.087-.62 1.497-1.395 1.404-2.783 2.815-4.198 4.198-.862.842-2.163.826-3.026-.024a305.265 305.265 0 0 1-4.19-4.206c-.79-.807-.826-2.114-.038-2.938a152.926 152.926 0 0 1 4.31-4.33c.825-.796 2.101-.773 2.926.028 1.43 1.388 2.825 2.812 4.226 4.23.417.421.608.95.61 1.545M15.835 6.34a1.841 1.841 0 0 0-1.845-1.866A1.866 1.866 0 0 0 12.095 6.3a1.88 1.88 0 0 0 1.854 1.918c1.047.012 1.878-.816 1.886-1.878M14.008 0c.556.013 1.067.201 1.476.608 1.391 1.385 2.785 2.768 4.155 4.174.882.904.89 2.196.01 3.101a238.442 238.442 0 0 1-4.162 4.167c-.852.833-2.138.863-2.993.037a159.128 159.128 0 0 1-4.252-4.262c-.827-.861-.805-2.147.026-3.003 1.377-1.42 2.784-2.809 4.184-4.205.421-.42.944-.611 1.556-.617M15.853 21.68a1.87 1.87 0 0 0-1.87-1.892 1.87 1.87 0 0 0-1.896 1.867 1.893 1.893 0 0 0 1.87 1.9 1.89 1.89 0 0 0 1.896-1.875m-1.87 6.301a2.041 2.041 0 0 1-1.537-.616c-1.393-1.385-2.79-2.767-4.162-4.174-.831-.853-.858-2.146-.034-3.005a157.476 157.476 0 0 1 4.25-4.27c.865-.834 2.127-.798 2.99.047a233.673 233.673 0 0 1 4.163 4.172c.862.888.855 2.184-.01 3.071-1.361 1.397-2.748 2.769-4.13 4.145-.42.418-.933.635-1.53.63M21.61 19.572c.35-.183.693-.276.915-.493a262.52 262.52 0 0 0 4.137-4.14c.544-.556.537-1.325-.01-1.884a363.258 363.258 0 0 0-4.1-4.113c-.551-.543-1.331-.544-1.882 0a369.94 369.94 0 0 0-4.102 4.11c-.557.567-.546 1.353.013 1.92a269.203 269.203 0 0 0 4.046 4.045c.252.246.63.361.983.555m6.311-5.56c-.01.599-.224 1.128-.654 1.56-1.364 1.373-2.723 2.751-4.102 4.11-.893.878-2.204.887-3.097.012a263.762 263.762 0 0 1-4.128-4.145c-.873-.894-.89-2.164-.021-3.066a188.317 188.317 0 0 1 4.187-4.208c.883-.86 2.18-.824 3.058.044 1.365 1.351 2.714 2.72 4.071 4.078.444.444.674.976.686 1.614"/>
        <path d="M23.53 14.04a1.928 1.928 0 0 1-1.927 1.902c-1.054 0-1.934-.892-1.93-1.957.003-1.06.89-1.926 1.964-1.918 1.068.009 1.908.884 1.893 1.973"/>
    </g>
</svg>
