<svg xmlns="http://www.w3.org/2000/svg" width="16" height="16" viewBox="0 0 16 16">
    <defs>
        <linearGradient id="a" x1="38.446%" x2="38.446%" y1="-30.78%" y2="100%">
            <stop offset="0%" stop-color="#00D5BF"/>
            <stop offset="100%" stop-color="#1D2978"/>
        </linearGradient>
    </defs>
    <path fill="url(#a)" fill-rule="nonzero" d="M14.942 1.035a3.524 3.524 0 0 0-4.987 0l-9.144 9.14a.457.457 0 0 0-.13.263l-.677 5.017c-.02.143.031.286.13.385a.465.465 0 0 0 .323.136c.02 0 .041 0 .062-.003l3.022-.409a.46.46 0 1 0-.122-.912l-2.424.327.473-3.5 3.684 3.684a.45.45 0 0 0 .647 0l9.143-9.14a3.505 3.505 0 0 0 1.035-2.496c0-.943-.367-1.828-1.035-2.492zm-4.81 1.123l1.535 1.536-8.343 8.344-1.536-1.536 8.344-8.344zM5.48 14.19l-1.502-1.501 8.344-8.344 1.501 1.501L5.48 14.19zm8.983-9L10.79 1.514A2.6 2.6 0 0 1 12.45.919a2.601 2.601 0 0 1 2.608 2.608c0 .616-.211 1.195-.596 1.661z"/>
</svg>
