<svg xmlns="http://www.w3.org/2000/svg" width="18" height="15" viewBox="0 0 18 15">
    <g fill="none" fill-rule="evenodd">
        <path d="M-5-6h28v28H-5z"/>
        <path fill="#FFF" fill-rule="nonzero" d="M1.056.857c-.11 0-.199.096-.199.214V13.93c0 .118.09.214.199.214h15.888c.11 0 .199-.096.199-.214V1.07c0-.118-.09-.214-.199-.214H1.056zM1 0h16c.552 0 1 .48 1 1.071V13.93C18 14.52 17.552 15 17 15H1c-.552 0-1-.48-1-1.071V1.07C0 .48.448 0 1 0zM.107 4.179V3.32h17.036v.858H.107zm2.036-1.5a.536.536 0 1 0 0-1.072.536.536 0 0 0 0 1.072zm1.607 0a.536.536 0 1 0 0-1.072.536.536 0 0 0 0 1.072zm1.607 0a.536.536 0 1 1 0-1.072.536.536 0 0 1 0 1.072zm-.326 6.053c-.063.279-.131.555-.203.83a36.77 36.77 0 0 1-.227.83h-.555c-.057-.153-.12-.336-.186-.55a27.224 27.224 0 0 1-.208-.695A48.233 48.233 0 0 1 3.214 7.5h.751a403.582 403.582 0 0 0 .18.913 18.205 18.205 0 0 0 .218.979 26.235 26.235 0 0 0 .236-.993l.105-.473c.033-.152.063-.294.088-.426h.517a93.41 93.41 0 0 0 .296 1.397c.038.169.078.334.12.495a27.398 27.398 0 0 0 .318-1.46l.083-.432h.741a42.768 42.768 0 0 1-.647 2.343c-.069.213-.132.396-.19.55h-.554c-.08-.279-.158-.556-.234-.83a18.45 18.45 0 0 1-.21-.831zm3.96 0a36.77 36.77 0 0 1-.43 1.66h-.556c-.057-.153-.12-.336-.186-.55a27.224 27.224 0 0 1-.208-.695A48.234 48.234 0 0 1 7.173 7.5h.751a403.585 403.585 0 0 0 .18.913c.033.165.068.33.105.498.036.167.074.327.112.48a26.235 26.235 0 0 0 .237-.992l.105-.473c.033-.152.063-.294.088-.426h.517a93.41 93.41 0 0 0 .296 1.397c.038.169.078.334.12.495a27.396 27.396 0 0 0 .318-1.46l.083-.432h.742a42.768 42.768 0 0 1-.648 2.343c-.069.213-.132.396-.19.55h-.554c-.08-.279-.158-.556-.234-.83a18.451 18.451 0 0 1-.21-.831zm3.959 0a36.77 36.77 0 0 1-.43 1.66h-.555c-.058-.153-.12-.336-.187-.55a27.224 27.224 0 0 1-.208-.695 48.233 48.233 0 0 1-.437-1.647h.75a403.585 403.585 0 0 0 .18.913c.033.165.068.33.105.498.036.167.074.327.112.48a26.235 26.235 0 0 0 .237-.992l.105-.473c.034-.152.063-.294.089-.426h.516a93.422 93.422 0 0 0 .296 1.397c.039.169.078.334.12.495a27.397 27.397 0 0 0 .318-1.46l.084-.432h.74a42.768 42.768 0 0 1-.647 2.343c-.069.213-.132.396-.19.55h-.554c-.08-.279-.158-.556-.234-.83a18.45 18.45 0 0 1-.21-.831z"/>
    </g>
</svg>
