<svg xmlns="http://www.w3.org/2000/svg" width="14" height="14" viewBox="0 0 14 14">
    <defs>
        <linearGradient id="a" x1="38.446%" x2="38.446%" y1="-30.78%" y2="100%">
            <stop offset="0%" stop-color="#00D5BF"/>
            <stop offset="100%" stop-color="#1D2978"/>
        </linearGradient>
    </defs>
    <path fill="url(#a)" fill-rule="nonzero" d="M13.026.968c.623.622.966 1.453.966 2.34 0 .886-.343 1.717-.966 2.34l-3.06 3.06a3.299 3.299 0 0 1-2.34.967 3.299 3.299 0 0 1-2.34-.968.509.509 0 1 1 .72-.72 2.294 2.294 0 0 0 3.24 0l3.06-3.06c.43-.43.667-1.005.667-1.62a2.274 2.274 0 0 0-2.288-2.288c-.613.001-1.188.238-1.619.668l-2.34 2.34a.509.509 0 1 1-.72-.72l2.34-2.34a3.313 3.313 0 0 1 4.68 0zm-6.12 9.359a.509.509 0 1 1 .72.72l-1.98 1.98a3.285 3.285 0 0 1-2.34.966 3.285 3.285 0 0 1-2.34-.966 3.285 3.285 0 0 1-.965-2.34c0-.886.343-1.717.966-2.34l2.88-2.88a3.313 3.313 0 0 1 4.679 0 .509.509 0 1 1-.72.72 2.275 2.275 0 0 0-1.62-.667c-.614 0-1.189.237-1.62.667l-2.88 2.88a2.294 2.294 0 0 0 0 3.24c.431.43 1.007.667 1.62.667.615 0 1.19-.237 1.62-.667l1.98-1.98z"/>
</svg>
