<svg xmlns="http://www.w3.org/2000/svg" width="30" height="28" viewBox="0 0 30 28">
    <g fill="none" fill-rule="nonzero" stroke-linecap="round" stroke-linejoin="round" stroke-width=".6">
        <path fill="#E2761B" stroke="#E2761B" d="M27.59 1.055L16.705 9.162l2.013-4.783z"/>
        <g fill="#E4761B" stroke="#E4761B">
            <path d="M2.466 1.055L13.26 9.239l-1.914-4.86zM23.673 19.847l-2.898 4.454 6.202 1.712 1.782-6.067zM1.317 19.946l1.772 6.067L9.291 24.3l-2.899-4.454z"/>
            <path d="M8.94 12.322l-1.727 2.621 6.157.275-.218-6.637zM21.114 12.322l-4.266-3.818-.142 6.714 6.147-.275zM9.29 24.301l3.698-1.81-3.194-2.501zM17.067 22.491l3.708 1.81-.514-4.311z"/>
        </g>
        <g fill="#D7C1B3" stroke="#D7C1B3">
            <path d="M20.775 24.301l-3.708-1.81.295 2.425-.032 1.02zM9.29 24.301l3.446 1.635-.022-1.02.274-2.425z"/>
        </g>
        <path fill="#233447" stroke="#233447" d="M12.79 18.388l-3.084-.91 2.177-.999zM17.264 18.388l.908-1.909 2.187.999z"/>
        <g fill="#CD6116" stroke="#CD6116">
            <path d="M9.29 24.301l.526-4.454-3.424.099zM20.25 19.847l.525 4.454 2.898-4.355zM22.853 14.943l-6.147.275.569 3.17.908-1.909 2.187.999zM9.706 17.478l2.188-.999.897 1.91.58-3.171-6.158-.275z"/>
        </g>
        <g fill="#E4751F" stroke="#E4751F">
            <path d="M7.213 14.943l2.58 5.047-.087-2.512zM20.37 17.478l-.11 2.512 2.593-5.047zM13.37 15.218l-.58 3.17.723 3.741.164-4.926zM16.706 15.218l-.295 1.974.131 4.937.733-3.74z"/>
        </g>
        <path fill="#F6851B" stroke="#F6851B" d="M17.275 18.388l-.733 3.741.525.362 3.194-2.501.11-2.512zM9.706 17.478l.088 2.512 3.194 2.501.524-.362-.721-3.74z"/>
        <path fill="#C0AD9E" stroke="#C0AD9E" d="M17.33 25.936l.033-1.02-.274-.242h-4.123l-.252.242.022 1.02L9.29 24.3l1.203.988 2.439 1.7h4.189l2.45-1.7 1.203-.988z"/>
        <path fill="#161616" stroke="#161616" d="M17.067 22.491l-.525-.362h-3.03l-.524.362-.274 2.425.252-.242h4.123l.274.242z"/>
        <g fill="#763D16" stroke="#763D16">
            <path d="M28.048 9.689l.93-4.476-1.389-4.158-10.522 7.833 4.047 3.434L26.834 14l1.27-1.481-.548-.395.875-.8-.678-.527.875-.67zM1.087 5.213l.93 4.476-.59.438.875.67-.668.526.875.801-.546.395L3.22 14l5.72-1.678 4.048-3.434L2.466 1.055z"/>
        </g>
        <path fill="#F6851B" stroke="#F6851B" d="M26.834 14l-5.72-1.678 1.74 2.621-2.593 5.047 3.412-.044h5.086zM8.94 12.322L3.22 14l-1.903 5.946h5.075l3.402.044-2.582-5.047zM16.706 15.218l.361-6.33 1.663-4.51h-7.383l1.64 4.51.383 6.33.132 1.996.01 4.915h3.03l.022-4.915z"/>
    </g>
</svg>
