<svg xmlns="http://www.w3.org/2000/svg" width="18" height="15" viewBox="0 0 18 15">
    <g fill="none" fill-rule="evenodd">
        <path d="M-5-6h28v28H-5z"/>
        <g fill="#FFF" fill-rule="nonzero">
            <path d="M6.587 12H2.413c-.228 0-.413.224-.413.5s.185.5.413.5h4.174c.228 0 .413-.224.413-.5s-.185-.5-.413-.5zM13.587 12H9.413c-.228 0-.413.224-.413.5s.185.5.413.5h4.174c.228 0 .413-.224.413-.5s-.185-.5-.413-.5zM12.596 2H2.404C2.181 2 2 2.224 2 2.5s.181.5.404.5h10.192c.223 0 .404-.224.404-.5s-.181-.5-.404-.5zM13.587 4H9.413C9.185 4 9 4.224 9 4.5s.185.5.413.5h4.174c.228 0 .413-.224.413-.5s-.185-.5-.413-.5zM13.587 6H9.413C9.185 6 9 6.224 9 6.5s.185.5.413.5h4.174c.228 0 .413-.224.413-.5s-.185-.5-.413-.5zM13.587 8H9.413C9.185 8 9 8.224 9 8.5s.185.5.413.5h4.174c.228 0 .413-.224.413-.5s-.185-.5-.413-.5zM13.587 10H9.413c-.228 0-.413.224-.413.5s.185.5.413.5h4.174c.228 0 .413-.224.413-.5s-.185-.5-.413-.5zM6.587 10H2.413c-.228 0-.413.224-.413.5s.185.5.413.5h4.174c.228 0 .413-.224.413-.5s-.185-.5-.413-.5zM6.587 4H2.413A.413.413 0 0 0 2 4.413v4.174c0 .228.185.413.413.413h4.174A.413.413 0 0 0 7 8.587V4.413A.413.413 0 0 0 6.587 4zm-.413 4.174H2.826V4.826h3.348v3.348z"/>
            <path d="M17.186 1.923h-1.222V.77c0-.424-.366-.769-.815-.769H.814C.365 0 0 .345 0 .77v12.307C0 14.137.913 15 2.036 15h13.928C17.087 15 18 14.137 18 13.077V2.692c0-.424-.365-.769-.814-.769zm0 11.154c0 .636-.549 1.154-1.222 1.154H2.036c-.673 0-1.222-.518-1.222-1.154V.769H15.15V12.5c0 .53.457.962 1.018.962a.396.396 0 0 0 .408-.385.396.396 0 0 0-.408-.385c-.112 0-.203-.086-.203-.192V2.692h1.222v10.385z"/>
        </g>
    </g>
</svg>
