<svg xmlns="http://www.w3.org/2000/svg" width="16" height="16" viewBox="0 0 16 16">
    <path fill="#FFF" fill-rule="nonzero" d="M2.989 3.057a.11.11 0 0 0-.11.11v10.046c0 .06.049.109.11.109h10.184a.11.11 0 0 0 .11-.11V3.168a.11.11 0 0 0-.11-.11H2.989zm0-.873h10.184c.55 0 .996.44.996.983v10.046a.99.99 0 0 1-.996.982H2.989a.99.99 0 0 1-.996-.982V3.167a.99.99 0 0 1 .996-.983zm3.32 4.15a.11.11 0 0 0-.11.108v3.495c0 .06.05.109.11.109h3.543a.11.11 0 0 0 .11-.11V6.443a.11.11 0 0 0-.11-.109H6.31zm0-.874h3.543c.55 0 .996.44.996.982v3.495a.99.99 0 0 1-.996.982H6.31a.99.99 0 0 1-.997-.982V6.442a.99.99 0 0 1 .997-.982zM3.765 0c.244 0 .442.198.442.443v2.01a.443.443 0 0 1-.885 0V.444c0-.245.198-.443.443-.443zM8.19 0c.245 0 .443.198.443.443v2.01a.443.443 0 0 1-.885 0V.444c0-.245.198-.443.442-.443zm4.428 0c.245 0 .443.198.443.443v2.01a.443.443 0 0 1-.886 0V.444c0-.245.199-.443.443-.443zm1.101 3.494h1.843a.437.437 0 0 1 0 .874H13.72a.437.437 0 1 1 0-.874zm0 3.986h1.843a.437.437 0 0 1 0 .873H13.72a.437.437 0 1 1 0-.873zm0 3.985h1.843a.437.437 0 0 1 0 .874H13.72a.437.437 0 1 1 0-.874zM.437 3.495H2.28a.437.437 0 0 1 0 .873H.437a.437.437 0 1 1 0-.874zm0 3.985H2.28a.437.437 0 0 1 0 .873H.437a.437.437 0 1 1 0-.873zm0 3.985H2.28a.437.437 0 0 1 0 .874H.437a.437.437 0 1 1 0-.874zm3.327 1.88c.244 0 .442.197.442.442v1.77a.443.443 0 0 1-.885 0v-1.77c0-.245.198-.443.443-.443zm4.427 0c.245 0 .443.197.443.442v1.77a.443.443 0 0 1-.885 0v-1.77c0-.245.198-.443.442-.443zm4.428 0c.245 0 .443.197.443.442v1.77a.443.443 0 0 1-.886 0v-1.77c0-.245.199-.443.443-.443z"/>
</svg>
