<svg xmlns="http://www.w3.org/2000/svg" width="14" height="16" viewBox="0 0 14 16">
    <path fill="#FFF" fill-rule="nonzero" d="M13.576 10.168a6.917 6.917 0 0 1-3.587 3.906l2.201.76c.28.097.427.397.327.67a.539.539 0 0 1-.687.32l-3.531-1.22a.521.521 0 0 1-.328-.67l1.322-3.632a.543.543 0 0 1 .688-.319c.28.097.426.397.327.67l-.926 2.542a5.874 5.874 0 0 0 3.18-3.378c1.109-3.046-.533-6.405-3.661-7.486a.521.521 0 0 1-.327-.67.543.543 0 0 1 .687-.319c3.687 1.274 5.623 5.234 4.316 8.826zM.542 5.686A6.916 6.916 0 0 1 4.13 1.78l-2.201-.761A.521.521 0 0 1 1.6.349.543.543 0 0 1 2.29.03L5.82 1.25c.28.097.427.397.328.67L4.826 5.552a.539.539 0 0 1-.688.319.521.521 0 0 1-.327-.67l.926-2.542a5.873 5.873 0 0 0-3.18 3.377c-1.109 3.048.533 6.406 3.661 7.487.28.097.427.397.327.67a.539.539 0 0 1-.687.319C1.17 13.238-.765 9.278.543 5.686z"/>
</svg>
