<svg xmlns="http://www.w3.org/2000/svg" width="15" height="16" viewBox="0 0 15 16">
    <path fill="#FFF" fill-rule="nonzero" d="M.893 4.394h9.402v.866H.893v4.901c0 1.554 1.3 2.814 2.902 2.814h6.07v.866h-6.07C1.7 13.841 0 12.194 0 10.161V0h.893v4.394zm11.316 10.74c1.048 0 1.898-.824 1.898-1.84s-.85-1.84-1.898-1.84-1.897.824-1.897 1.84.85 1.84 1.897 1.84zm0 .866c-1.541 0-2.79-1.211-2.79-2.706 0-1.494 1.249-2.706 2.79-2.706 1.542 0 2.791 1.212 2.791 2.706C15 14.789 13.75 16 12.21 16zm0-9.308c1.048 0 1.898-.824 1.898-1.84 0-1.017-.85-1.84-1.898-1.84s-1.897.823-1.897 1.84c0 1.016.85 1.84 1.897 1.84zm0 .865c-1.541 0-2.79-1.211-2.79-2.706 0-1.494 1.249-2.705 2.79-2.705C13.751 2.146 15 3.357 15 4.85c0 1.495-1.25 2.706-2.79 2.706z"/>
</svg>
