<svg xmlns="http://www.w3.org/2000/svg" width="14" height="14" viewBox="0 0 14 14">
    <defs>
        <linearGradient id="a" x1="38.446%" x2="38.446%" y1="-12.174%" y2="100%">
            <stop offset="0%" stop-color="#00D5BF"/>
            <stop offset="100%" stop-color="#1D2978"/>
        </linearGradient>
    </defs>
    <path fill="url(#a)" fill-rule="nonzero" d="M13.573 10.51a.358.358 0 0 1-.348.367H1.21l2.112 2.215a.38.38 0 0 1 0 .52.341.341 0 0 1-.5 0L.112 10.77a.38.38 0 0 1 0-.52l2.71-2.844a.338.338 0 0 1 .497 0 .38.38 0 0 1 0 .52L1.206 10.14H13.22c.195 0 .353.165.353.37zm-.104-7.561c.138.144.138.38.003.52l-2.711 2.844a.341.341 0 0 1-.5 0 .38.38 0 0 1 0-.52l2.112-2.21H.357a.362.362 0 0 1-.353-.37c0-.204.158-.37.353-.37h12.016L10.262.63a.38.38 0 0 1 0-.52.338.338 0 0 1 .496 0l2.711 2.84z"/>
</svg>
