<svg xmlns="http://www.w3.org/2000/svg" width="19" height="15" viewBox="0 0 19 15">
    <path fill="#FFF" fill-rule="nonzero" d="M17.936 6.523h-.452V4.025c0-1.021-.904-1.85-2.01-1.85h-.417l.004-.928C15.06.56 14.453 0 13.704 0H1.648C.748 0 .012.667 0 1.495V13.753C0 14.44.608 15 1.356 15h14.121c1.111 0 2.011-.832 2.011-1.85V10.65h.452c.585 0 1.06-.438 1.06-.975V7.498c-.004-.537-.48-.975-1.064-.975zM1.648.86h12.056c.23 0 .421.172.421.384l-.004.932H1.648c-.393 0-.713-.294-.713-.656 0-.362.32-.66.713-.66zM16.55 13.147c0 .545-.483.99-1.075.99H1.352c-.23 0-.42-.173-.42-.388V2.885c.218.097.46.15.716.15h13.826c.592 0 1.075.445 1.075.99v2.498h-3.191c-.585 0-1.06.438-1.06.975v2.176c0 .537.475.975 1.06.975h3.191v2.498zm1.512-3.473c0 .064-.055.115-.125.115h-4.574c-.07 0-.125-.05-.125-.115V7.498c0-.06.054-.114.125-.114h4.574c.066 0 .125.05.125.114v2.176z"/>
</svg>
