<svg xmlns="http://www.w3.org/2000/svg" xmlns:xlink="http://www.w3.org/1999/xlink" width="131" height="81" viewBox="0 0 131 81">
    <defs>
        <path id="a" d="M.962.054h10.35v10.427H.962z"/>
        <path id="c" d="M.962.054h10.35v10.427H.962z"/>
    </defs>
    <g fill="none" fill-rule="evenodd">
        <g fill-rule="nonzero" stroke="#5977D8" stroke-width="1.3">
            <path d="M87.5 52.492v3.38M87.5 58.5V68M60.954 11.82h12.507M81 11.799c3.333.052 5.467 1.69 6.4 4.912M87.5 24v3.083"/>
        </g>
        <path fill="#5977D8" fill-rule="nonzero" d="M68.911 65.777l-.276-.961c.963-.276 1.922-.556 2.877-.84l.284.959c-.957.284-1.92.565-2.885.842zm5.76-1.71l-.294-.957c.96-.294 1.912-.593 2.86-.894l.303.953c-.95.302-1.907.601-2.869.897zm5.726-1.823l-.312-.95a289.6 289.6 0 0 0 2.838-.95l.322.946c-.941.32-1.89.639-2.848.954zm5.692-1.94l-.333-.943c.949-.335 1.888-.672 2.816-1.012l.344.94c-.933.34-1.875.679-2.827 1.015zm5.644-2.064l-.354-.935a238.79 238.79 0 0 0 2.793-1.078l.366.93c-.922.363-1.857.724-2.805 1.083zm5.598-2.203l-.379-.925c.938-.384 1.859-.768 2.762-1.153l.392.92c-.908.387-1.833.773-2.775 1.158zm5.539-2.362l-.407-.913c.93-.414 1.837-.828 2.722-1.241l.423.906c-.89.415-1.803.832-2.738 1.248zm5.453-2.55l-.442-.897c.92-.453 1.808-.904 2.665-1.352l.463.887c-.864.451-1.76.906-2.686 1.362zm5.334-2.795l-.489-.872a80.612 80.612 0 0 0 2.575-1.505l.52.854a81.61 81.61 0 0 1-2.606 1.523zm5.156-3.163l-.563-.827a40.439 40.439 0 0 0 2.39-1.75l.623.782a41.43 41.43 0 0 1-2.45 1.795zm4.736-3.834l-.717-.698c.79-.81 1.368-1.57 1.73-2.27l.888.46c-.412.795-1.048 1.631-1.901 2.508zm2.148-5.914l-.9.436c-.315-.65-.999-1.217-2.055-1.683l.403-.915c1.256.554 2.12 1.271 2.552 2.162zm-5.547-3.052l-.192.981a28.066 28.066 0 0 0-2.92-.399l.088-.996c1.107.098 2.117.236 3.024.414zm-6.02-.575l-.024 1a65.567 65.567 0 0 0-2.976 0l-.022-1a66.562 66.562 0 0 1 3.022 0zm-6.073.122l.057.999c-.961.054-1.955.125-2.98.211l-.083-.996c1.033-.087 2.036-.159 3.006-.214zm-6.042.507l.107.994a145.253 145.253 0 0 0-2.976.352l-.127-.992a156.991 156.991 0 0 1 2.996-.354zM32.47 50.876l.383.924c-.937.387-1.856.776-2.757 1.165l-.396-.918c.905-.391 1.83-.782 2.77-1.171zm-5.524 2.387l.412.911c-.928.42-1.833.838-2.714 1.256l-.429-.904c.887-.42 1.797-.842 2.731-1.263zm-5.438 2.583l.448.894c-.918.46-1.803.918-2.655 1.372l-.47-.882c.859-.459 1.751-.92 2.677-1.384zM16.19 58.69l.498.868a74.126 74.126 0 0 0-2.554 1.533l-.533-.846a75.123 75.123 0 0 1 2.59-1.555zm-5.11 3.235l.578.816c-.87.618-1.652 1.22-2.342 1.804l-.646-.763a35.908 35.908 0 0 1 2.41-1.857zm-4.622 4.011l.758.652c-.749.87-1.23 1.672-1.443 2.389l-.959-.285c.258-.867.81-1.786 1.644-2.756zm-.909 6.058l.731-.682c.5.536 1.301 1 2.392 1.374l-.324.946c-1.234-.424-2.173-.967-2.799-1.638zm5.856 2.36l.155-.988c.89.14 1.87.245 2.939.315l-.066.998a34.115 34.115 0 0 1-3.028-.325zm6.01.43l.009-1c.945.01 1.939-.004 2.979-.038l.032 1a72.661 72.661 0 0 1-3.02.039zm6.07-.19l-.065-.998c.962-.063 1.955-.142 2.977-.235l.091.996c-1.03.094-2.032.173-3.003.237zm6.035-.55l-.114-.994c.969-.11 1.958-.233 2.968-.367l.132.99c-1.016.136-2.012.26-2.986.37zm5.902-.784l-.148-.989c.97-.146 1.956-.301 2.956-.467l.163.986c-1.005.167-1.996.324-2.97.47zm5.927-.981l-.177-.984c.97-.175 1.952-.358 2.943-.55l.19.982a233 233 0 0 1-2.956.552zm5.908-1.142l-.201-.98c.968-.199 1.945-.406 2.93-.62l.212.976c-.988.216-1.968.424-2.94.624zm5.886-1.283l-.224-.974c.966-.222 1.938-.45 2.915-.685l.234.972c-.98.236-1.956.465-2.925.687zm5.855-1.408l-.244-.97c.963-.242 1.93-.49 2.901-.744l.254.967c-.974.255-1.945.504-2.911.747zm5.821-1.524l-.262-.965c.96-.262 1.922-.529 2.886-.801l.272.962c-.967.274-1.933.541-2.896.804z"/>
        <g transform="translate(0 61)">
            <mask id="b" fill="#fff">
                <use xlink:href="#a"/>
            </mask>
            <path fill="#D1B554" d="M11.312 5.268c0 2.879-2.317 5.213-5.175 5.213-2.858 0-5.175-2.334-5.175-5.213C.962 2.388 3.28.054 6.137.054c2.858 0 5.175 2.334 5.175 5.214" mask="url(#b)"/>
        </g>
        <g transform="translate(119 37)">
            <mask id="d" fill="#fff">
                <use xlink:href="#c"/>
            </mask>
            <path fill="#D1B554" d="M11.312 5.268c0 2.879-2.317 5.213-5.175 5.213-2.858 0-5.175-2.334-5.175-5.213C.962 2.388 3.28.054 6.137.054c2.858 0 5.175 2.334 5.175 5.214" mask="url(#d)"/>
        </g>
        <path fill="#5977D8" fill-rule="nonzero" d="M28.652 39.384H35.2l-.1 16.991a4.7 4.7 0 0 0 4.942 4.722l23.251-1.205V75a4.7 4.7 0 0 0 4.7 4.7h24.321a4.7 4.7 0 0 0 4.7-4.7V44c0-.24-.018-.477-.053-.71l-.015-.197.029-18.056V25c0-13.09-10.611-23.7-23.7-23.7H47.058c-6.435 0-11.662 5.196-11.7 11.63l-.069 11.555-7.257 13.875a.7.7 0 0 0 .62 1.024zm5.234 2.593l.007-1.293h-1.292l-.008-.007-3.941.007a2 2 0 0 1-1.772-2.927l7.111-13.595.067-11.24C34.1 5.774 39.908 0 47.058 0h26.218c13.807 0 25 11.193 25 25v.04l-.029 18.055c.045.295.068.597.068.905v31a6 6 0 0 1-6 6h-24.32a6 6 0 0 1-6-6V62.563l.066-.003-.067-.064v-1.234l-1.233.063-.067-.063v.067L40.11 62.395a6 6 0 0 1-6.31-6.028l.085-14.383h.008l-.007-.007z"/>
    </g>
</svg>
