<svg xmlns="http://www.w3.org/2000/svg" width="20" height="16" viewBox="0 0 20 16">
    <path fill="#FFF" fill-rule="evenodd" d="M6.823 16.019c6.195.04 11.25-4.975 11.29-11.204v-.147c0-.171 0-.343-.008-.513a8.101 8.101 0 0 0 1.981-2.07 8.02 8.02 0 0 1-2.282.63 4.006 4.006 0 0 0 1.745-2.21 7.866 7.866 0 0 1-2.523.966 3.953 3.953 0 0 0-5.61-.181 3.998 3.998 0 0 0-1.254 2.915c.005.305.04.608.107.906a11.249 11.249 0 0 1-8.18-4.17 4.019 4.019 0 0 0 1.23 5.33 3.986 3.986 0 0 1-1.794-.499v.055a3.992 3.992 0 0 0 3.18 3.913 3.959 3.959 0 0 1-1.787.07 3.97 3.97 0 0 0 3.707 2.77A7.935 7.935 0 0 1 .75 14.235a11.243 11.243 0 0 0 6.074 1.782"/>
</svg>
