<svg xmlns="http://www.w3.org/2000/svg" width="22" height="21" viewBox="0 0 22 21">
    <path fill="#FFF" fill-rule="evenodd" d="M3.3 9.675l3.648 1.39c.263.1.463.322.536.594l.463 1.754a.858.858 0 0 1 .261-.536l9.12-8.787L3.3 9.675zm4.792 4.33l.651 2.489 1.419-1.013-1.853-1.26a.777.777 0 0 1-.217-.216zm4.097.738l4.908 3.33 2.65-13.914-9.57 9.224 1.983 1.345c.014 0 .014.015.029.015zm5.516 5.66a.854.854 0 0 1-.492-.144l-5.516-3.736-2.954 2.128a.867.867 0 0 1-1.346-.48l-1.49-5.644L.593 10.5a.872.872 0 0 1 0-1.62L20.774.844a.95.95 0 0 1 .29-.072h.1a.881.881 0 0 1 .55.246l.043.043c.126.14.203.318.217.507v.145c0 .029-.015.072-.015.101l-3.4 17.893a.866.866 0 0 1-.52.64.844.844 0 0 1-.333.058l-.001-.003z"/>
</svg>
